<svg xmlns="http://www.w3.org/2000/svg" xmlns:xlink="http://www.w3.org/1999/xlink" contentStyleType="text/css" data-diagram-type="SEQUENCE" height="883px" preserveAspectRatio="none" style="width:1041px;height:883px;background:#FFFFFF;" version="1.1" viewBox="0 0 1041 883" width="1041px" zoomAndPan="magnify"><defs/><g><rect fill="none" height="104.5313" style="stroke:#000000;stroke-width:1.5;" width="752.6792" x="10" y="330.2266"/><rect fill="none" height="104.5313" style="stroke:#000000;stroke-width:1.5;" width="752.6792" x="10" y="477.8906"/><g><title>Administrateur</title><rect fill="#000000" fill-opacity="0.00000" height="720.9219" width="8" x="71.3018" y="81.2969"/><line style="stroke:#181818;stroke-width:0.5;stroke-dasharray:5.0,5.0;" x1="75" x2="75" y1="81.2969" y2="802.2188"/></g><g><title>Interface Utilisateur</title><rect fill="#000000" fill-opacity="0.00000" height="720.9219" width="8" x="326.3765" y="81.2969"/><line style="stroke:#181818;stroke-width:0.5;stroke-dasharray:5.0,5.0;" x1="329.8071" x2="329.8071" y1="81.2969" y2="802.2188"/></g><g><title>Syst&#232;me de R&#233;servation</title><rect fill="#000000" fill-opacity="0.00000" height="720.9219" width="8" x="656.2266" y="81.2969"/><line style="stroke:#181818;stroke-width:0.5;stroke-dasharray:5.0,5.0;" x1="659.7739" x2="659.7739" y1="81.2969" y2="802.2188"/></g><g><title>Base de Donn&#233;es</title><rect fill="#000000" fill-opacity="0.00000" height="720.9219" width="8" x="957.3789" y="81.2969"/><line style="stroke:#181818;stroke-width:0.5;stroke-dasharray:5.0,5.0;" x1="961.3271" x2="961.3271" y1="81.2969" y2="802.2188"/></g><g class="participant participant-head" data-participant="Administrateur"><text fill="#000000" font-family="sans-serif" font-size="14" lengthAdjust="spacing" textLength="104.6035" x="20" y="77.9951">Administrateur</text><ellipse cx="75.3018" cy="13.5" fill="#E2E2F0" rx="8" ry="8" style="stroke:#181818;stroke-width:0.5;"/><path d="M75.3018,21.5 L75.3018,48.5 M62.3018,29.5 L88.3018,29.5 M75.3018,48.5 L62.3018,63.5 M75.3018,48.5 L88.3018,63.5" fill="none" style="stroke:#181818;stroke-width:0.5;"/></g><g class="participant participant-tail" data-participant="Administrateur"><text fill="#000000" font-family="sans-serif" font-size="14" lengthAdjust="spacing" textLength="104.6035" x="20" y="814.2139">Administrateur</text><ellipse cx="75.3018" cy="826.0156" fill="#E2E2F0" rx="8" ry="8" style="stroke:#181818;stroke-width:0.5;"/><path d="M75.3018,834.0156 L75.3018,861.0156 M62.3018,842.0156 L88.3018,842.0156 M75.3018,861.0156 L62.3018,876.0156 M75.3018,861.0156 L88.3018,876.0156" fill="none" style="stroke:#181818;stroke-width:0.5;"/></g><g class="participant participant-head" data-participant="UI"><rect fill="#E2E2F0" height="30.2969" rx="2.5" ry="2.5" style="stroke:#181818;stroke-width:0.5;" width="153.1387" x="253.8071" y="50"/><text fill="#000000" font-family="sans-serif" font-size="14" lengthAdjust="spacing" textLength="139.1387" x="260.8071" y="69.9951">Interface Utilisateur</text></g><g class="participant participant-tail" data-participant="UI"><rect fill="#E2E2F0" height="30.2969" rx="2.5" ry="2.5" style="stroke:#181818;stroke-width:0.5;" width="153.1387" x="253.8071" y="801.2188"/><text fill="#000000" font-family="sans-serif" font-size="14" lengthAdjust="spacing" textLength="139.1387" x="260.8071" y="821.2139">Interface Utilisateur</text></g><g class="participant participant-head" data-participant="System"><rect fill="#E2E2F0" height="30.2969" rx="2.5" ry="2.5" style="stroke:#181818;stroke-width:0.5;" width="184.9053" x="567.7739" y="50"/><text fill="#000000" font-family="sans-serif" font-size="14" lengthAdjust="spacing" textLength="170.9053" x="574.7739" y="69.9951">Syst&#232;me de R&#233;servation</text></g><g class="participant participant-tail" data-participant="System"><rect fill="#E2E2F0" height="30.2969" rx="2.5" ry="2.5" style="stroke:#181818;stroke-width:0.5;" width="184.9053" x="567.7739" y="801.2188"/><text fill="#000000" font-family="sans-serif" font-size="14" lengthAdjust="spacing" textLength="170.9053" x="574.7739" y="821.2139">Syst&#232;me de R&#233;servation</text></g><g class="participant participant-head" data-participant="DB"><rect fill="#E2E2F0" height="30.2969" rx="2.5" ry="2.5" style="stroke:#181818;stroke-width:0.5;" width="136.1035" x="893.3271" y="50"/><text fill="#000000" font-family="sans-serif" font-size="14" lengthAdjust="spacing" textLength="122.1035" x="900.3271" y="69.9951">Base de Donn&#233;es</text></g><g class="participant participant-tail" data-participant="DB"><rect fill="#E2E2F0" height="30.2969" rx="2.5" ry="2.5" style="stroke:#181818;stroke-width:0.5;" width="136.1035" x="893.3271" y="801.2188"/><text fill="#000000" font-family="sans-serif" font-size="14" lengthAdjust="spacing" textLength="122.1035" x="900.3271" y="821.2139">Base de Donn&#233;es</text></g><rect fill="#EEEEEE" height="3" style="stroke:#EEEEEE;stroke-width:1;" width="1034.4307" x="0" y="111.8633"/><line style="stroke:#000000;stroke-width:1;" x1="0" x2="1034.4307" y1="111.8633" y2="111.8633"/><line style="stroke:#000000;stroke-width:1;" x1="0" x2="1034.4307" y1="114.8633" y2="114.8633"/><rect fill="#EEEEEE" height="23.1328" style="stroke:#000000;stroke-width:2;" width="198.5073" x="417.9617" y="101.2969"/><text fill="#000000" font-family="sans-serif" font-size="13" font-weight="bold" lengthAdjust="spacing" textLength="179.9814" x="423.9617" y="117.3638">Acc&#232;s &#224; la fonctionnalit&#233;</text><g class="message" data-participant-1="Administrateur" data-participant-2="UI"><polygon fill="#181818" points="318.3765,151.5625,328.3765,155.5625,318.3765,159.5625,322.3765,155.5625" style="stroke:#181818;stroke-width:1;"/><line style="stroke:#181818;stroke-width:1;" x1="75.3018" x2="324.3765" y1="155.5625" y2="155.5625"/><text fill="#000000" font-family="sans-serif" font-size="13" font-weight="bold" lengthAdjust="spacing" textLength="9.0454" x="82.3018" y="150.4966">1</text><text fill="#000000" font-family="sans-serif" font-size="13" lengthAdjust="spacing" textLength="214.9634" x="95.3472" y="150.4966">Acc&#233;der au menu "R&#233;servations"</text></g><g class="message" data-participant-1="UI" data-participant-2="System"><polygon fill="#181818" points="648.2266,180.6953,658.2266,184.6953,648.2266,188.6953,652.2266,184.6953" style="stroke:#181818;stroke-width:1;"/><line style="stroke:#181818;stroke-width:1;" x1="330.3765" x2="654.2266" y1="184.6953" y2="184.6953"/><text fill="#000000" font-family="sans-serif" font-size="13" font-weight="bold" lengthAdjust="spacing" textLength="9.0454" x="337.3765" y="179.6294">2</text><text fill="#000000" font-family="sans-serif" font-size="13" lengthAdjust="spacing" textLength="143" x="350.4219" y="179.6294">Demander les options</text></g><g class="message" data-participant-1="Administrateur" data-participant-2="UI"><polygon fill="#181818" points="318.3765,209.8281,328.3765,213.8281,318.3765,217.8281,322.3765,213.8281" style="stroke:#181818;stroke-width:1;"/><line style="stroke:#181818;stroke-width:1;" x1="75.3018" x2="324.3765" y1="213.8281" y2="213.8281"/><text fill="#000000" font-family="sans-serif" font-size="13" font-weight="bold" lengthAdjust="spacing" textLength="9.0454" x="82.3018" y="208.7622">3</text><text fill="#000000" font-family="sans-serif" font-size="13" lengthAdjust="spacing" textLength="218.0293" x="95.3472" y="208.7622">Choisir "Annuler une r&#233;servation"</text></g><g class="message" data-participant-1="UI" data-participant-2="System"><polygon fill="#181818" points="648.2266,238.9609,658.2266,242.9609,648.2266,246.9609,652.2266,242.9609" style="stroke:#181818;stroke-width:1;"/><line style="stroke:#181818;stroke-width:1;" x1="330.3765" x2="654.2266" y1="242.9609" y2="242.9609"/><text fill="#000000" font-family="sans-serif" font-size="13" font-weight="bold" lengthAdjust="spacing" textLength="9.0454" x="337.3765" y="237.895">4</text><text fill="#000000" font-family="sans-serif" font-size="13" lengthAdjust="spacing" textLength="200.6938" x="350.4219" y="237.895">Demander ID de la r&#233;servation</text></g><rect fill="#EEEEEE" height="3" style="stroke:#EEEEEE;stroke-width:1;" width="1034.4307" x="0" y="271.5273"/><line style="stroke:#000000;stroke-width:1;" x1="0" x2="1034.4307" y1="271.5273" y2="271.5273"/><line style="stroke:#000000;stroke-width:1;" x1="0" x2="1034.4307" y1="274.5273" y2="274.5273"/><rect fill="#EEEEEE" height="23.1328" style="stroke:#000000;stroke-width:2;" width="241.6904" x="396.3701" y="260.9609"/><text fill="#000000" font-family="sans-serif" font-size="13" font-weight="bold" lengthAdjust="spacing" textLength="223.1646" x="402.3701" y="277.0278">V&#233;rification de la pr&#233;condition</text><g class="message" data-participant-1="System" data-participant-2="DB"><polygon fill="#181818" points="949.3789,311.2266,959.3789,315.2266,949.3789,319.2266,953.3789,315.2266" style="stroke:#181818;stroke-width:1;"/><line style="stroke:#181818;stroke-width:1;" x1="660.2266" x2="955.3789" y1="315.2266" y2="315.2266"/><text fill="#000000" font-family="sans-serif" font-size="13" font-weight="bold" lengthAdjust="spacing" textLength="9.0454" x="667.2266" y="310.1606">5</text><text fill="#000000" font-family="sans-serif" font-size="13" lengthAdjust="spacing" textLength="212.0244" x="680.272" y="310.1606">Rechercher la r&#233;servation par ID</text></g><path d="M10,330.2266 L74.4429,330.2266 L74.4429,337.3594 L64.4429,347.3594 L10,347.3594 L10,330.2266" fill="#EEEEEE" style="stroke:#000000;stroke-width:1.5;"/><rect fill="none" height="104.5313" style="stroke:#000000;stroke-width:1.5;" width="752.6792" x="10" y="330.2266"/><text fill="#000000" font-family="sans-serif" font-size="13" font-weight="bold" lengthAdjust="spacing" textLength="19.4429" x="25" y="343.2935">alt</text><text fill="#000000" font-family="sans-serif" font-size="11" font-weight="bold" lengthAdjust="spacing" textLength="157.9639" x="89.4429" y="342.437">[R&#233;servation inexistante]</text><g class="message" data-participant-1="System" data-participant-2="UI"><polygon fill="#181818" points="341.3765,364.4922,331.3765,368.4922,341.3765,372.4922,337.3765,368.4922" style="stroke:#181818;stroke-width:1;"/><line style="stroke:#181818;stroke-width:1;" x1="335.3765" x2="659.2266" y1="368.4922" y2="368.4922"/><text fill="#000000" font-family="sans-serif" font-size="13" font-weight="bold" lengthAdjust="spacing" textLength="9.0454" x="347.3765" y="363.4263">6</text><text fill="#000000" font-family="sans-serif" font-size="13" lengthAdjust="spacing" textLength="227.208" x="360.4219" y="363.4263">Afficher "R&#233;servation non trouv&#233;e"</text></g><g class="message" data-participant-1="UI" data-participant-2="Administrateur"><polygon fill="#181818" points="86.3018,393.625,76.3018,397.625,86.3018,401.625,82.3018,397.625" style="stroke:#181818;stroke-width:1;"/><line style="stroke:#181818;stroke-width:1;" x1="80.3018" x2="329.3765" y1="397.625" y2="397.625"/><text fill="#000000" font-family="sans-serif" font-size="13" font-weight="bold" lengthAdjust="spacing" textLength="9.0454" x="92.3018" y="392.5591">7</text><text fill="#000000" font-family="sans-serif" font-size="13" lengthAdjust="spacing" textLength="113.7627" x="105.3472" y="392.5591">Message d&#8217;erreur</text></g><g class="message" data-participant-1="Administrateur" data-participant-2="UI"><polygon fill="#181818" points="318.3765,422.7578,328.3765,426.7578,318.3765,430.7578,322.3765,426.7578" style="stroke:#181818;stroke-width:1;"/><line style="stroke:#181818;stroke-width:1;stroke-dasharray:2.0,2.0;" x1="75.3018" x2="324.3765" y1="426.7578" y2="426.7578"/><text fill="#000000" font-family="sans-serif" font-size="13" font-weight="bold" lengthAdjust="spacing" textLength="9.0454" x="82.3018" y="421.6919">8</text><text fill="#000000" font-family="sans-serif" font-size="13" lengthAdjust="spacing" textLength="4.1323" x="95.3472" y="421.6919">&#160;</text></g><g class="message" data-participant-1="System" data-participant-2="DB"><polygon fill="#181818" points="949.3789,458.8906,959.3789,462.8906,949.3789,466.8906,953.3789,462.8906" style="stroke:#181818;stroke-width:1;"/><line style="stroke:#181818;stroke-width:1;" x1="660.2266" x2="955.3789" y1="462.8906" y2="462.8906"/><text fill="#000000" font-family="sans-serif" font-size="13" font-weight="bold" lengthAdjust="spacing" textLength="9.0454" x="667.2266" y="457.8247">9</text><text fill="#000000" font-family="sans-serif" font-size="13" lengthAdjust="spacing" textLength="207.6953" x="680.272" y="457.8247">V&#233;rifier si r&#233;servation est active</text></g><path d="M10,477.8906 L74.4429,477.8906 L74.4429,485.0234 L64.4429,495.0234 L10,495.0234 L10,477.8906" fill="#EEEEEE" style="stroke:#000000;stroke-width:1.5;"/><rect fill="none" height="104.5313" style="stroke:#000000;stroke-width:1.5;" width="752.6792" x="10" y="477.8906"/><text fill="#000000" font-family="sans-serif" font-size="13" font-weight="bold" lengthAdjust="spacing" textLength="19.4429" x="25" y="490.9575">alt</text><text fill="#000000" font-family="sans-serif" font-size="11" font-weight="bold" lengthAdjust="spacing" textLength="134.8037" x="89.4429" y="490.1011">[R&#233;servation expir&#233;e]</text><g class="message" data-participant-1="System" data-participant-2="UI"><polygon fill="#181818" points="341.3765,512.1563,331.3765,516.1563,341.3765,520.1563,337.3765,516.1563" style="stroke:#181818;stroke-width:1;"/><line style="stroke:#181818;stroke-width:1;" x1="335.3765" x2="659.2266" y1="516.1563" y2="516.1563"/><text fill="#000000" font-family="sans-serif" font-size="13" font-weight="bold" lengthAdjust="spacing" textLength="18.0908" x="347.3765" y="511.0903">10</text><text fill="#000000" font-family="sans-serif" font-size="13" lengthAdjust="spacing" textLength="229.1758" x="369.4673" y="511.0903">Afficher "R&#233;servation d&#233;j&#224; expir&#233;e"</text></g><g class="message" data-participant-1="UI" data-participant-2="Administrateur"><polygon fill="#181818" points="86.3018,541.2891,76.3018,545.2891,86.3018,549.2891,82.3018,545.2891" style="stroke:#181818;stroke-width:1;"/><line style="stroke:#181818;stroke-width:1;" x1="80.3018" x2="329.3765" y1="545.2891" y2="545.2891"/><text fill="#000000" font-family="sans-serif" font-size="13" font-weight="bold" lengthAdjust="spacing" textLength="18.0908" x="92.3018" y="540.2231">11</text><text fill="#000000" font-family="sans-serif" font-size="13" lengthAdjust="spacing" textLength="113.7627" x="114.3926" y="540.2231">Message d&#8217;erreur</text></g><g class="message" data-participant-1="Administrateur" data-participant-2="UI"><polygon fill="#181818" points="318.3765,570.4219,328.3765,574.4219,318.3765,578.4219,322.3765,574.4219" style="stroke:#181818;stroke-width:1;"/><line style="stroke:#181818;stroke-width:1;stroke-dasharray:2.0,2.0;" x1="75.3018" x2="324.3765" y1="574.4219" y2="574.4219"/><text fill="#000000" font-family="sans-serif" font-size="13" font-weight="bold" lengthAdjust="spacing" textLength="18.0908" x="82.3018" y="569.356">12</text><text fill="#000000" font-family="sans-serif" font-size="13" lengthAdjust="spacing" textLength="4.1323" x="104.3926" y="569.356">&#160;</text></g><rect fill="#EEEEEE" height="3" style="stroke:#EEEEEE;stroke-width:1;" width="1034.4307" x="0" y="609.9883"/><line style="stroke:#000000;stroke-width:1;" x1="0" x2="1034.4307" y1="609.9883" y2="609.9883"/><line style="stroke:#000000;stroke-width:1;" x1="0" x2="1034.4307" y1="612.9883" y2="612.9883"/><rect fill="#EEEEEE" height="23.1328" style="stroke:#000000;stroke-width:2;" width="215.0874" x="409.6716" y="599.4219"/><text fill="#000000" font-family="sans-serif" font-size="13" font-weight="bold" lengthAdjust="spacing" textLength="196.5615" x="415.6716" y="615.4888">Traitement de l&#8217;annulation</text><g class="message" data-participant-1="System" data-participant-2="DB"><polygon fill="#181818" points="949.3789,649.6875,959.3789,653.6875,949.3789,657.6875,953.3789,653.6875" style="stroke:#181818;stroke-width:1;"/><line style="stroke:#181818;stroke-width:1;" x1="660.2266" x2="955.3789" y1="653.6875" y2="653.6875"/><text fill="#000000" font-family="sans-serif" font-size="13" font-weight="bold" lengthAdjust="spacing" textLength="18.0908" x="667.2266" y="648.6216">13</text><text fill="#000000" font-family="sans-serif" font-size="13" lengthAdjust="spacing" textLength="161.8208" x="689.3174" y="648.6216">Supprimer la r&#233;servation</text></g><g class="message" data-participant-1="System" data-participant-2="DB"><polygon fill="#181818" points="949.3789,678.8203,959.3789,682.8203,949.3789,686.8203,953.3789,682.8203" style="stroke:#181818;stroke-width:1;"/><line style="stroke:#181818;stroke-width:1;" x1="660.2266" x2="955.3789" y1="682.8203" y2="682.8203"/><text fill="#000000" font-family="sans-serif" font-size="13" font-weight="bold" lengthAdjust="spacing" textLength="18.0908" x="667.2266" y="677.7544">14</text><text fill="#000000" font-family="sans-serif" font-size="13" lengthAdjust="spacing" textLength="255.0615" x="689.3174" y="677.7544">Marquer la chambre comme disponible</text></g><rect fill="#EEEEEE" height="3" style="stroke:#EEEEEE;stroke-width:1;" width="1034.4307" x="0" y="711.3867"/><line style="stroke:#000000;stroke-width:1;" x1="0" x2="1034.4307" y1="711.3867" y2="711.3867"/><line style="stroke:#000000;stroke-width:1;" x1="0" x2="1034.4307" y1="714.3867" y2="714.3867"/><rect fill="#EEEEEE" height="23.1328" style="stroke:#000000;stroke-width:2;" width="113.9502" x="460.2402" y="700.8203"/><text fill="#000000" font-family="sans-serif" font-size="13" font-weight="bold" lengthAdjust="spacing" textLength="95.4243" x="466.2402" y="716.8872">Confirmation</text><g class="message" data-participant-1="System" data-participant-2="UI"><polygon fill="#181818" points="341.3765,751.0859,331.3765,755.0859,341.3765,759.0859,337.3765,755.0859" style="stroke:#181818;stroke-width:1;"/><line style="stroke:#181818;stroke-width:1;" x1="335.3765" x2="659.2266" y1="755.0859" y2="755.0859"/><text fill="#000000" font-family="sans-serif" font-size="13" font-weight="bold" lengthAdjust="spacing" textLength="18.0908" x="347.3765" y="750.02">15</text><text fill="#000000" font-family="sans-serif" font-size="13" lengthAdjust="spacing" textLength="283.7593" x="369.4673" y="750.02">Afficher "R&#233;servation annul&#233;e avec succ&#232;s"</text></g><g class="message" data-participant-1="UI" data-participant-2="Administrateur"><polygon fill="#181818" points="86.3018,780.2188,76.3018,784.2188,86.3018,788.2188,82.3018,784.2188" style="stroke:#181818;stroke-width:1;"/><line style="stroke:#181818;stroke-width:1;" x1="80.3018" x2="329.3765" y1="784.2188" y2="784.2188"/><text fill="#000000" font-family="sans-serif" font-size="13" font-weight="bold" lengthAdjust="spacing" textLength="18.0908" x="92.3018" y="779.1528">16</text><text fill="#000000" font-family="sans-serif" font-size="13" lengthAdjust="spacing" textLength="163.8965" x="114.3926" y="779.1528">Message de confirmation</text></g><!--SRC=[fLD1RXin3Bph5SJU-m43Bc375nzoIUhUQIrTizYbjfHafBT-exSUi-_Od_GbfUG4yJf9WQ8BwA8T3cU65EOK9FTxKkVGfw2mQdiMZaanKLOte2RsFA0aQBQII0_e2NQ9EuuLqW16s6tdoFllCKsFFK5BS3UDaVI4YODKSFb9_RnWZR62Dq5a6YbMu6Rjt789A- -dnmZJB-WG3a5yOHBiE4qZB9TkBXa-V3GvYrerjgI06NgI3CsbaDYutRP0ps8MiA4UfS0xYX26Ydc7-UOOEB92inB9dPLa8T1Bb-znRpV5excuH5UFdwTH-S2-tZo11aFv82tNEpDwvYlCc_K2xiWVISkvPWIBrdevxD8iVM2X1xDZYPC3-ru8Qs874r3ePac1s4aQyidcqjIoixjvE0kufHZnYqtnzu-Vf5gsfu2LKbPn9AsxCl3asHf6dkkdcC3MaK_qsWCz36pWVp3GJkDNMvxdml_qOCFwfCZMbcnnowGCYsKJyEqvtUTXKEvVZ-aATulwBPzH_eZzNWbywCiRuZW4uNr7jVjDa0Dh_qQtlsHG1Pfvm1DvYBa-gUSzVJU5ek2bsHy0]--></g></svg>