<svg xmlns="http://www.w3.org/2000/svg" xmlns:xlink="http://www.w3.org/1999/xlink" contentStyleType="text/css" data-diagram-type="CLASS" height="663px" preserveAspectRatio="none" style="width:269px;height:663px;background:#FFFFFF;" version="1.1" viewBox="0 0 269 663" width="269px" zoomAndPan="magnify"><defs/><g><!--class Utilisateur--><g class="entity" data-entity="Utilisateur" data-source-line="1" data-uid="ent0002" id="entity_Utilisateur"><rect fill="#F1F1F1" height="129.4844" rx="2.5" ry="2.5" style="stroke:#181818;stroke-width:0.5;" width="165.665" x="70.45" y="7"/><ellipse cx="113.1949" cy="23" fill="#ADD1B2" rx="11" ry="11" style="stroke:#181818;stroke-width:1;"/><path d="M116.1636,28.6406 Q115.5855,28.9375 114.9449,29.0781 Q114.3042,29.2344 113.6011,29.2344 Q111.1011,29.2344 109.773,27.5938 Q108.4605,25.9375 108.4605,22.8125 Q108.4605,19.6875 109.773,18.0313 Q111.1011,16.375 113.6011,16.375 Q114.3042,16.375 114.9449,16.5313 Q115.6011,16.6875 116.1636,16.9844 L116.1636,19.7031 Q115.5386,19.125 114.9449,18.8594 Q114.3511,18.5781 113.7261,18.5781 Q112.3824,18.5781 111.6949,19.6563 Q111.0074,20.7188 111.0074,22.8125 Q111.0074,24.9063 111.6949,25.9844 Q112.3824,27.0469 113.7261,27.0469 Q114.3511,27.0469 114.9449,26.7813 Q115.5386,26.5 116.1636,25.9219 L116.1636,28.6406 Z " fill="#000000"/><text fill="#000000" font-family="sans-serif" font-size="14" lengthAdjust="spacing" textLength="72.0098" x="133.3604" y="27.8467">Utilisateur</text><line style="stroke:#181818;stroke-width:0.5;" x1="71.45" x2="235.115" y1="39" y2="39"/><text fill="#000000" font-family="sans-serif" font-size="14" lengthAdjust="spacing" textLength="44.6455" x="76.45" y="55.9951">id : int</text><text fill="#000000" font-family="sans-serif" font-size="14" lengthAdjust="spacing" textLength="84.8818" x="76.45" y="72.292">nom : string</text><text fill="#000000" font-family="sans-serif" font-size="14" lengthAdjust="spacing" textLength="108.1377" x="76.45" y="88.5889">prenom : string</text><text fill="#000000" font-family="sans-serif" font-size="14" lengthAdjust="spacing" textLength="153.665" x="76.45" y="104.8857">mot_de_passe : string</text><text fill="#000000" font-family="sans-serif" font-size="14" lengthAdjust="spacing" textLength="92.415" x="76.45" y="121.1826">email : string</text><line style="stroke:#181818;stroke-width:0.5;" x1="71.45" x2="235.115" y1="128.4844" y2="128.4844"/></g><!--class Client--><g class="entity" data-entity="Client" data-source-line="9" data-uid="ent0003" id="entity_Client"><rect fill="#F1F1F1" height="64.2969" rx="2.5" ry="2.5" style="stroke:#181818;stroke-width:0.5;" width="136.2227" x="14.17" y="196.49"/><ellipse cx="57.8316" cy="212.49" fill="#ADD1B2" rx="11" ry="11" style="stroke:#181818;stroke-width:1;"/><path d="M60.8003,218.1306 Q60.2222,218.4275 59.5816,218.5681 Q58.9409,218.7244 58.2378,218.7244 Q55.7378,218.7244 54.4097,217.0837 Q53.0972,215.4275 53.0972,212.3025 Q53.0972,209.1775 54.4097,207.5212 Q55.7378,205.865 58.2378,205.865 Q58.9409,205.865 59.5816,206.0212 Q60.2378,206.1775 60.8003,206.4744 L60.8003,209.1931 Q60.1753,208.615 59.5816,208.3494 Q58.9878,208.0681 58.3628,208.0681 Q57.0191,208.0681 56.3316,209.1462 Q55.6441,210.2087 55.6441,212.3025 Q55.6441,214.3962 56.3316,215.4744 Q57.0191,216.5369 58.3628,216.5369 Q58.9878,216.5369 59.5816,216.2712 Q60.1753,215.99 60.8003,215.4119 L60.8003,218.1306 Z " fill="#000000"/><text fill="#000000" font-family="sans-serif" font-size="14" lengthAdjust="spacing" textLength="40.5303" x="78.2008" y="217.3367">Client</text><line style="stroke:#181818;stroke-width:0.5;" x1="15.17" x2="149.3927" y1="228.49" y2="228.49"/><text fill="#000000" font-family="sans-serif" font-size="14" lengthAdjust="spacing" textLength="124.2227" x="20.17" y="245.4851">telephone : string</text><line style="stroke:#181818;stroke-width:0.5;" x1="15.17" x2="149.3927" y1="252.7869" y2="252.7869"/></g><!--class Admin--><g class="entity" data-entity="Admin" data-source-line="13" data-uid="ent0004" id="entity_Admin"><rect fill="#F1F1F1" height="48" rx="2.5" ry="2.5" style="stroke:#181818;stroke-width:0.5;" width="76.8643" x="185.85" y="204.64"/><ellipse cx="200.85" cy="220.64" fill="#ADD1B2" rx="11" ry="11" style="stroke:#181818;stroke-width:1;"/><path d="M203.8188,226.2806 Q203.2406,226.5775 202.6,226.7181 Q201.9594,226.8744 201.2563,226.8744 Q198.7563,226.8744 197.4281,225.2337 Q196.1156,223.5775 196.1156,220.4525 Q196.1156,217.3275 197.4281,215.6712 Q198.7563,214.015 201.2563,214.015 Q201.9594,214.015 202.6,214.1712 Q203.2563,214.3275 203.8188,214.6244 L203.8188,217.3431 Q203.1938,216.765 202.6,216.4994 Q202.0063,216.2181 201.3813,216.2181 Q200.0375,216.2181 199.35,217.2962 Q198.6625,218.3587 198.6625,220.4525 Q198.6625,222.5462 199.35,223.6244 Q200.0375,224.6869 201.3813,224.6869 Q202.0063,224.6869 202.6,224.4212 Q203.1938,224.14 203.8188,223.5619 L203.8188,226.2806 Z " fill="#000000"/><text fill="#000000" font-family="sans-serif" font-size="14" lengthAdjust="spacing" textLength="44.8643" x="214.85" y="225.4867">Admin</text><line style="stroke:#181818;stroke-width:0.5;" x1="186.85" x2="261.7143" y1="236.64" y2="236.64"/><line style="stroke:#181818;stroke-width:0.5;" x1="186.85" x2="261.7143" y1="244.64" y2="244.64"/></g><!--class Chambre--><g class="entity" data-entity="Chambre" data-source-line="16" data-uid="ent0005" id="entity_Chambre"><rect fill="#F1F1F1" height="113.1875" rx="2.5" ry="2.5" style="stroke:#181818;stroke-width:0.5;" width="125.6885" x="19.43" y="542.86"/><ellipse cx="47.7353" cy="558.86" fill="#ADD1B2" rx="11" ry="11" style="stroke:#181818;stroke-width:1;"/><path d="M50.7041,564.5006 Q50.1259,564.7975 49.4853,564.9381 Q48.8447,565.0944 48.1416,565.0944 Q45.6416,565.0944 44.3134,563.4537 Q43.0009,561.7975 43.0009,558.6725 Q43.0009,555.5475 44.3134,553.8912 Q45.6416,552.235 48.1416,552.235 Q48.8447,552.235 49.4853,552.3912 Q50.1416,552.5475 50.7041,552.8444 L50.7041,555.5631 Q50.0791,554.985 49.4853,554.7194 Q48.8916,554.4381 48.2666,554.4381 Q46.9228,554.4381 46.2353,555.5162 Q45.5478,556.5787 45.5478,558.6725 Q45.5478,560.7662 46.2353,561.8444 Q46.9228,562.9069 48.2666,562.9069 Q48.8916,562.9069 49.4853,562.6412 Q50.0791,562.36 50.7041,561.7819 L50.7041,564.5006 Z " fill="#000000"/><text fill="#000000" font-family="sans-serif" font-size="14" lengthAdjust="spacing" textLength="64.1211" x="64.6921" y="563.7067">Chambre</text><line style="stroke:#181818;stroke-width:0.5;" x1="20.43" x2="144.1185" y1="574.86" y2="574.86"/><text fill="#000000" font-family="sans-serif" font-size="14" lengthAdjust="spacing" textLength="113.6885" x="25.43" y="591.8551">id_chambre : int</text><text fill="#000000" font-family="sans-serif" font-size="14" lengthAdjust="spacing" textLength="85.0801" x="25.43" y="608.152">type : string</text><text fill="#000000" font-family="sans-serif" font-size="14" lengthAdjust="spacing" textLength="81.9766" x="25.43" y="624.4489">etat : string</text><text fill="#000000" font-family="sans-serif" font-size="14" lengthAdjust="spacing" textLength="71.8867" x="25.43" y="640.7457">prix : float</text><line style="stroke:#181818;stroke-width:0.5;" x1="20.43" x2="144.1185" y1="648.0475" y2="648.0475"/></g><!--class Reservation--><g class="entity" data-entity="Reservation" data-source-line="23" data-uid="ent0006" id="entity_Reservation"><rect fill="#F1F1F1" height="162.0781" rx="2.5" ry="2.5" style="stroke:#181818;stroke-width:0.5;" width="150.5576" x="7" y="320.78"/><ellipse cx="37.6924" cy="336.78" fill="#ADD1B2" rx="11" ry="11" style="stroke:#181818;stroke-width:1;"/><path d="M40.6612,342.4206 Q40.0831,342.7175 39.4424,342.8581 Q38.8018,343.0144 38.0987,343.0144 Q35.5987,343.0144 34.2706,341.3738 Q32.9581,339.7175 32.9581,336.5925 Q32.9581,333.4675 34.2706,331.8113 Q35.5987,330.155 38.0987,330.155 Q38.8018,330.155 39.4424,330.3113 Q40.0987,330.4675 40.6612,330.7644 L40.6612,333.4831 Q40.0362,332.905 39.4424,332.6394 Q38.8487,332.3581 38.2237,332.3581 Q36.8799,332.3581 36.1924,333.4363 Q35.5049,334.4988 35.5049,336.5925 Q35.5049,338.6863 36.1924,339.7644 Q36.8799,340.8269 38.2237,340.8269 Q38.8487,340.8269 39.4424,340.5613 Q40.0362,340.28 40.6612,339.7019 L40.6612,342.4206 Z " fill="#000000"/><text fill="#000000" font-family="sans-serif" font-size="14" lengthAdjust="spacing" textLength="83.6855" x="55.1796" y="341.6267">Reservation</text><line style="stroke:#181818;stroke-width:0.5;" x1="8" x2="156.5576" y1="352.78" y2="352.78"/><text fill="#000000" font-family="sans-serif" font-size="14" lengthAdjust="spacing" textLength="131.3594" x="13" y="369.7751">id_reservation : int</text><text fill="#000000" font-family="sans-serif" font-size="14" lengthAdjust="spacing" textLength="124.5029" x="13" y="386.072">date_debut : date</text><text fill="#000000" font-family="sans-serif" font-size="14" lengthAdjust="spacing" textLength="101.4453" x="13" y="402.3689">date_fin : date</text><text fill="#000000" font-family="sans-serif" font-size="14" lengthAdjust="spacing" textLength="104.5762" x="13" y="418.6657">montant : float</text><text fill="#000000" font-family="sans-serif" font-size="14" lengthAdjust="spacing" textLength="135.0713" x="13" y="434.9626">type_sejour : string</text><text fill="#000000" font-family="sans-serif" font-size="14" lengthAdjust="spacing" textLength="137.5322" x="13" y="451.2595">nombre_adulte : int</text><text fill="#000000" font-family="sans-serif" font-size="14" lengthAdjust="spacing" textLength="138.5576" x="13" y="467.5564">nombre_enfant : int</text><line style="stroke:#181818;stroke-width:0.5;" x1="8" x2="156.5576" y1="474.8581" y2="474.8581"/></g><!--reverse link Utilisateur to Client--><g class="link" data-entity-1="Utilisateur" data-entity-2="Client" data-source-line="33" data-uid="lnk7" id="link_Utilisateur_Client"><path codeLine="33" d="M116.4875,153.0019 C107.0875,173.5019 104.6,178.95 96.75,196.07" fill="none" id="Utilisateur-backto-Client" style="stroke:#181818;stroke-width:1;"/><polygon fill="none" points="123.99,136.64,111.0335,150.5011,121.9414,155.5028,123.99,136.64" style="stroke:#181818;stroke-width:1;"/></g><!--reverse link Utilisateur to Admin--><g class="link" data-entity-1="Utilisateur" data-entity-2="Admin" data-source-line="34" data-uid="lnk8" id="link_Utilisateur_Admin"><path codeLine="34" d="M190.0698,153.0032 C201.0698,177.0032 205.39,186.43 213.63,204.41" fill="none" id="Utilisateur-backto-Admin" style="stroke:#181818;stroke-width:1;"/><polygon fill="none" points="182.57,136.64,184.6154,155.5031,195.5242,150.5032,182.57,136.64" style="stroke:#181818;stroke-width:1;"/></g><!--link Client to Reservation--><g class="link" data-entity-1="Client" data-entity-2="Reservation" data-source-line="36" data-uid="lnk9" id="link_Client_Reservation"><path codeLine="36" d="M82.28,261.03 C82.28,277.83 82.28,299.35 82.28,320.45" fill="none" id="Client-Reservation" style="stroke:#181818;stroke-width:1;"/><text fill="#000000" font-family="sans-serif" font-size="13" lengthAdjust="spacing" textLength="8.271" x="73.5189" y="280.9636">1</text><text fill="#000000" font-family="sans-serif" font-size="13" lengthAdjust="spacing" textLength="23.0356" x="58.2575" y="309.6079">0..*</text></g><!--link Reservation to Chambre--><g class="link" data-entity-1="Reservation" data-entity-2="Chambre" data-source-line="37" data-uid="lnk10" id="link_Reservation_Chambre"><path codeLine="37" d="M82.28,483.24 C82.28,503.16 82.28,524.07 82.28,542.53" fill="none" id="Reservation-Chambre" style="stroke:#181818;stroke-width:1;"/><text fill="#000000" font-family="sans-serif" font-size="13" lengthAdjust="spacing" textLength="8.271" x="73.948" y="502.9542">1</text><text fill="#000000" font-family="sans-serif" font-size="13" lengthAdjust="spacing" textLength="8.271" x="73.8097" y="531.7533">1</text></g><!--SRC=[RP71RiCW38RlF0NAiLAhxLhjCkqD9ksCQ71MJs0YSAPDRT-zJWeBtNO2VpA_V__qtkQitnWzPiim9NrIMgFJUut4SgKOv9uv8RrBEIRuHK9auy2CeWCjXs3Hh-2YLB_CUl48nCiO1W_ZCHByq_Ri0f9qhU-EDXmI57-cBsNroT_Z_NYsV6ySlwGUVBIyYhv2XlHf6IDLuTIWAkua6bdoCCsISr7PWBII48ajyS-KcocJuIDAheqNIL2i6-icpz0cFLEWuIOoKp7Q_itJURij0VxbIs9AbNoxnquBx1vskqtNxgdQdMkN72NVAm00]--></g></svg>