<svg xmlns="http://www.w3.org/2000/svg" xmlns:xlink="http://www.w3.org/1999/xlink" contentStyleType="text/css" height="832px" preserveAspectRatio="none" style="width:1381px;height:832px;background:#FFFFFF;" version="1.1" viewBox="0 0 1381 832" width="1381px" zoomAndPan="magnify"><defs/><g><ellipse cx="509.25" cy="20" fill="#222222" rx="10" ry="10" style="stroke:#222222;stroke-width:1.0;"/><rect fill="#F1F1F1" height="33.9688" rx="12.5" ry="12.5" style="stroke:#181818;stroke-width:0.5;" width="175" x="421.75" y="50"/><text fill="#000000" font-family="sans-serif" font-size="12" lengthAdjust="spacing" textLength="155" x="431.75" y="71.1387">Administrateur connect&#233;</text><rect fill="#F1F1F1" height="33.9688" rx="12.5" ry="12.5" style="stroke:#181818;stroke-width:0.5;" width="286" x="366.25" y="103.9688"/><text fill="#000000" font-family="sans-serif" font-size="12" lengthAdjust="spacing" textLength="266" x="376.25" y="125.1074">Afficher menu de gestion des r&#233;servations</text><rect fill="#F1F1F1" height="33.9688" rx="12.5" ry="12.5" style="stroke:#181818;stroke-width:0.5;" width="351" x="333.75" y="157.9375"/><text fill="#000000" font-family="sans-serif" font-size="12" lengthAdjust="spacing" textLength="331" x="343.75" y="179.0762">Administrateur s&#233;lectionne "Ajouter une r&#233;servation"</text><rect fill="#F1F1F1" height="33.9688" rx="12.5" ry="12.5" style="stroke:#181818;stroke-width:0.5;" width="284" x="367.25" y="211.9063"/><text fill="#000000" font-family="sans-serif" font-size="12" lengthAdjust="spacing" textLength="264" x="377.25" y="233.0449">Demander les informations de r&#233;servation</text><rect fill="#F1F1F1" height="33.9688" rx="12.5" ry="12.5" style="stroke:#181818;stroke-width:0.5;" width="311" x="353.75" y="265.875"/><text fill="#000000" font-family="sans-serif" font-size="12" lengthAdjust="spacing" textLength="291" x="363.75" y="287.0137">Administrateur saisit les informations requises</text><polygon fill="#F1F1F1" points="424.75,319.8438,593.75,319.8438,605.75,331.8438,593.75,343.8438,424.75,343.8438,412.75,331.8438,424.75,319.8438" style="stroke:#181818;stroke-width:0.5;"/><text fill="#000000" font-family="sans-serif" font-size="11" lengthAdjust="spacing" textLength="169" x="424.75" y="335.6519">Date de fin &gt; Date de d&#233;but ?</text><text fill="#000000" font-family="sans-serif" font-size="11" lengthAdjust="spacing" textLength="22" x="390.75" y="329.2495">Non</text><text fill="#000000" font-family="sans-serif" font-size="11" lengthAdjust="spacing" textLength="19" x="605.75" y="329.2495">Oui</text><rect fill="#F1F1F1" height="33.9688" rx="12.5" ry="12.5" style="stroke:#181818;stroke-width:0.5;" width="422" x="11" y="353.8438"/><text fill="#000000" font-family="sans-serif" font-size="12" lengthAdjust="spacing" textLength="402" x="21" y="374.9824">Afficher erreur "La date de fin doit &#234;tre apr&#232;s la date de d&#233;but!"</text><ellipse cx="222" cy="418.8125" fill="none" rx="11" ry="11" style="stroke:#222222;stroke-width:1.0;"/><ellipse cx="222" cy="418.8125" fill="#222222" rx="6" ry="6" style="stroke:#222222;stroke-width:1.0;"/><rect fill="#F1F1F1" height="33.9688" rx="12.5" ry="12.5" style="stroke:#181818;stroke-width:0.5;" width="172" x="697.25" y="353.8438"/><text fill="#000000" font-family="sans-serif" font-size="12" lengthAdjust="spacing" textLength="152" x="707.25" y="374.9824">V&#233;rifier si le client existe</text><polygon fill="#F1F1F1" points="743.25,407.8125,823.25,407.8125,835.25,419.8125,823.25,431.8125,743.25,431.8125,731.25,419.8125,743.25,407.8125" style="stroke:#181818;stroke-width:0.5;"/><text fill="#000000" font-family="sans-serif" font-size="11" lengthAdjust="spacing" textLength="80" x="743.25" y="423.6206">Client existe ?</text><text fill="#000000" font-family="sans-serif" font-size="11" lengthAdjust="spacing" textLength="22" x="709.25" y="417.2183">Non</text><text fill="#000000" font-family="sans-serif" font-size="11" lengthAdjust="spacing" textLength="19" x="835.25" y="417.2183">Oui</text><rect fill="#F1F1F1" height="33.9688" rx="12.5" ry="12.5" style="stroke:#181818;stroke-width:0.5;" width="215" x="463" y="441.8125"/><text fill="#000000" font-family="sans-serif" font-size="12" lengthAdjust="spacing" textLength="195" x="473" y="462.9512">Afficher erreur "Client invalide!"</text><ellipse cx="570.5" cy="506.7813" fill="none" rx="11" ry="11" style="stroke:#222222;stroke-width:1.0;"/><ellipse cx="570.5" cy="506.7813" fill="#222222" rx="6" ry="6" style="stroke:#222222;stroke-width:1.0;"/><rect fill="#F1F1F1" height="33.9688" rx="12.5" ry="12.5" style="stroke:#181818;stroke-width:0.5;" width="302" x="858.25" y="441.8125"/><text fill="#000000" font-family="sans-serif" font-size="12" lengthAdjust="spacing" textLength="282" x="868.25" y="462.9512">V&#233;rifier si la chambre existe et est disponible</text><polygon fill="#F1F1F1" points="947.25,495.7813,1071.25,495.7813,1083.25,507.7813,1071.25,519.7813,947.25,519.7813,935.25,507.7813,947.25,495.7813" style="stroke:#181818;stroke-width:0.5;"/><text fill="#000000" font-family="sans-serif" font-size="11" lengthAdjust="spacing" textLength="124" x="947.25" y="511.5894">Chambre disponible ?</text><text fill="#000000" font-family="sans-serif" font-size="11" lengthAdjust="spacing" textLength="22" x="913.25" y="505.187">Non</text><text fill="#000000" font-family="sans-serif" font-size="11" lengthAdjust="spacing" textLength="19" x="1083.25" y="505.187">Oui</text><rect fill="#F1F1F1" height="33.9688" rx="12.5" ry="12.5" style="stroke:#181818;stroke-width:0.5;" width="281" x="694.75" y="529.7813"/><text fill="#000000" font-family="sans-serif" font-size="12" lengthAdjust="spacing" textLength="261" x="704.75" y="550.9199">Afficher erreur "Chambre non disponible!"</text><ellipse cx="835.25" cy="594.75" fill="none" rx="11" ry="11" style="stroke:#222222;stroke-width:1.0;"/><ellipse cx="835.25" cy="594.75" fill="#222222" rx="6" ry="6" style="stroke:#222222;stroke-width:1.0;"/><rect fill="#F1F1F1" height="33.9688" rx="12.5" ry="12.5" style="stroke:#181818;stroke-width:0.5;" width="175" x="1095.75" y="529.7813"/><text fill="#000000" font-family="sans-serif" font-size="12" lengthAdjust="spacing" textLength="155" x="1105.75" y="550.9199">Calculer le montant total</text><rect fill="#F1F1F1" height="33.9688" rx="12.5" ry="12.5" style="stroke:#181818;stroke-width:0.5;" width="277" x="1044.75" y="583.75"/><text fill="#000000" font-family="sans-serif" font-size="12" lengthAdjust="spacing" textLength="257" x="1054.75" y="604.8887">G&#233;n&#233;rer un ID unique pour la r&#233;servation</text><rect fill="#F1F1F1" height="33.9688" rx="12.5" ry="12.5" style="stroke:#181818;stroke-width:0.5;" width="180" x="1093.25" y="637.7188"/><text fill="#000000" font-family="sans-serif" font-size="12" lengthAdjust="spacing" textLength="160" x="1103.25" y="658.8574">Enregistrer la r&#233;servation</text><rect fill="#F1F1F1" height="33.9688" rx="12.5" ry="12.5" style="stroke:#181818;stroke-width:0.5;" width="299" x="1033.75" y="691.6875"/><text fill="#000000" font-family="sans-serif" font-size="12" lengthAdjust="spacing" textLength="279" x="1043.75" y="712.8262">Mettre &#224; jour l'&#233;tat de la chambre (occup&#233;e)</text><rect fill="#F1F1F1" height="33.9688" rx="12.5" ry="12.5" style="stroke:#181818;stroke-width:0.5;" width="375" x="995.75" y="745.6563"/><text fill="#000000" font-family="sans-serif" font-size="12" lengthAdjust="spacing" textLength="355" x="1005.75" y="766.7949">Afficher confirmation "R&#233;servation ajout&#233;e avec succ&#232;s!"</text><ellipse cx="509.25" cy="810.625" fill="none" rx="11" ry="11" style="stroke:#222222;stroke-width:1.0;"/><ellipse cx="509.25" cy="810.625" fill="#222222" rx="6" ry="6" style="stroke:#222222;stroke-width:1.0;"/><line style="stroke:#181818;stroke-width:1.0;" x1="509.25" x2="509.25" y1="30" y2="50"/><polygon fill="#181818" points="505.25,40,509.25,50,513.25,40,509.25,44" style="stroke:#181818;stroke-width:1.0;"/><line style="stroke:#181818;stroke-width:1.0;" x1="509.25" x2="509.25" y1="83.9688" y2="103.9688"/><polygon fill="#181818" points="505.25,93.9688,509.25,103.9688,513.25,93.9688,509.25,97.9688" style="stroke:#181818;stroke-width:1.0;"/><line style="stroke:#181818;stroke-width:1.0;" x1="509.25" x2="509.25" y1="137.9375" y2="157.9375"/><polygon fill="#181818" points="505.25,147.9375,509.25,157.9375,513.25,147.9375,509.25,151.9375" style="stroke:#181818;stroke-width:1.0;"/><line style="stroke:#181818;stroke-width:1.0;" x1="509.25" x2="509.25" y1="191.9063" y2="211.9063"/><polygon fill="#181818" points="505.25,201.9063,509.25,211.9063,513.25,201.9063,509.25,205.9063" style="stroke:#181818;stroke-width:1.0;"/><line style="stroke:#181818;stroke-width:1.0;" x1="509.25" x2="509.25" y1="245.875" y2="265.875"/><polygon fill="#181818" points="505.25,255.875,509.25,265.875,513.25,255.875,509.25,259.875" style="stroke:#181818;stroke-width:1.0;"/><line style="stroke:#181818;stroke-width:1.0;" x1="222" x2="222" y1="387.8125" y2="407.8125"/><polygon fill="#181818" points="218,397.8125,222,407.8125,226,397.8125,222,401.8125" style="stroke:#181818;stroke-width:1.0;"/><line style="stroke:#181818;stroke-width:1.0;" x1="570.5" x2="570.5" y1="475.7813" y2="495.7813"/><polygon fill="#181818" points="566.5,485.7813,570.5,495.7813,574.5,485.7813,570.5,489.7813" style="stroke:#181818;stroke-width:1.0;"/><line style="stroke:#181818;stroke-width:1.0;" x1="835.25" x2="835.25" y1="563.75" y2="583.75"/><polygon fill="#181818" points="831.25,573.75,835.25,583.75,839.25,573.75,835.25,577.75" style="stroke:#181818;stroke-width:1.0;"/><line style="stroke:#181818;stroke-width:1.0;" x1="1183.25" x2="1183.25" y1="563.75" y2="583.75"/><polygon fill="#181818" points="1179.25,573.75,1183.25,583.75,1187.25,573.75,1183.25,577.75" style="stroke:#181818;stroke-width:1.0;"/><line style="stroke:#181818;stroke-width:1.0;" x1="1183.25" x2="1183.25" y1="617.7188" y2="637.7188"/><polygon fill="#181818" points="1179.25,627.7188,1183.25,637.7188,1187.25,627.7188,1183.25,631.7188" style="stroke:#181818;stroke-width:1.0;"/><line style="stroke:#181818;stroke-width:1.0;" x1="1183.25" x2="1183.25" y1="671.6875" y2="691.6875"/><polygon fill="#181818" points="1179.25,681.6875,1183.25,691.6875,1187.25,681.6875,1183.25,685.6875" style="stroke:#181818;stroke-width:1.0;"/><line style="stroke:#181818;stroke-width:1.0;" x1="1183.25" x2="1183.25" y1="725.6563" y2="745.6563"/><polygon fill="#181818" points="1179.25,735.6563,1183.25,745.6563,1187.25,735.6563,1183.25,739.6563" style="stroke:#181818;stroke-width:1.0;"/><line style="stroke:#181818;stroke-width:1.0;" x1="935.25" x2="835.25" y1="507.7813" y2="507.7813"/><line style="stroke:#181818;stroke-width:1.0;" x1="835.25" x2="835.25" y1="507.7813" y2="529.7813"/><polygon fill="#181818" points="831.25,519.7813,835.25,529.7813,839.25,519.7813,835.25,523.7813" style="stroke:#181818;stroke-width:1.0;"/><line style="stroke:#181818;stroke-width:1.0;" x1="1083.25" x2="1183.25" y1="507.7813" y2="507.7813"/><line style="stroke:#181818;stroke-width:1.0;" x1="1183.25" x2="1183.25" y1="507.7813" y2="529.7813"/><polygon fill="#181818" points="1179.25,519.7813,1183.25,529.7813,1187.25,519.7813,1183.25,523.7813" style="stroke:#181818;stroke-width:1.0;"/><line style="stroke:#181818;stroke-width:1.0;" x1="1183.25" x2="1183.25" y1="779.625" y2="784.625"/><line style="stroke:#181818;stroke-width:1.0;" x1="1183.25" x2="509.25" y1="784.625" y2="784.625"/><line style="stroke:#181818;stroke-width:1.0;" x1="509.25" x2="509.25" y1="784.625" y2="799.625"/><polygon fill="#181818" points="505.25,789.625,509.25,799.625,513.25,789.625,509.25,793.625" style="stroke:#181818;stroke-width:1.0;"/><line style="stroke:#181818;stroke-width:1.0;" x1="1009.25" x2="1009.25" y1="475.7813" y2="495.7813"/><polygon fill="#181818" points="1005.25,485.7813,1009.25,495.7813,1013.25,485.7813,1009.25,489.7813" style="stroke:#181818;stroke-width:1.0;"/><line style="stroke:#181818;stroke-width:1.0;" x1="731.25" x2="570.5" y1="419.8125" y2="419.8125"/><line style="stroke:#181818;stroke-width:1.0;" x1="570.5" x2="570.5" y1="419.8125" y2="441.8125"/><polygon fill="#181818" points="566.5,431.8125,570.5,441.8125,574.5,431.8125,570.5,435.8125" style="stroke:#181818;stroke-width:1.0;"/><line style="stroke:#181818;stroke-width:1.0;" x1="835.25" x2="1009.25" y1="419.8125" y2="419.8125"/><line style="stroke:#181818;stroke-width:1.0;" x1="1009.25" x2="1009.25" y1="419.8125" y2="441.8125"/><polygon fill="#181818" points="1005.25,431.8125,1009.25,441.8125,1013.25,431.8125,1009.25,435.8125" style="stroke:#181818;stroke-width:1.0;"/><line style="stroke:#181818;stroke-width:1.0;" x1="783.25" x2="783.25" y1="387.8125" y2="407.8125"/><polygon fill="#181818" points="779.25,397.8125,783.25,407.8125,787.25,397.8125,783.25,401.8125" style="stroke:#181818;stroke-width:1.0;"/><line style="stroke:#181818;stroke-width:1.0;" x1="412.75" x2="222" y1="331.8438" y2="331.8438"/><line style="stroke:#181818;stroke-width:1.0;" x1="222" x2="222" y1="331.8438" y2="353.8438"/><polygon fill="#181818" points="218,343.8438,222,353.8438,226,343.8438,222,347.8438" style="stroke:#181818;stroke-width:1.0;"/><line style="stroke:#181818;stroke-width:1.0;" x1="605.75" x2="783.25" y1="331.8438" y2="331.8438"/><line style="stroke:#181818;stroke-width:1.0;" x1="783.25" x2="783.25" y1="331.8438" y2="353.8438"/><polygon fill="#181818" points="779.25,343.8438,783.25,353.8438,787.25,343.8438,783.25,347.8438" style="stroke:#181818;stroke-width:1.0;"/><line style="stroke:#181818;stroke-width:1.0;" x1="509.25" x2="509.25" y1="299.8438" y2="319.8438"/><polygon fill="#181818" points="505.25,309.8438,509.25,319.8438,513.25,309.8438,509.25,313.8438" style="stroke:#181818;stroke-width:1.0;"/><!--SRC=[XPFFRjim3CRlVWekboMlq00RYcOO1gmTiCFkYaGtB6JAbQXWZxFZlDVGYurotDfP4ym7GN_8ZpyIdvEOA4rpS-iwOaeIZM2EO0CpMYd3Lf_Qbkm18tJ86Hp28oQXmBfD4CkGC1vDlKZRDpgf35vrgCh1wlOfP56Xh8Tbucgh13li33jzzIfBt8ROdLHhoMNqXIg64idRn8ZFcH8g5pJKmdgduLMj9OOFy79oPTXdWOyRa0Coh1y2RnhGR-uSOwnrLbyDk8M62rgr_968OFfOVYVmSy19zftsLhMIXBv1dn3Mtp9D-Z_A4AabBP18wS5wGXR0dzeQdl8gzjto-WBdPTOfY_XeF3by0Nc5gPj_W2v06R07q-srmwayAaWIS9JwmBJtECkEh5Fq_7u5-0hqbCxLNgyII_Op_YizZDftnjliHpz15rYC3aE267-kTVEv3AmjZxQ4BpjTwJaZz45vjFrpvvrbVkA8ZzM5-B_8UvHgal8BdaRPzsKG8zKbYm6lWxMvBmDkjbUcf7zbIvExOVLzKGzC_RKq5ymHBQHihTfnEJTaHsqpxqvhKqVv5m00]--></g></svg>