<svg xmlns="http://www.w3.org/2000/svg" xmlns:xlink="http://www.w3.org/1999/xlink" contentStyleType="text/css" data-diagram-type="CLASS" height="1034px" preserveAspectRatio="none" style="width:625px;height:1034px;background:#FFFFFF;" version="1.1" viewBox="0 0 625 1034" width="625px" zoomAndPan="magnify"><defs/><g><!--class Utilisateur--><g class="entity" data-entity="Utilisateur" data-source-line="3" data-uid="ent0002" id="entity_Utilisateur"><rect fill="#F1F1F1" height="129.4844" rx="2.5" ry="2.5" style="stroke:#181818;stroke-width:0.5;" width="165.665" x="272.26" y="7"/><ellipse cx="315.0049" cy="23" fill="#ADD1B2" rx="11" ry="11" style="stroke:#181818;stroke-width:1;"/><path d="M317.9736,28.6406 Q317.3955,28.9375 316.7549,29.0781 Q316.1142,29.2344 315.4111,29.2344 Q312.9111,29.2344 311.583,27.5938 Q310.2705,25.9375 310.2705,22.8125 Q310.2705,19.6875 311.583,18.0313 Q312.9111,16.375 315.4111,16.375 Q316.1142,16.375 316.7549,16.5313 Q317.4111,16.6875 317.9736,16.9844 L317.9736,19.7031 Q317.3486,19.125 316.7549,18.8594 Q316.1611,18.5781 315.5361,18.5781 Q314.1924,18.5781 313.5049,19.6563 Q312.8174,20.7188 312.8174,22.8125 Q312.8174,24.9063 313.5049,25.9844 Q314.1924,27.0469 315.5361,27.0469 Q316.1611,27.0469 316.7549,26.7813 Q317.3486,26.5 317.9736,25.9219 L317.9736,28.6406 Z " fill="#000000"/><text fill="#000000" font-family="sans-serif" font-size="14" lengthAdjust="spacing" textLength="72.0098" x="335.1704" y="27.8467">Utilisateur</text><line style="stroke:#181818;stroke-width:0.5;" x1="273.26" x2="436.925" y1="39" y2="39"/><text fill="#000000" font-family="sans-serif" font-size="14" lengthAdjust="spacing" textLength="44.6455" x="278.26" y="55.9951">id : int</text><text fill="#000000" font-family="sans-serif" font-size="14" lengthAdjust="spacing" textLength="84.8818" x="278.26" y="72.292">nom : string</text><text fill="#000000" font-family="sans-serif" font-size="14" lengthAdjust="spacing" textLength="108.1377" x="278.26" y="88.5889">prenom : string</text><text fill="#000000" font-family="sans-serif" font-size="14" lengthAdjust="spacing" textLength="153.665" x="278.26" y="104.8857">mot_de_passe : string</text><text fill="#000000" font-family="sans-serif" font-size="14" lengthAdjust="spacing" textLength="92.6475" x="278.26" y="121.1826">Email : string</text><line style="stroke:#181818;stroke-width:0.5;" x1="273.26" x2="436.925" y1="128.4844" y2="128.4844"/></g><!--class Client--><g class="entity" data-entity="Client" data-source-line="11" data-uid="ent0003" id="entity_Client"><rect fill="#F1F1F1" height="113.1875" rx="2.5" ry="2.5" style="stroke:#181818;stroke-width:0.5;" width="139.2852" x="218.45" y="197.49"/><ellipse cx="263.5774" cy="213.49" fill="#ADD1B2" rx="11" ry="11" style="stroke:#181818;stroke-width:1;"/><path d="M266.5462,219.1306 Q265.9681,219.4275 265.3274,219.5681 Q264.6868,219.7244 263.9837,219.7244 Q261.4837,219.7244 260.1556,218.0838 Q258.8431,216.4275 258.8431,213.3025 Q258.8431,210.1775 260.1556,208.5213 Q261.4837,206.865 263.9837,206.865 Q264.6868,206.865 265.3274,207.0213 Q265.9837,207.1775 266.5462,207.4744 L266.5462,210.1931 Q265.9212,209.615 265.3274,209.3494 Q264.7337,209.0681 264.1087,209.0681 Q262.7649,209.0681 262.0774,210.1463 Q261.3899,211.2088 261.3899,213.3025 Q261.3899,215.3963 262.0774,216.4744 Q262.7649,217.5369 264.1087,217.5369 Q264.7337,217.5369 265.3274,217.2713 Q265.9212,216.99 266.5462,216.4119 L266.5462,219.1306 Z " fill="#000000"/><text fill="#000000" font-family="sans-serif" font-size="14" lengthAdjust="spacing" textLength="40.5303" x="284.0774" y="218.3367">Client</text><line style="stroke:#181818;stroke-width:0.5;" x1="219.45" x2="356.7352" y1="229.49" y2="229.49"/><text fill="#000000" font-family="sans-serif" font-size="14" lengthAdjust="spacing" textLength="127.2852" x="224.45" y="246.4851">Telephone : string</text><line style="stroke:#181818;stroke-width:0.5;" x1="219.45" x2="356.7352" y1="253.7869" y2="253.7869"/><text fill="#000000" font-family="sans-serif" font-size="14" lengthAdjust="spacing" textLength="107.1396" x="224.45" y="270.782">Ajouter_client()</text><text fill="#000000" font-family="sans-serif" font-size="14" lengthAdjust="spacing" textLength="110.8311" x="224.45" y="287.0789">Annuler_client()</text><text fill="#000000" font-family="sans-serif" font-size="14" lengthAdjust="spacing" textLength="123.5049" x="224.45" y="303.3757">Consulter_client()</text></g><!--class Admin--><g class="entity" data-entity="Admin" data-source-line="18" data-uid="ent0004" id="entity_Admin"><rect fill="#F1F1F1" height="96.8906" rx="2.5" ry="2.5" style="stroke:#181818;stroke-width:0.5;" width="165.1523" x="341.52" y="387.68"/><ellipse cx="397.414" cy="403.68" fill="#ADD1B2" rx="11" ry="11" style="stroke:#181818;stroke-width:1;"/><path d="M400.3828,409.3206 Q399.8047,409.6175 399.164,409.7581 Q398.5234,409.9144 397.8203,409.9144 Q395.3203,409.9144 393.9922,408.2737 Q392.6797,406.6175 392.6797,403.4925 Q392.6797,400.3675 393.9922,398.7112 Q395.3203,397.055 397.8203,397.055 Q398.5234,397.055 399.164,397.2112 Q399.8203,397.3675 400.3828,397.6644 L400.3828,400.3831 Q399.7578,399.805 399.164,399.5394 Q398.5703,399.2581 397.9453,399.2581 Q396.6015,399.2581 395.914,400.3362 Q395.2265,401.3987 395.2265,403.4925 Q395.2265,405.5862 395.914,406.6644 Q396.6015,407.7269 397.9453,407.7269 Q398.5703,407.7269 399.164,407.4612 Q399.7578,407.18 400.3828,406.6019 L400.3828,409.3206 Z " fill="#000000"/><text fill="#000000" font-family="sans-serif" font-size="14" lengthAdjust="spacing" textLength="44.8643" x="417.914" y="408.5267">Admin</text><line style="stroke:#181818;stroke-width:0.5;" x1="342.52" x2="505.6723" y1="419.68" y2="419.68"/><line style="stroke:#181818;stroke-width:0.5;" x1="342.52" x2="505.6723" y1="427.68" y2="427.68"/><text fill="#000000" font-family="sans-serif" font-size="14" lengthAdjust="spacing" textLength="130.7305" x="347.52" y="444.6751">Ajouter_chambre()</text><text fill="#000000" font-family="sans-serif" font-size="14" lengthAdjust="spacing" textLength="147.0957" x="347.52" y="460.972">Consulter_chambre()</text><text fill="#000000" font-family="sans-serif" font-size="14" lengthAdjust="spacing" textLength="153.1523" x="347.52" y="477.2689">Supprimer_chambre()</text></g><!--class Chambre--><g class="entity" data-entity="Chambre" data-source-line="24" data-uid="ent0005" id="entity_Chambre"><rect fill="#F1F1F1" height="162.0781" rx="2.5" ry="2.5" style="stroke:#181818;stroke-width:0.5;" width="165.1523" x="453.52" y="561.57"/><ellipse cx="499.7856" cy="577.57" fill="#ADD1B2" rx="11" ry="11" style="stroke:#181818;stroke-width:1;"/><path d="M502.7544,583.2106 Q502.1763,583.5075 501.5356,583.6481 Q500.895,583.8044 500.1919,583.8044 Q497.6919,583.8044 496.3638,582.1638 Q495.0513,580.5075 495.0513,577.3825 Q495.0513,574.2575 496.3638,572.6013 Q497.6919,570.945 500.1919,570.945 Q500.895,570.945 501.5356,571.1013 Q502.1919,571.2575 502.7544,571.5544 L502.7544,574.2731 Q502.1294,573.695 501.5356,573.4294 Q500.9419,573.1481 500.3169,573.1481 Q498.9731,573.1481 498.2856,574.2263 Q497.5981,575.2888 497.5981,577.3825 Q497.5981,579.4763 498.2856,580.5544 Q498.9731,581.6169 500.3169,581.6169 Q500.9419,581.6169 501.5356,581.3513 Q502.1294,581.07 502.7544,580.4919 L502.7544,583.2106 Z " fill="#000000"/><text fill="#000000" font-family="sans-serif" font-size="14" lengthAdjust="spacing" textLength="64.1211" x="520.2856" y="582.4167">Chambre</text><line style="stroke:#181818;stroke-width:0.5;" x1="454.52" x2="617.6723" y1="593.57" y2="593.57"/><text fill="#000000" font-family="sans-serif" font-size="14" lengthAdjust="spacing" textLength="113.6885" x="459.52" y="610.5651">id_chambre : int</text><text fill="#000000" font-family="sans-serif" font-size="14" lengthAdjust="spacing" textLength="88.1426" x="459.52" y="626.862">Type : string</text><text fill="#000000" font-family="sans-serif" font-size="14" lengthAdjust="spacing" textLength="151.252" x="459.52" y="643.1589">Etat_chambre : string</text><text fill="#000000" font-family="sans-serif" font-size="14" lengthAdjust="spacing" textLength="71.4424" x="459.52" y="659.4557">Prix : float</text><line style="stroke:#181818;stroke-width:0.5;" x1="454.52" x2="617.6723" y1="666.7575" y2="666.7575"/><text fill="#000000" font-family="sans-serif" font-size="14" lengthAdjust="spacing" textLength="130.7305" x="459.52" y="683.7526">Ajouter_chambre()</text><text fill="#000000" font-family="sans-serif" font-size="14" lengthAdjust="spacing" textLength="147.0957" x="459.52" y="700.0495">Consulter_chambre()</text><text fill="#000000" font-family="sans-serif" font-size="14" lengthAdjust="spacing" textLength="153.1523" x="459.52" y="716.3464">Supprimer_chambre()</text></g><!--class Reservation--><g class="entity" data-entity="Reservation" data-source-line="34" data-uid="ent0006" id="entity_Reservation"><rect fill="#F1F1F1" height="227.2656" rx="2.5" ry="2.5" style="stroke:#181818;stroke-width:0.5;" width="182.8232" x="196.68" y="800.64"/><ellipse cx="241.9988" cy="816.64" fill="#ADD1B2" rx="11" ry="11" style="stroke:#181818;stroke-width:1;"/><path d="M244.9676,822.2806 Q244.3895,822.5775 243.7488,822.7181 Q243.1082,822.8744 242.4051,822.8744 Q239.9051,822.8744 238.577,821.2338 Q237.2645,819.5775 237.2645,816.4525 Q237.2645,813.3275 238.577,811.6713 Q239.9051,810.015 242.4051,810.015 Q243.1082,810.015 243.7488,810.1713 Q244.4051,810.3275 244.9676,810.6244 L244.9676,813.3431 Q244.3426,812.765 243.7488,812.4994 Q243.1551,812.2181 242.5301,812.2181 Q241.1863,812.2181 240.4988,813.2963 Q239.8113,814.3588 239.8113,816.4525 Q239.8113,818.5463 240.4988,819.6244 Q241.1863,820.6869 242.5301,820.6869 Q243.1551,820.6869 243.7488,820.4213 Q244.3426,820.14 244.9676,819.5619 L244.9676,822.2806 Z " fill="#000000"/><text fill="#000000" font-family="sans-serif" font-size="14" lengthAdjust="spacing" textLength="83.6855" x="262.4988" y="821.4867">Reservation</text><line style="stroke:#181818;stroke-width:0.5;" x1="197.68" x2="378.5032" y1="832.64" y2="832.64"/><text fill="#000000" font-family="sans-serif" font-size="14" lengthAdjust="spacing" textLength="135.3311" x="202.68" y="849.6351">id_Reservation : int</text><text fill="#000000" font-family="sans-serif" font-size="14" lengthAdjust="spacing" textLength="126.3965" x="202.68" y="865.932">Date_debut : date</text><text fill="#000000" font-family="sans-serif" font-size="14" lengthAdjust="spacing" textLength="103.3389" x="202.68" y="882.2289">Date_fin : date</text><text fill="#000000" font-family="sans-serif" font-size="14" lengthAdjust="spacing" textLength="103.0176" x="202.68" y="898.5257">Montant : float</text><text fill="#000000" font-family="sans-serif" font-size="14" lengthAdjust="spacing" textLength="138.1338" x="202.68" y="914.8226">Type_sejour : string</text><text fill="#000000" font-family="sans-serif" font-size="14" lengthAdjust="spacing" textLength="137.5322" x="202.68" y="931.1195">nombre_adulte : int</text><text fill="#000000" font-family="sans-serif" font-size="14" lengthAdjust="spacing" textLength="138.5576" x="202.68" y="947.4164">nombre_enfant : int</text><line style="stroke:#181818;stroke-width:0.5;" x1="197.68" x2="378.5032" y1="954.7181" y2="954.7181"/><text fill="#000000" font-family="sans-serif" font-size="14" lengthAdjust="spacing" textLength="148.4014" x="202.68" y="971.7132">Ajouter_reservation()</text><text fill="#000000" font-family="sans-serif" font-size="14" lengthAdjust="spacing" textLength="164.7666" x="202.68" y="988.0101">Consulter_reservation()</text><text fill="#000000" font-family="sans-serif" font-size="14" lengthAdjust="spacing" textLength="170.8232" x="202.68" y="1004.307">Supprimer_reservation()</text><text fill="#000000" font-family="sans-serif" font-size="14" lengthAdjust="spacing" textLength="134.5039" x="202.68" y="1020.6039">Calculer_montant()</text></g><!--reverse link Utilisateur to Client--><g class="link" data-entity-1="Utilisateur" data-entity-2="Client" data-source-line="50" data-uid="lnk7" id="link_Utilisateur_Client"><path codeLine="50" d="M325.0166,153.7014 C317.6766,173.4414 315.94,178.14 308.83,197.28" fill="none" id="Utilisateur-backto-Client" style="stroke:#181818;stroke-width:1;"/><polygon fill="none" points="331.29,136.83,319.3928,151.6103,330.6404,155.7925,331.29,136.83" style="stroke:#181818;stroke-width:1;"/></g><!--reverse link Utilisateur to Admin--><g class="link" data-entity-1="Utilisateur" data-entity-2="Admin" data-source-line="51" data-uid="lnk8" id="link_Utilisateur_Admin"><path codeLine="51" d="M370.6378,154.3821 C384.2978,226.1021 402.77,323.1 415.01,387.41" fill="none" id="Utilisateur-backto-Admin" style="stroke:#181818;stroke-width:1;"/><polygon fill="none" points="367.27,136.7,364.7437,155.5047,376.5318,153.2595,367.27,136.7" style="stroke:#181818;stroke-width:1;"/></g><!--link Client to Admin--><g class="link" data-entity-1="Client" data-entity-2="Admin" data-source-line="54" data-uid="lnk9" id="link_Client_Admin"><path codeLine="54" d="M321.1,311.14 C330.87,326.59 341.95,343.11 353.1,357.68 C360.75,367.67 369.43,377.9 378.04,387.52" fill="none" id="Client-Admin" style="stroke:#181818;stroke-width:1;"/><text fill="#000000" font-family="sans-serif" font-size="13" lengthAdjust="spacing" textLength="36.7593" x="354.1" y="353.7469">G&#233;rer</text><text fill="#000000" font-family="sans-serif" font-size="13" lengthAdjust="spacing" textLength="23.0356" x="300.5889" y="330.6789">1..*</text><text fill="#000000" font-family="sans-serif" font-size="13" lengthAdjust="spacing" textLength="24.8066" x="345.9326" y="376.7064">1..1</text></g><!--link Client to Reservation--><g class="link" data-entity-1="Client" data-entity-2="Reservation" data-source-line="55" data-uid="lnk10" id="link_Client_Reservation"><path codeLine="55" d="M217.99,290.91 C197.16,304.25 175.74,321.01 160.1,340.68 C108.63,405.36 109.01,433.26 94.1,514.57 C77.36,605.8 6,488.83 160.1,770.64 C170.07,788.89 182.81,806.73 196.36,823.27" fill="none" id="Client-Reservation" style="stroke:#181818;stroke-width:1;"/><text fill="#000000" font-family="sans-serif" font-size="13" lengthAdjust="spacing" textLength="47.1377" x="95.1" y="527.6369">Ajouter</text><text fill="#000000" font-family="sans-serif" font-size="13" lengthAdjust="spacing" textLength="24.8066" x="185.5648" y="291.008">1..1</text><text fill="#000000" font-family="sans-serif" font-size="13" lengthAdjust="spacing" textLength="23.0356" x="165.7802" y="813.108">1..*</text></g><!--link Client to Reservation--><g class="link" data-entity-1="Client" data-entity-2="Reservation" data-source-line="56" data-uid="lnk11" id="link_Client_Reservation"><path codeLine="56" d="M258.06,311.1 C232.37,362.38 197.37,441.22 183.1,514.57 C164.12,612.05 196.56,720.99 230.25,800.33" fill="none" id="Client-Reservation-1" style="stroke:#181818;stroke-width:1;"/><text fill="#000000" font-family="sans-serif" font-size="13" lengthAdjust="spacing" textLength="60.4043" x="184.1" y="527.6369">consulter</text><text fill="#000000" font-family="sans-serif" font-size="13" lengthAdjust="spacing" textLength="24.8066" x="229.2466" y="330.6343">1..1</text><text fill="#000000" font-family="sans-serif" font-size="13" lengthAdjust="spacing" textLength="23.0356" x="202.8089" y="789.6212">1..*</text></g><!--link Client to Reservation--><g class="link" data-entity-1="Client" data-entity-2="Reservation" data-source-line="57" data-uid="lnk12" id="link_Client_Reservation"><path codeLine="57" d="M288.1,310.92 C288.1,418.86 288.1,658.05 288.1,800.4" fill="none" id="Client-Reservation-2" style="stroke:#181818;stroke-width:1;"/><text fill="#000000" font-family="sans-serif" font-size="13" lengthAdjust="spacing" textLength="67.958" x="289.1" y="527.6369">Supprimer</text><text fill="#000000" font-family="sans-serif" font-size="13" lengthAdjust="spacing" textLength="24.8066" x="262.6876" y="330.836">1..1</text><text fill="#000000" font-family="sans-serif" font-size="13" lengthAdjust="spacing" textLength="23.0356" x="264.365" y="789.6957">1..*</text></g><!--link Admin to Chambre--><g class="link" data-entity-1="Admin" data-entity-2="Chambre" data-source-line="58" data-uid="lnk13" id="link_Admin_Chambre"><path codeLine="58" d="M450.36,485.06 C462.77,507.73 477.93,535.41 492.03,561.15" fill="none" id="Admin-Chambre" style="stroke:#181818;stroke-width:1;"/><text fill="#000000" font-family="sans-serif" font-size="13" lengthAdjust="spacing" textLength="36.7593" x="475.1" y="527.6369">G&#233;rer</text><text fill="#000000" font-family="sans-serif" font-size="13" lengthAdjust="spacing" textLength="24.8066" x="428.3309" y="504.7192">1..1</text><text fill="#000000" font-family="sans-serif" font-size="13" lengthAdjust="spacing" textLength="23.0356" x="464.2563" y="550.5777">1..*</text></g><!--link Admin to Reservation--><g class="link" data-entity-1="Admin" data-entity-2="Reservation" data-source-line="59" data-uid="lnk14" id="link_Admin_Reservation"><path codeLine="59" d="M410.43,484.96 C389.52,558.18 348.98,700.12 320.31,800.5" fill="none" id="Admin-Reservation" style="stroke:#181818;stroke-width:1;"/><text fill="#000000" font-family="sans-serif" font-size="13" lengthAdjust="spacing" textLength="36.7593" x="388.1" y="647.1769">G&#233;rer</text><text fill="#000000" font-family="sans-serif" font-size="13" lengthAdjust="spacing" textLength="24.8066" x="383.0353" y="504.6058">1..1</text><text fill="#000000" font-family="sans-serif" font-size="13" lengthAdjust="spacing" textLength="23.0356" x="298.7032" y="789.4233">1..*</text></g><!--link Chambre to Reservation--><g class="link" data-entity-1="Chambre" data-entity-2="Reservation" data-source-line="60" data-uid="lnk15" id="link_Chambre_Reservation"><path codeLine="60" d="M462.36,723.79 C436.37,752.04 406.84,784.15 379.57,813.81" fill="none" id="Chambre-Reservation" style="stroke:#181818;stroke-width:1;"/><text fill="#000000" font-family="sans-serif" font-size="13" lengthAdjust="spacing" textLength="55.561" x="436.1" y="766.7069">Contenir</text><text fill="#000000" font-family="sans-serif" font-size="13" lengthAdjust="spacing" textLength="23.0356" x="431.7702" y="743.761">1..*</text><text fill="#000000" font-family="sans-serif" font-size="13" lengthAdjust="spacing" textLength="24.8066" x="387.5234" y="802.6161">1..1</text></g><!--SRC=[hLB1JiCm3BttAw9T1aYRjEl4PHe8BaXeZ7ELjTuMb2PLuY8Gy47xZlqORfgcQSjX1sxEoxFzRByfkpkVza8955gn72pB9BSMR9AuWBsYaC9oXCgmhuGnaRCb4mefLBgWsA8Hwa3Fqi00AJIcEQHbNJ36xmikP0VyjBtMKe12rsOB4igZLhsyrPkk44oQETxLTGqfLSa-jDRALhB72nrMUI6KQn1g7NcnCp3CZD2NgYoDA7fe9xc1_6fQHbZHzhFiJuuS8rB0dutueFTUQex_9su35imxTwVr0cEe5Nb7rwKxxIeaAAT7Yv4lEkH9A-GA8vNrSAa5qchYMSW4f2FbUQqsDakDWjetHHgq7THqiWR33d-wWKSvN6RE2qMZjDd4b3sUJqOWFq2In6Q-_PxDlEF6kFD9dRm1wJhOn9jpifZFRoQCE7Mqc7XBBTa3jG4JqnQ1HWdznVkvBsHdxJOkv8ST9Osu4TsxDeZ-cnOLxSRptXsjeQ-0xeUWXFa5]--></g></svg>