<svg xmlns="http://www.w3.org/2000/svg" xmlns:xlink="http://www.w3.org/1999/xlink" contentStyleType="text/css" height="642px" preserveAspectRatio="none" style="width:1179px;height:642px;background:#FFFFFF;" version="1.1" viewBox="0 0 1179 642" width="1179px" zoomAndPan="magnify"><defs/><g><rect fill="none" height="258.7344" style="stroke:#000000;stroke-width:1.5;" width="852.5" x="301.5" y="286.0938"/><line style="stroke:#181818;stroke-width:0.5;stroke-dasharray:5.0,5.0;" x1="58" x2="58" y1="81.2969" y2="561.8281"/><line style="stroke:#181818;stroke-width:0.5;stroke-dasharray:5.0,5.0;" x1="383.5" x2="383.5" y1="81.2969" y2="561.8281"/><line style="stroke:#181818;stroke-width:0.5;stroke-dasharray:5.0,5.0;" x1="849" x2="849" y1="81.2969" y2="561.8281"/><text fill="#000000" font-family="sans-serif" font-size="14" lengthAdjust="spacing" textLength="100" x="5" y="77.9951">Administrateur</text><ellipse cx="58" cy="13.5" fill="#E2E2F0" rx="8" ry="8" style="stroke:#181818;stroke-width:0.5;"/><path d="M58,21.5 L58,48.5 M45,29.5 L71,29.5 M58,48.5 L45,63.5 M58,48.5 L71,63.5 " fill="none" style="stroke:#181818;stroke-width:0.5;"/><text fill="#000000" font-family="sans-serif" font-size="14" lengthAdjust="spacing" textLength="100" x="5" y="573.8232">Administrateur</text><ellipse cx="58" cy="585.625" fill="#E2E2F0" rx="8" ry="8" style="stroke:#181818;stroke-width:0.5;"/><path d="M58,593.625 L58,620.625 M45,601.625 L71,601.625 M58,620.625 L45,635.625 M58,620.625 L71,635.625 " fill="none" style="stroke:#181818;stroke-width:0.5;"/><rect fill="#E2E2F0" height="30.2969" rx="2.5" ry="2.5" style="stroke:#181818;stroke-width:0.5;" width="145" x="311.5" y="50"/><text fill="#000000" font-family="sans-serif" font-size="14" lengthAdjust="spacing" textLength="131" x="318.5" y="69.9951">Interface utilisateur</text><rect fill="#E2E2F0" height="30.2969" rx="2.5" ry="2.5" style="stroke:#181818;stroke-width:0.5;" width="145" x="311.5" y="560.8281"/><text fill="#000000" font-family="sans-serif" font-size="14" lengthAdjust="spacing" textLength="131" x="318.5" y="580.8232">Interface utilisateur</text><rect fill="#E2E2F0" height="30.2969" rx="2.5" ry="2.5" style="stroke:#181818;stroke-width:0.5;" width="74" x="812" y="50"/><text fill="#000000" font-family="sans-serif" font-size="14" lengthAdjust="spacing" textLength="60" x="819" y="69.9951">Syst&#232;me</text><rect fill="#E2E2F0" height="30.2969" rx="2.5" ry="2.5" style="stroke:#181818;stroke-width:0.5;" width="74" x="812" y="560.8281"/><text fill="#000000" font-family="sans-serif" font-size="14" lengthAdjust="spacing" textLength="60" x="819" y="580.8232">Syst&#232;me</text><polygon fill="#181818" points="372,108.4297,382,112.4297,372,116.4297,376,112.4297" style="stroke:#181818;stroke-width:1.0;"/><line style="stroke:#181818;stroke-width:1.0;" x1="58" x2="378" y1="112.4297" y2="112.4297"/><text fill="#000000" font-family="sans-serif" font-size="13" font-weight="bold" lengthAdjust="spacing" textLength="9" x="65" y="107.3638">1</text><text fill="#000000" font-family="sans-serif" font-size="13" lengthAdjust="spacing" textLength="289" x="78" y="107.3638">Acc&#232;de au menu de gestion des r&#233;servations</text><polygon fill="#181818" points="372,137.5625,382,141.5625,372,145.5625,376,141.5625" style="stroke:#181818;stroke-width:1.0;"/><line style="stroke:#181818;stroke-width:1.0;" x1="58" x2="378" y1="141.5625" y2="141.5625"/><text fill="#000000" font-family="sans-serif" font-size="13" font-weight="bold" lengthAdjust="spacing" textLength="9" x="65" y="136.4966">2</text><text fill="#000000" font-family="sans-serif" font-size="13" lengthAdjust="spacing" textLength="239" x="78" y="136.4966">S&#233;lectionne "Ajouter une r&#233;servation"</text><polygon fill="#181818" points="837,166.6953,847,170.6953,837,174.6953,841,170.6953" style="stroke:#181818;stroke-width:1.0;"/><line style="stroke:#181818;stroke-width:1.0;" x1="384" x2="843" y1="170.6953" y2="170.6953"/><text fill="#000000" font-family="sans-serif" font-size="13" font-weight="bold" lengthAdjust="spacing" textLength="9" x="391" y="165.6294">3</text><text fill="#000000" font-family="sans-serif" font-size="13" lengthAdjust="spacing" textLength="428" x="404" y="165.6294">Demande les informations n&#233;cessaires (ID client, ID chambre, etc.)</text><polygon fill="#181818" points="372,195.8281,382,199.8281,372,203.8281,376,199.8281" style="stroke:#181818;stroke-width:1.0;"/><line style="stroke:#181818;stroke-width:1.0;" x1="58" x2="378" y1="199.8281" y2="199.8281"/><text fill="#000000" font-family="sans-serif" font-size="13" font-weight="bold" lengthAdjust="spacing" textLength="9" x="65" y="194.7622">4</text><text fill="#000000" font-family="sans-serif" font-size="13" lengthAdjust="spacing" textLength="221" x="78" y="194.7622">Saisit les informations demand&#233;es</text><polygon fill="#181818" points="837,224.9609,847,228.9609,837,232.9609,841,228.9609" style="stroke:#181818;stroke-width:1.0;"/><line style="stroke:#181818;stroke-width:1.0;" x1="384" x2="843" y1="228.9609" y2="228.9609"/><text fill="#000000" font-family="sans-serif" font-size="13" font-weight="bold" lengthAdjust="spacing" textLength="9" x="391" y="223.895">5</text><text fill="#000000" font-family="sans-serif" font-size="13" lengthAdjust="spacing" textLength="195" x="404" y="223.895">Envoie les informations saisies</text><line style="stroke:#181818;stroke-width:1.0;" x1="849" x2="891" y1="258.0938" y2="258.0938"/><line style="stroke:#181818;stroke-width:1.0;" x1="891" x2="891" y1="258.0938" y2="271.0938"/><line style="stroke:#181818;stroke-width:1.0;" x1="850" x2="891" y1="271.0938" y2="271.0938"/><polygon fill="#181818" points="860,267.0938,850,271.0938,860,275.0938,856,271.0938" style="stroke:#181818;stroke-width:1.0;"/><text fill="#000000" font-family="sans-serif" font-size="13" font-weight="bold" lengthAdjust="spacing" textLength="9" x="856" y="253.0278">6</text><text fill="#000000" font-family="sans-serif" font-size="13" lengthAdjust="spacing" textLength="303" x="869" y="253.0278">V&#233;rifie les informations (dates, client, chambre)</text><path d="M301.5,286.0938 L365.5,286.0938 L365.5,293.2266 L355.5,303.2266 L301.5,303.2266 L301.5,286.0938 " fill="#EEEEEE" style="stroke:#000000;stroke-width:1.5;"/><rect fill="none" height="258.7344" style="stroke:#000000;stroke-width:1.5;" width="852.5" x="301.5" y="286.0938"/><text fill="#000000" font-family="sans-serif" font-size="13" font-weight="bold" lengthAdjust="spacing" textLength="19" x="316.5" y="299.1606">alt</text><text fill="#000000" font-family="sans-serif" font-size="11" font-weight="bold" lengthAdjust="spacing" textLength="141" x="380.5" y="298.3042">[Informations valides]</text><line style="stroke:#181818;stroke-width:1.0;" x1="849" x2="891" y1="324.3594" y2="324.3594"/><line style="stroke:#181818;stroke-width:1.0;" x1="891" x2="891" y1="324.3594" y2="337.3594"/><line style="stroke:#181818;stroke-width:1.0;" x1="850" x2="891" y1="337.3594" y2="337.3594"/><polygon fill="#181818" points="860,333.3594,850,337.3594,860,341.3594,856,337.3594" style="stroke:#181818;stroke-width:1.0;"/><text fill="#000000" font-family="sans-serif" font-size="13" font-weight="bold" lengthAdjust="spacing" textLength="9" x="856" y="319.2935">7</text><text fill="#000000" font-family="sans-serif" font-size="13" lengthAdjust="spacing" textLength="153" x="869" y="319.2935">Calcule le montant total</text><line style="stroke:#181818;stroke-width:1.0;" x1="849" x2="891" y1="366.4922" y2="366.4922"/><line style="stroke:#181818;stroke-width:1.0;" x1="891" x2="891" y1="366.4922" y2="379.4922"/><line style="stroke:#181818;stroke-width:1.0;" x1="850" x2="891" y1="379.4922" y2="379.4922"/><polygon fill="#181818" points="860,375.4922,850,379.4922,860,383.4922,856,379.4922" style="stroke:#181818;stroke-width:1.0;"/><text fill="#000000" font-family="sans-serif" font-size="13" font-weight="bold" lengthAdjust="spacing" textLength="9" x="856" y="361.4263">8</text><text fill="#000000" font-family="sans-serif" font-size="13" lengthAdjust="spacing" textLength="227" x="869" y="361.4263">G&#233;n&#232;re un ID de r&#233;servation unique</text><line style="stroke:#181818;stroke-width:1.0;" x1="849" x2="891" y1="408.625" y2="408.625"/><line style="stroke:#181818;stroke-width:1.0;" x1="891" x2="891" y1="408.625" y2="421.625"/><line style="stroke:#181818;stroke-width:1.0;" x1="850" x2="891" y1="421.625" y2="421.625"/><polygon fill="#181818" points="860,417.625,850,421.625,860,425.625,856,421.625" style="stroke:#181818;stroke-width:1.0;"/><text fill="#000000" font-family="sans-serif" font-size="13" font-weight="bold" lengthAdjust="spacing" textLength="9" x="856" y="403.5591">9</text><text fill="#000000" font-family="sans-serif" font-size="13" lengthAdjust="spacing" textLength="156" x="869" y="403.5591">Enregistre la r&#233;servation</text><line style="stroke:#181818;stroke-width:1.0;" x1="849" x2="891" y1="450.7578" y2="450.7578"/><line style="stroke:#181818;stroke-width:1.0;" x1="891" x2="891" y1="450.7578" y2="463.7578"/><line style="stroke:#181818;stroke-width:1.0;" x1="850" x2="891" y1="463.7578" y2="463.7578"/><polygon fill="#181818" points="860,459.7578,850,463.7578,860,467.7578,856,463.7578" style="stroke:#181818;stroke-width:1.0;"/><text fill="#000000" font-family="sans-serif" font-size="13" font-weight="bold" lengthAdjust="spacing" textLength="18" x="856" y="445.6919">10</text><text fill="#000000" font-family="sans-serif" font-size="13" lengthAdjust="spacing" textLength="264" x="878" y="445.6919">Met &#224; jour l'&#233;tat de la chambre (occup&#233;e)</text><polygon fill="#181818" points="395,488.8906,385,492.8906,395,496.8906,391,492.8906" style="stroke:#181818;stroke-width:1.0;"/><line style="stroke:#181818;stroke-width:1.0;" x1="389" x2="848" y1="492.8906" y2="492.8906"/><text fill="#000000" font-family="sans-serif" font-size="13" font-weight="bold" lengthAdjust="spacing" textLength="18" x="401" y="487.8247">11</text><text fill="#000000" font-family="sans-serif" font-size="13" lengthAdjust="spacing" textLength="275" x="423" y="487.8247">Affiche "R&#233;servation ajout&#233;e avec succ&#232;s !"</text><line style="stroke:#000000;stroke-width:1.0;stroke-dasharray:2.0,2.0;" x1="301.5" x2="1154" y1="501.8906" y2="501.8906"/><text fill="#000000" font-family="sans-serif" font-size="11" font-weight="bold" lengthAdjust="spacing" textLength="153" x="306.5" y="512.1011">[Informations invalides]</text><polygon fill="#181818" points="395,532.8281,385,536.8281,395,540.8281,391,536.8281" style="stroke:#181818;stroke-width:1.0;"/><line style="stroke:#181818;stroke-width:1.0;" x1="389" x2="848" y1="536.8281" y2="536.8281"/><text fill="#000000" font-family="sans-serif" font-size="13" font-weight="bold" lengthAdjust="spacing" textLength="18" x="401" y="531.7622">12</text><text fill="#000000" font-family="sans-serif" font-size="13" lengthAdjust="spacing" textLength="245" x="423" y="531.7622">Affiche un message d'erreur appropri&#233;</text><!--SRC=[VL9BRjim4Dtp55DjOWDk3z150QC92Y-wQT3k9zJ8cO0YrU7GG6_JfNKENgp390qiEBPNDFL-U7nODCKoFf0uXrwJmBOVEN9MGQLYjnEAikS9eqAtYqeoe2Seoe7pCwO3pF1pjq3U_ybQZoCvjzI3ZryC2fzXwtqzzWHOOAHOm8vxoiefsZ63r3cJ7B1Tv4iQztKEv1ia4dJRfrGi7HJxSqhld86DyZ-I4Mzfn6YEmPmu3ad65oE8TVQKCxBObzNk5dnWYhg1Tdp4yK5e0wJ-q_fY9kJCUgxSFrlMcV9vdBjuIFnEcjoqZF06NT9-rLbuU8-uwYrKthobVus-TXWKTgV80mQslXtOxuBDLmo-XEO2OuhQNbUJOhZ6-LRdM8zYCucjkdxv8dRBlmjT4xYBGllMhldYWdoDzPqKwb-m8GY4cpehQlCsXTS6O9MyBvCzm_fCvsMMmy3-qTRqupGljcaP2V107d9fsytmeNCKCYqBvNYfqeM-zJAseUq9-XiIQHF2QP8q2TVPKUp_0G00]--></g></svg>