<svg xmlns="http://www.w3.org/2000/svg" xmlns:xlink="http://www.w3.org/1999/xlink" contentStyleType="text/css" data-diagram-type="CLASS" height="795px" preserveAspectRatio="none" style="width:499px;height:795px;background:#FFFFFF;" version="1.1" viewBox="0 0 499 795" width="499px" zoomAndPan="magnify"><defs/><g><!--class Utilisateur--><g class="entity" data-entity="Utilisateur" data-source-line="1" data-uid="ent0002" id="entity_Utilisateur"><rect fill="#F1F1F1" height="129.4844" rx="2.5" ry="2.5" style="stroke:#181818;stroke-width:0.5;" width="111.8594" x="77.45" y="7"/><ellipse cx="95.9823" cy="23" fill="#ADD1B2" rx="11" ry="11" style="stroke:#181818;stroke-width:1;"/><path d="M98.9511,28.6406 Q98.3729,28.9375 97.7323,29.0781 Q97.0917,29.2344 96.3886,29.2344 Q93.8886,29.2344 92.5604,27.5938 Q91.2479,25.9375 91.2479,22.8125 Q91.2479,19.6875 92.5604,18.0313 Q93.8886,16.375 96.3886,16.375 Q97.0917,16.375 97.7323,16.5313 Q98.3886,16.6875 98.9511,16.9844 L98.9511,19.7031 Q98.3261,19.125 97.7323,18.8594 Q97.1386,18.5781 96.5136,18.5781 Q95.1698,18.5781 94.4823,19.6563 Q93.7948,20.7188 93.7948,22.8125 Q93.7948,24.9063 94.4823,25.9844 Q95.1698,27.0469 96.5136,27.0469 Q97.1386,27.0469 97.7323,26.7813 Q98.3261,26.5 98.9511,25.9219 L98.9511,28.6406 Z " fill="#000000"/><text fill="#000000" font-family="sans-serif" font-size="14" lengthAdjust="spacing" textLength="72.0098" x="110.7673" y="27.8467">Utilisateur</text><line style="stroke:#181818;stroke-width:0.5;" x1="78.45" x2="188.3094" y1="39" y2="39"/><text fill="#000000" font-family="sans-serif" font-size="14" lengthAdjust="spacing" textLength="12.7764" x="83.45" y="55.9951">id</text><text fill="#000000" font-family="sans-serif" font-size="14" lengthAdjust="spacing" textLength="31.0762" x="83.45" y="72.292">nom</text><text fill="#000000" font-family="sans-serif" font-size="14" lengthAdjust="spacing" textLength="54.332" x="83.45" y="88.5889">prenom</text><text fill="#000000" font-family="sans-serif" font-size="14" lengthAdjust="spacing" textLength="99.8594" x="83.45" y="104.8857">mot_de_passe</text><text fill="#000000" font-family="sans-serif" font-size="14" lengthAdjust="spacing" textLength="38.8418" x="83.45" y="121.1826">Email</text><line style="stroke:#181818;stroke-width:0.5;" x1="78.45" x2="188.3094" y1="128.4844" y2="128.4844"/></g><!--class Client--><g class="entity" data-entity="Client" data-source-line="9" data-uid="ent0003" id="entity_Client"><rect fill="#F1F1F1" height="113.1875" rx="2.5" ry="2.5" style="stroke:#181818;stroke-width:0.5;" width="190.7666" x="7" y="346.93"/><ellipse cx="77.8682" cy="362.93" fill="#ADD1B2" rx="11" ry="11" style="stroke:#181818;stroke-width:1;"/><path d="M80.8369,368.5706 Q80.2588,368.8675 79.6182,369.0081 Q78.9775,369.1644 78.2744,369.1644 Q75.7744,369.1644 74.4463,367.5238 Q73.1338,365.8675 73.1338,362.7425 Q73.1338,359.6175 74.4463,357.9613 Q75.7744,356.305 78.2744,356.305 Q78.9775,356.305 79.6182,356.4613 Q80.2744,356.6175 80.8369,356.9144 L80.8369,359.6331 Q80.2119,359.055 79.6182,358.7894 Q79.0244,358.5081 78.3994,358.5081 Q77.0557,358.5081 76.3682,359.5863 Q75.6807,360.6488 75.6807,362.7425 Q75.6807,364.8363 76.3682,365.9144 Q77.0557,366.9769 78.3994,366.9769 Q79.0244,366.9769 79.6182,366.7113 Q80.2119,366.43 80.8369,365.8519 L80.8369,368.5706 Z " fill="#000000"/><text fill="#000000" font-family="sans-serif" font-size="14" lengthAdjust="spacing" textLength="40.5303" x="98.3682" y="367.7767">Client</text><line style="stroke:#181818;stroke-width:0.5;" x1="8" x2="196.7666" y1="378.93" y2="378.93"/><text fill="#000000" font-family="sans-serif" font-size="14" lengthAdjust="spacing" textLength="73.4795" x="13" y="395.9251">Telephone</text><line style="stroke:#181818;stroke-width:0.5;" x1="8" x2="196.7666" y1="403.2269" y2="403.2269"/><ellipse cx="18" cy="416.8753" fill="#84BE84" rx="3" ry="3" style="stroke:#038048;stroke-width:1;"/><text fill="#000000" font-family="sans-serif" font-size="14" lengthAdjust="spacing" textLength="148.4014" x="27" y="420.222">Ajouter_reservation()</text><ellipse cx="18" cy="433.1722" fill="#84BE84" rx="3" ry="3" style="stroke:#038048;stroke-width:1;"/><text fill="#000000" font-family="sans-serif" font-size="14" lengthAdjust="spacing" textLength="152.0928" x="27" y="436.5189">Annuler_reservation()</text><ellipse cx="18" cy="449.4691" fill="#84BE84" rx="3" ry="3" style="stroke:#038048;stroke-width:1;"/><text fill="#000000" font-family="sans-serif" font-size="14" lengthAdjust="spacing" textLength="164.7666" x="27" y="452.8157">Consulter_reservation()</text></g><!--class Admin--><g class="entity" data-entity="Admin" data-source-line="16" data-uid="ent0004" id="entity_Admin"><rect fill="#F1F1F1" height="48" rx="2.5" ry="2.5" style="stroke:#181818;stroke-width:0.5;" width="76.8643" x="187.95" y="197.49"/><ellipse cx="202.95" cy="213.49" fill="#ADD1B2" rx="11" ry="11" style="stroke:#181818;stroke-width:1;"/><path d="M205.9188,219.1306 Q205.3406,219.4275 204.7,219.5681 Q204.0594,219.7244 203.3563,219.7244 Q200.8563,219.7244 199.5281,218.0838 Q198.2156,216.4275 198.2156,213.3025 Q198.2156,210.1775 199.5281,208.5213 Q200.8563,206.865 203.3563,206.865 Q204.0594,206.865 204.7,207.0213 Q205.3563,207.1775 205.9188,207.4744 L205.9188,210.1931 Q205.2938,209.615 204.7,209.3494 Q204.1063,209.0681 203.4813,209.0681 Q202.1375,209.0681 201.45,210.1463 Q200.7625,211.2088 200.7625,213.3025 Q200.7625,215.3963 201.45,216.4744 Q202.1375,217.5369 203.4813,217.5369 Q204.1063,217.5369 204.7,217.2713 Q205.2938,216.99 205.9188,216.4119 L205.9188,219.1306 Z " fill="#000000"/><text fill="#000000" font-family="sans-serif" font-size="14" lengthAdjust="spacing" textLength="44.8643" x="216.95" y="218.3367">Admin</text><line style="stroke:#181818;stroke-width:0.5;" x1="188.95" x2="263.8143" y1="229.49" y2="229.49"/><line style="stroke:#181818;stroke-width:0.5;" x1="188.95" x2="263.8143" y1="237.49" y2="237.49"/></g><!--class Chambre--><g class="entity" data-entity="Chambre" data-source-line="19" data-uid="ent0005" id="entity_Chambre"><rect fill="#F1F1F1" height="162.0781" rx="2.5" ry="2.5" style="stroke:#181818;stroke-width:0.5;" width="179.1523" x="232.81" y="322.49"/><ellipse cx="286.0756" cy="338.49" fill="#ADD1B2" rx="11" ry="11" style="stroke:#181818;stroke-width:1;"/><path d="M289.0444,344.1306 Q288.4663,344.4275 287.8256,344.5681 Q287.185,344.7244 286.4819,344.7244 Q283.9819,344.7244 282.6538,343.0838 Q281.3413,341.4275 281.3413,338.3025 Q281.3413,335.1775 282.6538,333.5213 Q283.9819,331.865 286.4819,331.865 Q287.185,331.865 287.8256,332.0213 Q288.4819,332.1775 289.0444,332.4744 L289.0444,335.1931 Q288.4194,334.615 287.8256,334.3494 Q287.2319,334.0681 286.6069,334.0681 Q285.2631,334.0681 284.5756,335.1463 Q283.8881,336.2088 283.8881,338.3025 Q283.8881,340.3963 284.5756,341.4744 Q285.2631,342.5369 286.6069,342.5369 Q287.2319,342.5369 287.8256,342.2713 Q288.4194,341.99 289.0444,341.4119 L289.0444,344.1306 Z " fill="#000000"/><text fill="#000000" font-family="sans-serif" font-size="14" lengthAdjust="spacing" textLength="64.1211" x="306.5756" y="343.3367">Chambre</text><line style="stroke:#181818;stroke-width:0.5;" x1="233.81" x2="410.9623" y1="354.49" y2="354.49"/><text fill="#000000" font-family="sans-serif" font-size="14" lengthAdjust="spacing" textLength="81.8193" x="238.81" y="371.4851">id_chambre</text><text fill="#000000" font-family="sans-serif" font-size="14" lengthAdjust="spacing" textLength="34.3369" x="238.81" y="387.782">Type</text><text fill="#000000" font-family="sans-serif" font-size="14" lengthAdjust="spacing" textLength="97.4463" x="238.81" y="404.0789">Etat_chambre</text><text fill="#000000" font-family="sans-serif" font-size="14" lengthAdjust="spacing" textLength="26.373" x="238.81" y="420.3757">Prix</text><line style="stroke:#181818;stroke-width:0.5;" x1="233.81" x2="410.9623" y1="427.6775" y2="427.6775"/><ellipse cx="243.81" cy="441.3259" fill="#84BE84" rx="3" ry="3" style="stroke:#038048;stroke-width:1;"/><text fill="#000000" font-family="sans-serif" font-size="14" lengthAdjust="spacing" textLength="130.7305" x="252.81" y="444.6726">Ajouter_chambre()</text><ellipse cx="243.81" cy="457.6228" fill="#84BE84" rx="3" ry="3" style="stroke:#038048;stroke-width:1;"/><text fill="#000000" font-family="sans-serif" font-size="14" lengthAdjust="spacing" textLength="147.0957" x="252.81" y="460.9695">Consulter_chambre()</text><ellipse cx="243.81" cy="473.9197" fill="#84BE84" rx="3" ry="3" style="stroke:#038048;stroke-width:1;"/><text fill="#000000" font-family="sans-serif" font-size="14" lengthAdjust="spacing" textLength="153.1523" x="252.81" y="477.2664">Supprimer_chambre()</text></g><!--class Reservation--><g class="entity" data-entity="Reservation" data-source-line="29" data-uid="ent0006" id="entity_Reservation"><rect fill="#F1F1F1" height="227.2656" rx="2.5" ry="2.5" style="stroke:#181818;stroke-width:0.5;" width="196.8232" x="156.97" y="561.56"/><ellipse cx="209.2888" cy="577.56" fill="#ADD1B2" rx="11" ry="11" style="stroke:#181818;stroke-width:1;"/><path d="M212.2576,583.2006 Q211.6795,583.4975 211.0388,583.6381 Q210.3982,583.7944 209.6951,583.7944 Q207.1951,583.7944 205.867,582.1538 Q204.5545,580.4975 204.5545,577.3725 Q204.5545,574.2475 205.867,572.5913 Q207.1951,570.935 209.6951,570.935 Q210.3982,570.935 211.0388,571.0913 Q211.6951,571.2475 212.2576,571.5444 L212.2576,574.2631 Q211.6326,573.685 211.0388,573.4194 Q210.4451,573.1381 209.8201,573.1381 Q208.4763,573.1381 207.7888,574.2163 Q207.1013,575.2788 207.1013,577.3725 Q207.1013,579.4663 207.7888,580.5444 Q208.4763,581.6069 209.8201,581.6069 Q210.4451,581.6069 211.0388,581.3413 Q211.6326,581.06 212.2576,580.4819 L212.2576,583.2006 Z " fill="#000000"/><text fill="#000000" font-family="sans-serif" font-size="14" lengthAdjust="spacing" textLength="83.6855" x="229.7888" y="582.4067">Reservation</text><line style="stroke:#181818;stroke-width:0.5;" x1="157.97" x2="352.7932" y1="593.56" y2="593.56"/><text fill="#000000" font-family="sans-serif" font-size="14" lengthAdjust="spacing" textLength="103.4619" x="162.97" y="610.5551">id_Reservation</text><text fill="#000000" font-family="sans-serif" font-size="14" lengthAdjust="spacing" textLength="81.2109" x="162.97" y="626.852">Date_debut</text><text fill="#000000" font-family="sans-serif" font-size="14" lengthAdjust="spacing" textLength="58.1533" x="162.97" y="643.1489">Date_fin</text><text fill="#000000" font-family="sans-serif" font-size="14" lengthAdjust="spacing" textLength="57.9482" x="162.97" y="659.4457">Montant</text><text fill="#000000" font-family="sans-serif" font-size="14" lengthAdjust="spacing" textLength="84.3281" x="162.97" y="675.7426">Type_sejour</text><text fill="#000000" font-family="sans-serif" font-size="14" lengthAdjust="spacing" textLength="105.6631" x="162.97" y="692.0395">nombre_adulte</text><text fill="#000000" font-family="sans-serif" font-size="14" lengthAdjust="spacing" textLength="106.6885" x="162.97" y="708.3364">nombre_enfant</text><line style="stroke:#181818;stroke-width:0.5;" x1="157.97" x2="352.7932" y1="715.6381" y2="715.6381"/><ellipse cx="167.97" cy="729.2866" fill="#84BE84" rx="3" ry="3" style="stroke:#038048;stroke-width:1;"/><text fill="#000000" font-family="sans-serif" font-size="14" lengthAdjust="spacing" textLength="148.4014" x="176.97" y="732.6332">Ajouter_reservation()</text><ellipse cx="167.97" cy="745.5834" fill="#84BE84" rx="3" ry="3" style="stroke:#038048;stroke-width:1;"/><text fill="#000000" font-family="sans-serif" font-size="14" lengthAdjust="spacing" textLength="164.7666" x="176.97" y="748.9301">Consulter_reservation()</text><ellipse cx="167.97" cy="761.8803" fill="#84BE84" rx="3" ry="3" style="stroke:#038048;stroke-width:1;"/><text fill="#000000" font-family="sans-serif" font-size="14" lengthAdjust="spacing" textLength="170.8232" x="176.97" y="765.227">Supprimer_reservation()</text><ellipse cx="167.97" cy="778.1772" fill="#84BE84" rx="3" ry="3" style="stroke:#038048;stroke-width:1;"/><text fill="#000000" font-family="sans-serif" font-size="14" lengthAdjust="spacing" textLength="134.5039" x="176.97" y="781.5239">Calculer_montant()</text></g><!--reverse link Utilisateur to Client--><g class="link" data-entity-1="Utilisateur" data-entity-2="Client" data-source-line="43" data-uid="lnk7" id="link_Utilisateur_Client"><path codeLine="43" d="M125.6858,154.641 C119.9558,215.611 113.1,288.57 107.63,346.68" fill="none" id="Utilisateur-backto-Client" style="stroke:#181818;stroke-width:1;"/><polygon fill="none" points="127.37,136.72,119.7121,154.0796,131.6594,155.2024,127.37,136.72" style="stroke:#181818;stroke-width:1;"/></g><!--reverse link Utilisateur to Admin--><g class="link" data-entity-1="Utilisateur" data-entity-2="Admin" data-source-line="44" data-uid="lnk8" id="link_Utilisateur_Admin"><path codeLine="44" d="M183.2208,151.9221 C196.7708,173.4421 201.45,180.88 211.73,197.21" fill="none" id="Utilisateur-backto-Admin" style="stroke:#181818;stroke-width:1;"/><polygon fill="none" points="173.63,136.69,178.1435,155.119,188.2982,148.7251,173.63,136.69" style="stroke:#181818;stroke-width:1;"/></g><!--link Client to Reservation--><g class="link" data-entity-1="Client" data-entity-2="Reservation" data-source-line="45" data-uid="lnk9" id="link_Client_Reservation"><path codeLine="45" d="M97.37,460.41 C97.44,483.37 100.38,509.65 110.38,531.56 C121.31,555.5 125.7227,564.5584 144.1227,583.8384" fill="none" id="Client-to-Reservation" style="stroke:#181818;stroke-width:1;"/><polygon fill="none" points="156.55,596.86,148.4633,579.6959,139.7822,587.9808,156.55,596.86" style="stroke:#181818;stroke-width:1;"/><text fill="#000000" font-family="sans-serif" font-size="13" lengthAdjust="spacing" textLength="47.1377" x="111.38" y="527.6269">Ajouter</text><text fill="#000000" font-family="sans-serif" font-size="13" lengthAdjust="spacing" textLength="20.6743" x="75.5813" y="480.3321">1,1</text></g><!--link Client to Reservation--><g class="link" data-entity-1="Client" data-entity-2="Reservation" data-source-line="47" data-uid="lnk11" id="link_Client_Reservation"><path codeLine="47" d="M134.08,460.4 C150.63,489.56 162.6085,510.6637 182.3385,545.4437" fill="none" id="Client-to-Reservation-1" style="stroke:#181818;stroke-width:1;"/><polygon fill="none" points="191.22,561.1,187.5573,542.4832,177.1197,548.4042,191.22,561.1" style="stroke:#181818;stroke-width:1;"/><text fill="#000000" font-family="sans-serif" font-size="13" lengthAdjust="spacing" textLength="62.334" x="174.38" y="527.6269">Consulter</text><text fill="#000000" font-family="sans-serif" font-size="13" lengthAdjust="spacing" textLength="20.6743" x="116.7654" y="480.3208">1,1</text></g><!--link Admin to Reservation--><g class="link" data-entity-1="Admin" data-entity-2="Reservation" data-source-line="46" data-uid="lnk10" id="link_Admin_Reservation"><path codeLine="46" d="M265.24,229.01 C313.4,239.4 393.48,264.78 429.38,322.49 C467.44,383.65 455.51,417.44 429.38,484.56 C413.5,525.37 396.8919,549.8771 366.8719,580.4471" fill="none" id="Admin-to-Reservation" style="stroke:#181818;stroke-width:1;"/><polygon fill="none" points="354.26,593.29,371.1528,584.651,362.5909,576.2431,354.26,593.29" style="stroke:#181818;stroke-width:1;"/><text fill="#000000" font-family="sans-serif" font-size="13" lengthAdjust="spacing" textLength="36.7593" x="454.38" y="408.0969">G&#233;rer</text><text fill="#000000" font-family="sans-serif" font-size="13" lengthAdjust="spacing" textLength="18.9033" x="272.9393" y="226.0907">1,*</text></g><!--link Admin to Client--><g class="link" data-entity-1="Admin" data-entity-2="Client" data-source-line="48" data-uid="lnk12" id="link_Admin_Client"><path codeLine="48" d="M210.43,245.65 C192.96,271.01 174.539,297.7551 151.139,331.7351" fill="none" id="Admin-to-Client" style="stroke:#181818;stroke-width:1;"/><polygon fill="none" points="140.93,346.56,156.0806,335.1381,146.1974,328.3321,140.93,346.56" style="stroke:#181818;stroke-width:1;"/><text fill="#000000" font-family="sans-serif" font-size="13" lengthAdjust="spacing" textLength="36.7593" x="190.38" y="288.5569">G&#233;rer</text><text fill="#000000" font-family="sans-serif" font-size="13" lengthAdjust="spacing" textLength="20.6743" x="184.1864" y="265.4502">1,1</text></g><!--link Admin to Chambre--><g class="link" data-entity-1="Admin" data-entity-2="Chambre" data-source-line="49" data-uid="lnk13" id="link_Admin_Chambre"><path codeLine="49" d="M238.74,245.65 C249.17,265.22 256.2844,278.545 271.1744,306.485" fill="none" id="Admin-to-Chambre" style="stroke:#181818;stroke-width:1;"/><polygon fill="none" points="279.64,322.37,276.4694,303.6631,265.8794,309.3068,279.64,322.37" style="stroke:#181818;stroke-width:1;"/><text fill="#000000" font-family="sans-serif" font-size="13" lengthAdjust="spacing" textLength="36.7593" x="263.38" y="288.5569">G&#233;rer</text><text fill="#000000" font-family="sans-serif" font-size="13" lengthAdjust="spacing" textLength="18.9033" x="221.6686" y="265.4502">1,*</text></g><!--link Chambre to Reservation--><g class="link" data-entity-1="Chambre" data-entity-2="Reservation" data-source-line="50" data-uid="lnk14" id="link_Chambre_Reservation"><path codeLine="50" d="M302.46,484.71 C296.48,508.77 294.1501,518.1611 287.7501,543.9211" fill="none" id="Chambre-to-Reservation" style="stroke:#181818;stroke-width:1;"/><polygon fill="none" points="283.41,561.39,293.5731,545.3678,281.9271,542.4744,283.41,561.39" style="stroke:#181818;stroke-width:1;"/><text fill="#000000" font-family="sans-serif" font-size="13" lengthAdjust="spacing" textLength="55.561" x="295.38" y="527.6269">Contenir</text><text fill="#000000" font-family="sans-serif" font-size="13" lengthAdjust="spacing" textLength="18.9033" x="281.924" y="504.681">1,*</text></g><!--SRC=[XPB9JiCm48RlUGgh9xOSUaK8gIg84n9YELjkCbMDlCaU8n3bWNWENWnZEtjQSadop_RDKWdc77b1BhXZ2DwIpuA4XzVnfRICRsEX-PGQQGtKX3Y8mgraN1HVHL75N6l1GM5Eymm2p4whv7c-UjKUmL8B3kmRGwxLoMasAUN5l6cjbVDY6jUMNDMIgr2nOzWnkR7GzaAh92Ic3vF1aU70yc3v-n0qMwSa8yEJDyPoEJ2qD8yTTKVK4wDq4wOVvhhnsFrkURBTQuLCOKjF7GG-ssmebAEi_kFgAw2sJSonkHyQxgYjkKWcghWocV1Io_rJkjgNPRw7gHwNLkHhASlzzM1EbsInl5WkI2OlqehdtSuMvExdsmQl_xArpVRpvQ369wVgE-Hh6XVBya6eK0r1SViB]--></g></svg>