<svg xmlns="http://www.w3.org/2000/svg" xmlns:xlink="http://www.w3.org/1999/xlink" contentStyleType="text/css" height="569px" preserveAspectRatio="none" style="width:848px;height:569px;background:#FFFFFF;" version="1.1" viewBox="0 0 848 569" width="848px" zoomAndPan="magnify"><defs/><g><text fill="#000000" font-family="sans-serif" font-size="14" font-weight="bold" lengthAdjust="spacing" textLength="125" x="360.5" y="27.9951">Authentification</text><rect fill="none" height="90.2031" style="stroke:#000000;stroke-width:1.5;" width="345" x="10" y="391.7891"/><line style="stroke:#181818;stroke-width:0.5;stroke-dasharray:5.0,5.0;" x1="46" x2="46" y1="73.5938" y2="534.125"/><line style="stroke:#181818;stroke-width:0.5;stroke-dasharray:5.0,5.0;" x1="287" x2="287" y1="73.5938" y2="534.125"/><line style="stroke:#181818;stroke-width:0.5;stroke-dasharray:5.0,5.0;" x1="559.5" x2="559.5" y1="73.5938" y2="534.125"/><line style="stroke:#181818;stroke-width:0.5;stroke-dasharray:5.0,5.0;" x1="773" x2="773" y1="73.5938" y2="534.125"/><rect fill="#E2E2F0" height="30.2969" rx="2.5" ry="2.5" style="stroke:#181818;stroke-width:0.5;" width="53" x="20" y="42.2969"/><text fill="#000000" font-family="sans-serif" font-size="14" lengthAdjust="spacing" textLength="39" x="27" y="62.292">Client</text><rect fill="#E2E2F0" height="30.2969" rx="2.5" ry="2.5" style="stroke:#181818;stroke-width:0.5;" width="53" x="20" y="533.125"/><text fill="#000000" font-family="sans-serif" font-size="14" lengthAdjust="spacing" textLength="39" x="27" y="553.1201">Client</text><rect fill="#E2E2F0" height="30.2969" rx="2.5" ry="2.5" style="stroke:#181818;stroke-width:0.5;" width="115" x="230" y="42.2969"/><text fill="#000000" font-family="sans-serif" font-size="14" lengthAdjust="spacing" textLength="101" x="237" y="62.292">Interface client</text><rect fill="#E2E2F0" height="30.2969" rx="2.5" ry="2.5" style="stroke:#181818;stroke-width:0.5;" width="115" x="230" y="533.125"/><text fill="#000000" font-family="sans-serif" font-size="14" lengthAdjust="spacing" textLength="101" x="237" y="553.1201">Interface client</text><rect fill="#E2E2F0" height="30.2969" rx="2.5" ry="2.5" style="stroke:#181818;stroke-width:0.5;" width="196" x="461.5" y="42.2969"/><text fill="#000000" font-family="sans-serif" font-size="14" lengthAdjust="spacing" textLength="182" x="468.5" y="62.292">Syst&#232;me d'authentification</text><rect fill="#E2E2F0" height="30.2969" rx="2.5" ry="2.5" style="stroke:#181818;stroke-width:0.5;" width="196" x="461.5" y="533.125"/><text fill="#000000" font-family="sans-serif" font-size="14" lengthAdjust="spacing" textLength="182" x="468.5" y="553.1201">Syst&#232;me d'authentification</text><rect fill="#E2E2F0" height="30.2969" rx="2.5" ry="2.5" style="stroke:#181818;stroke-width:0.5;" width="137" x="705" y="42.2969"/><text fill="#000000" font-family="sans-serif" font-size="14" lengthAdjust="spacing" textLength="123" x="712" y="62.292">Base de donn&#233;es</text><rect fill="#E2E2F0" height="30.2969" rx="2.5" ry="2.5" style="stroke:#181818;stroke-width:0.5;" width="137" x="705" y="533.125"/><text fill="#000000" font-family="sans-serif" font-size="14" lengthAdjust="spacing" textLength="123" x="712" y="553.1201">Base de donn&#233;es</text><polygon fill="#181818" points="275.5,100.7266,285.5,104.7266,275.5,108.7266,279.5,104.7266" style="stroke:#181818;stroke-width:1.0;"/><line style="stroke:#181818;stroke-width:1.0;" x1="46.5" x2="281.5" y1="104.7266" y2="104.7266"/><text fill="#000000" font-family="sans-serif" font-size="13" font-weight="bold" lengthAdjust="spacing" textLength="9" x="53.5" y="99.6606">1</text><text fill="#000000" font-family="sans-serif" font-size="13" lengthAdjust="spacing" textLength="204" x="66.5" y="99.6606">Acc&#233;der &#224; la page de connexion</text><line style="stroke:#181818;stroke-width:1.0;" x1="287.5" x2="329.5" y1="133.8594" y2="133.8594"/><line style="stroke:#181818;stroke-width:1.0;" x1="329.5" x2="329.5" y1="133.8594" y2="146.8594"/><line style="stroke:#181818;stroke-width:1.0;" x1="288.5" x2="329.5" y1="146.8594" y2="146.8594"/><polygon fill="#181818" points="298.5,142.8594,288.5,146.8594,298.5,150.8594,294.5,146.8594" style="stroke:#181818;stroke-width:1.0;"/><text fill="#000000" font-family="sans-serif" font-size="13" font-weight="bold" lengthAdjust="spacing" textLength="9" x="294.5" y="128.7935">2</text><text fill="#000000" font-family="sans-serif" font-size="13" lengthAdjust="spacing" textLength="155" x="307.5" y="128.7935">Saisir email et password</text><line style="stroke:#181818;stroke-width:1.0;" x1="287.5" x2="329.5" y1="175.9922" y2="175.9922"/><line style="stroke:#181818;stroke-width:1.0;" x1="329.5" x2="329.5" y1="175.9922" y2="188.9922"/><line style="stroke:#181818;stroke-width:1.0;" x1="288.5" x2="329.5" y1="188.9922" y2="188.9922"/><polygon fill="#181818" points="298.5,184.9922,288.5,188.9922,298.5,192.9922,294.5,188.9922" style="stroke:#181818;stroke-width:1.0;"/><text fill="#000000" font-family="sans-serif" font-size="13" font-weight="bold" lengthAdjust="spacing" textLength="9" x="294.5" y="170.9263">3</text><text fill="#000000" font-family="sans-serif" font-size="13" lengthAdjust="spacing" textLength="160" x="307.5" y="170.9263">Clique sur "se connecter"</text><polygon fill="#181818" points="547.5,214.125,557.5,218.125,547.5,222.125,551.5,218.125" style="stroke:#181818;stroke-width:1.0;"/><line style="stroke:#181818;stroke-width:1.0;" x1="287.5" x2="553.5" y1="218.125" y2="218.125"/><text fill="#000000" font-family="sans-serif" font-size="13" font-weight="bold" lengthAdjust="spacing" textLength="9" x="294.5" y="213.0591">4</text><text fill="#000000" font-family="sans-serif" font-size="13" lengthAdjust="spacing" textLength="235" x="307.5" y="213.0591">Verifieridentification(email,password)</text><polygon fill="#181818" points="761.5,243.2578,771.5,247.2578,761.5,251.2578,765.5,247.2578" style="stroke:#181818;stroke-width:1.0;"/><line style="stroke:#181818;stroke-width:1.0;" x1="559.5" x2="767.5" y1="247.2578" y2="247.2578"/><text fill="#000000" font-family="sans-serif" font-size="13" font-weight="bold" lengthAdjust="spacing" textLength="9" x="566.5" y="242.1919">5</text><text fill="#000000" font-family="sans-serif" font-size="13" lengthAdjust="spacing" textLength="177" x="579.5" y="242.1919">rechercherutilisateur(email)</text><polygon fill="#181818" points="570.5,272.3906,560.5,276.3906,570.5,280.3906,566.5,276.3906" style="stroke:#181818;stroke-width:1.0;"/><line style="stroke:#181818;stroke-width:1.0;stroke-dasharray:2.0,2.0;" x1="564.5" x2="772.5" y1="276.3906" y2="276.3906"/><text fill="#000000" font-family="sans-serif" font-size="13" font-weight="bold" lengthAdjust="spacing" textLength="9" x="576.5" y="271.3247">6</text><text fill="#000000" font-family="sans-serif" font-size="13" lengthAdjust="spacing" textLength="147" x="589.5" y="271.3247">Informations utilisateur</text><line style="stroke:#181818;stroke-width:1.0;" x1="559.5" x2="601.5" y1="305.5234" y2="305.5234"/><line style="stroke:#181818;stroke-width:1.0;" x1="601.5" x2="601.5" y1="305.5234" y2="318.5234"/><line style="stroke:#181818;stroke-width:1.0;" x1="560.5" x2="601.5" y1="318.5234" y2="318.5234"/><polygon fill="#181818" points="570.5,314.5234,560.5,318.5234,570.5,322.5234,566.5,318.5234" style="stroke:#181818;stroke-width:1.0;"/><text fill="#000000" font-family="sans-serif" font-size="13" font-weight="bold" lengthAdjust="spacing" textLength="9" x="566.5" y="300.4575">7</text><text fill="#000000" font-family="sans-serif" font-size="13" lengthAdjust="spacing" textLength="109" x="579.5" y="300.4575">Verifier password</text><polygon fill="#181818" points="298.5,343.6563,288.5,347.6563,298.5,351.6563,294.5,347.6563" style="stroke:#181818;stroke-width:1.0;"/><line style="stroke:#181818;stroke-width:1.0;stroke-dasharray:2.0,2.0;" x1="292.5" x2="558.5" y1="347.6563" y2="347.6563"/><text fill="#000000" font-family="sans-serif" font-size="13" font-weight="bold" lengthAdjust="spacing" textLength="9" x="304.5" y="342.5903">8</text><text fill="#000000" font-family="sans-serif" font-size="13" lengthAdjust="spacing" textLength="158" x="317.5" y="342.5903">Resultat_authentification</text><polygon fill="#181818" points="57.5,372.7891,47.5,376.7891,57.5,380.7891,53.5,376.7891" style="stroke:#181818;stroke-width:1.0;"/><line style="stroke:#181818;stroke-width:1.0;" x1="51.5" x2="286.5" y1="376.7891" y2="376.7891"/><text fill="#000000" font-family="sans-serif" font-size="13" font-weight="bold" lengthAdjust="spacing" textLength="9" x="63.5" y="371.7231">9</text><text fill="#000000" font-family="sans-serif" font-size="13" lengthAdjust="spacing" textLength="199" x="76.5" y="371.7231">Affiche resultat authentification</text><path d="M10,391.7891 L74,391.7891 L74,398.9219 L64,408.9219 L10,408.9219 L10,391.7891 " fill="#EEEEEE" style="stroke:#000000;stroke-width:1.5;"/><rect fill="none" height="90.2031" style="stroke:#000000;stroke-width:1.5;" width="345" x="10" y="391.7891"/><text fill="#000000" font-family="sans-serif" font-size="13" font-weight="bold" lengthAdjust="spacing" textLength="19" x="25" y="404.856">alt</text><text fill="#000000" font-family="sans-serif" font-size="11" font-weight="bold" lengthAdjust="spacing" textLength="164" x="89" y="403.9995">[authentification r&#233;ussie]</text><polygon fill="#181818" points="57.5,426.0547,47.5,430.0547,57.5,434.0547,53.5,430.0547" style="stroke:#181818;stroke-width:1.0;"/><line style="stroke:#181818;stroke-width:1.0;" x1="51.5" x2="286.5" y1="430.0547" y2="430.0547"/><text fill="#000000" font-family="sans-serif" font-size="13" font-weight="bold" lengthAdjust="spacing" textLength="18" x="63.5" y="424.9888">10</text><text fill="#000000" font-family="sans-serif" font-size="13" lengthAdjust="spacing" textLength="181" x="85.5" y="424.9888">rediriger vers le menu_client</text><line style="stroke:#000000;stroke-width:1.0;stroke-dasharray:2.0,2.0;" x1="10" x2="355" y1="439.0547" y2="439.0547"/><text fill="#000000" font-family="sans-serif" font-size="11" font-weight="bold" lengthAdjust="spacing" textLength="172" x="15" y="449.2651">[authentification &#233;chou&#233;e]</text><polygon fill="#181818" points="57.5,469.9922,47.5,473.9922,57.5,477.9922,53.5,473.9922" style="stroke:#181818;stroke-width:1.0;"/><line style="stroke:#181818;stroke-width:1.0;" x1="51.5" x2="286.5" y1="473.9922" y2="473.9922"/><text fill="#000000" font-family="sans-serif" font-size="13" font-weight="bold" lengthAdjust="spacing" textLength="18" x="63.5" y="468.9263">11</text><text fill="#000000" font-family="sans-serif" font-size="13" lengthAdjust="spacing" textLength="102" x="85.5" y="468.9263">message erreur</text><path d="M184,493.9922 L184,518.9922 L390,518.9922 L390,503.9922 L380,493.9922 L184,493.9922 " fill="#FEFFDD" style="stroke:#181818;stroke-width:0.5;"/><path d="M380,493.9922 L380,503.9922 L390,503.9922 L380,493.9922 " fill="#FEFFDD" style="stroke:#181818;stroke-width:0.5;"/><text fill="#000000" font-family="sans-serif" font-size="13" lengthAdjust="spacing" textLength="185" x="190" y="511.0591">Option pour creer un compte</text><!--SRC=[ZPDBJiD038RtSmgh6wX4By02gT0DAoGgiQs6YTkCbCm4syFZDYpfEN8nF2dGHz9IAOaqjl_FpY-FJH93gf-HZ14l5S8qIOb1_D8xApu6OnfBufrlR12ugxmczqAZ-o18I-iGN9STWMNu2mufvXyixLUDK5pOWtQTEEUnnjueUv1RomhG9uRGhf4xPGxESAOXH3PcqnmcDuVpm3LCdMlN1HAqdr1PQEogmxciVS_T3YL3bBdrx0cmjhu25AKmlqKgpX9dDryI0YU24V-qTbeq6f8VCKKny8IaP_qKkvdBRgghtv76vXX1uNk-PIIXAv7ocyHNdgrWeWrnRFQh9wU7km_BI7LtPDY1dHhdZ7_TMdsKC-WvF2AdIgmi3bTloFIjRBhKkXBLc8qSUd9ZgtuKg5qdPey60E1K1yB2ar_fdxqYCUXLh36anUPE6QnqGNhmTktAc7Jx_wKhZ3clE19byp4KneGe257RzQxhGzFncwYhwGYr8WNTpxeHp5B8ocy0]--></g></svg>