<svg xmlns="http://www.w3.org/2000/svg" xmlns:xlink="http://www.w3.org/1999/xlink" contentStyleType="text/css" height="836px" preserveAspectRatio="none" style="width:1204px;height:836px;background:#FFFFFF;" version="1.1" viewBox="0 0 1204 836" width="1204px" zoomAndPan="magnify"><defs/><g><rect fill="none" height="104.5313" style="stroke:#000000;stroke-width:1.5;" width="876" x="10" y="431.625"/><line style="stroke:#181818;stroke-width:0.5;stroke-dasharray:5.0,5.0;" x1="73" x2="73" y1="81.2969" y2="755.9531"/><line style="stroke:#181818;stroke-width:0.5;stroke-dasharray:5.0,5.0;" x1="404" x2="404" y1="81.2969" y2="755.9531"/><line style="stroke:#181818;stroke-width:0.5;stroke-dasharray:5.0,5.0;" x1="785" x2="785" y1="81.2969" y2="755.9531"/><line style="stroke:#181818;stroke-width:0.5;stroke-dasharray:5.0,5.0;" x1="1122.5" x2="1122.5" y1="81.2969" y2="755.9531"/><text fill="#000000" font-family="sans-serif" font-size="14" lengthAdjust="spacing" textLength="100" x="20" y="77.9951">Administrateur</text><ellipse cx="73" cy="13.5" fill="#E2E2F0" rx="8" ry="8" style="stroke:#181818;stroke-width:0.5;"/><path d="M73,21.5 L73,48.5 M60,29.5 L86,29.5 M73,48.5 L60,63.5 M73,48.5 L86,63.5 " fill="none" style="stroke:#181818;stroke-width:0.5;"/><text fill="#000000" font-family="sans-serif" font-size="14" lengthAdjust="spacing" textLength="100" x="20" y="767.9482">Administrateur</text><ellipse cx="73" cy="779.75" fill="#E2E2F0" rx="8" ry="8" style="stroke:#181818;stroke-width:0.5;"/><path d="M73,787.75 L73,814.75 M60,795.75 L86,795.75 M73,814.75 L60,829.75 M73,814.75 L86,829.75 " fill="none" style="stroke:#181818;stroke-width:0.5;"/><rect fill="#E2E2F0" height="30.2969" rx="2.5" ry="2.5" style="stroke:#181818;stroke-width:0.5;" width="146" x="331" y="50"/><text fill="#000000" font-family="sans-serif" font-size="14" lengthAdjust="spacing" textLength="132" x="338" y="69.9951">Interface Utilisateur</text><rect fill="#E2E2F0" height="30.2969" rx="2.5" ry="2.5" style="stroke:#181818;stroke-width:0.5;" width="146" x="331" y="754.9531"/><text fill="#000000" font-family="sans-serif" font-size="14" lengthAdjust="spacing" textLength="132" x="338" y="774.9482">Interface Utilisateur</text><rect fill="#E2E2F0" height="30.2969" rx="2.5" ry="2.5" style="stroke:#181818;stroke-width:0.5;" width="182" x="694" y="50"/><text fill="#000000" font-family="sans-serif" font-size="14" lengthAdjust="spacing" textLength="168" x="701" y="69.9951">Syst&#232;me de R&#233;servation</text><rect fill="#E2E2F0" height="30.2969" rx="2.5" ry="2.5" style="stroke:#181818;stroke-width:0.5;" width="182" x="694" y="754.9531"/><text fill="#000000" font-family="sans-serif" font-size="14" lengthAdjust="spacing" textLength="168" x="701" y="774.9482">Syst&#232;me de R&#233;servation</text><rect fill="#E2E2F0" height="30.2969" rx="2.5" ry="2.5" style="stroke:#181818;stroke-width:0.5;" width="139" x="1053.5" y="50"/><text fill="#000000" font-family="sans-serif" font-size="14" lengthAdjust="spacing" textLength="125" x="1060.5" y="69.9951">Base de Donn&#233;es</text><rect fill="#E2E2F0" height="30.2969" rx="2.5" ry="2.5" style="stroke:#181818;stroke-width:0.5;" width="139" x="1053.5" y="754.9531"/><text fill="#000000" font-family="sans-serif" font-size="14" lengthAdjust="spacing" textLength="125" x="1060.5" y="774.9482">Base de Donn&#233;es</text><rect fill="#EEEEEE" height="3" style="stroke:#EEEEEE;stroke-width:1.0;" width="1197.5" x="0" y="111.8633"/><line style="stroke:#000000;stroke-width:1.0;" x1="0" x2="1197.5" y1="111.8633" y2="111.8633"/><line style="stroke:#000000;stroke-width:1.0;" x1="0" x2="1197.5" y1="114.8633" y2="114.8633"/><rect fill="#EEEEEE" height="23.1328" style="stroke:#000000;stroke-width:2.0;" width="282" x="457.75" y="101.2969"/><text fill="#000000" font-family="sans-serif" font-size="13" font-weight="bold" lengthAdjust="spacing" textLength="263" x="463.75" y="117.3638">Acc&#232;s &#224; la gestion des r&#233;servations</text><polygon fill="#181818" points="392,151.5625,402,155.5625,392,159.5625,396,155.5625" style="stroke:#181818;stroke-width:1.0;"/><line style="stroke:#181818;stroke-width:1.0;" x1="73" x2="398" y1="155.5625" y2="155.5625"/><text fill="#000000" font-family="sans-serif" font-size="13" font-weight="bold" lengthAdjust="spacing" textLength="9" x="80" y="150.4966">1</text><text fill="#000000" font-family="sans-serif" font-size="13" lengthAdjust="spacing" textLength="294" x="93" y="150.4966">Acc&#233;der au menu de gestion des r&#233;servations</text><polygon fill="#181818" points="773,180.6953,783,184.6953,773,188.6953,777,184.6953" style="stroke:#181818;stroke-width:1.0;"/><line style="stroke:#181818;stroke-width:1.0;" x1="404" x2="779" y1="184.6953" y2="184.6953"/><text fill="#000000" font-family="sans-serif" font-size="13" font-weight="bold" lengthAdjust="spacing" textLength="9" x="411" y="179.6294">2</text><text fill="#000000" font-family="sans-serif" font-size="13" lengthAdjust="spacing" textLength="280" x="424" y="179.6294">Afficher options de gestion des r&#233;servations</text><polygon fill="#181818" points="392,209.8281,402,213.8281,392,217.8281,396,213.8281" style="stroke:#181818;stroke-width:1.0;"/><line style="stroke:#181818;stroke-width:1.0;" x1="73" x2="398" y1="213.8281" y2="213.8281"/><text fill="#000000" font-family="sans-serif" font-size="13" font-weight="bold" lengthAdjust="spacing" textLength="9" x="80" y="208.7622">3</text><text fill="#000000" font-family="sans-serif" font-size="13" lengthAdjust="spacing" textLength="247" x="93" y="208.7622">S&#233;lectionner "Annuler une r&#233;servation"</text><rect fill="#EEEEEE" height="3" style="stroke:#EEEEEE;stroke-width:1.0;" width="1197.5" x="0" y="242.3945"/><line style="stroke:#000000;stroke-width:1.0;" x1="0" x2="1197.5" y1="242.3945" y2="242.3945"/><line style="stroke:#000000;stroke-width:1.0;" x1="0" x2="1197.5" y1="245.3945" y2="245.3945"/><rect fill="#EEEEEE" height="23.1328" style="stroke:#000000;stroke-width:2.0;" width="244" x="476.75" y="231.8281"/><text fill="#000000" font-family="sans-serif" font-size="13" font-weight="bold" lengthAdjust="spacing" textLength="225" x="482.75" y="247.895">Saisie de l'ID de la r&#233;servation</text><polygon fill="#181818" points="415,282.0938,405,286.0938,415,290.0938,411,286.0938" style="stroke:#181818;stroke-width:1.0;"/><line style="stroke:#181818;stroke-width:1.0;" x1="409" x2="784" y1="286.0938" y2="286.0938"/><text fill="#000000" font-family="sans-serif" font-size="13" font-weight="bold" lengthAdjust="spacing" textLength="9" x="421" y="281.0278">4</text><text fill="#000000" font-family="sans-serif" font-size="13" lengthAdjust="spacing" textLength="202" x="434" y="281.0278">Demander l'ID de la r&#233;servation</text><polygon fill="#181818" points="392,311.2266,402,315.2266,392,319.2266,396,315.2266" style="stroke:#181818;stroke-width:1.0;"/><line style="stroke:#181818;stroke-width:1.0;" x1="73" x2="398" y1="315.2266" y2="315.2266"/><text fill="#000000" font-family="sans-serif" font-size="13" font-weight="bold" lengthAdjust="spacing" textLength="9" x="80" y="310.1606">5</text><text fill="#000000" font-family="sans-serif" font-size="13" lengthAdjust="spacing" textLength="169" x="93" y="310.1606">Saisir l'ID de la r&#233;servation</text><polygon fill="#181818" points="773,340.3594,783,344.3594,773,348.3594,777,344.3594" style="stroke:#181818;stroke-width:1.0;"/><line style="stroke:#181818;stroke-width:1.0;" x1="404" x2="779" y1="344.3594" y2="344.3594"/><text fill="#000000" font-family="sans-serif" font-size="13" font-weight="bold" lengthAdjust="spacing" textLength="9" x="411" y="339.2935">6</text><text fill="#000000" font-family="sans-serif" font-size="13" lengthAdjust="spacing" textLength="213" x="424" y="339.2935">Transmettre l'ID de la r&#233;servation</text><rect fill="#EEEEEE" height="3" style="stroke:#EEEEEE;stroke-width:1.0;" width="1197.5" x="0" y="372.9258"/><line style="stroke:#000000;stroke-width:1.0;" x1="0" x2="1197.5" y1="372.9258" y2="372.9258"/><line style="stroke:#000000;stroke-width:1.0;" x1="0" x2="1197.5" y1="375.9258" y2="375.9258"/><rect fill="#EEEEEE" height="23.1328" style="stroke:#000000;stroke-width:2.0;" width="233" x="482.25" y="362.3594"/><text fill="#000000" font-family="sans-serif" font-size="13" font-weight="bold" lengthAdjust="spacing" textLength="214" x="488.25" y="378.4263">V&#233;rification de la r&#233;servation</text><polygon fill="#181818" points="1111,412.625,1121,416.625,1111,420.625,1115,416.625" style="stroke:#181818;stroke-width:1.0;"/><line style="stroke:#181818;stroke-width:1.0;" x1="785" x2="1117" y1="416.625" y2="416.625"/><text fill="#000000" font-family="sans-serif" font-size="13" font-weight="bold" lengthAdjust="spacing" textLength="9" x="792" y="411.5591">7</text><text fill="#000000" font-family="sans-serif" font-size="13" lengthAdjust="spacing" textLength="205" x="805" y="411.5591">Rechercher la r&#233;servation par ID</text><path d="M10,431.625 L74,431.625 L74,438.7578 L64,448.7578 L10,448.7578 L10,431.625 " fill="#EEEEEE" style="stroke:#000000;stroke-width:1.5;"/><rect fill="none" height="104.5313" style="stroke:#000000;stroke-width:1.5;" width="876" x="10" y="431.625"/><text fill="#000000" font-family="sans-serif" font-size="13" font-weight="bold" lengthAdjust="spacing" textLength="19" x="25" y="444.6919">alt</text><text fill="#000000" font-family="sans-serif" font-size="11" font-weight="bold" lengthAdjust="spacing" textLength="163" x="89" y="443.8354">[R&#233;servation introuvable]</text><polygon fill="#181818" points="415,465.8906,405,469.8906,415,473.8906,411,469.8906" style="stroke:#181818;stroke-width:1.0;"/><line style="stroke:#181818;stroke-width:1.0;" x1="409" x2="784" y1="469.8906" y2="469.8906"/><text fill="#000000" font-family="sans-serif" font-size="13" font-weight="bold" lengthAdjust="spacing" textLength="9" x="421" y="464.8247">8</text><text fill="#000000" font-family="sans-serif" font-size="13" lengthAdjust="spacing" textLength="344" x="434" y="464.8247">Afficher "Aucune r&#233;servation correspondante trouv&#233;e"</text><polygon fill="#181818" points="84,495.0234,74,499.0234,84,503.0234,80,499.0234" style="stroke:#181818;stroke-width:1.0;"/><line style="stroke:#181818;stroke-width:1.0;" x1="78" x2="403" y1="499.0234" y2="499.0234"/><text fill="#000000" font-family="sans-serif" font-size="13" font-weight="bold" lengthAdjust="spacing" textLength="9" x="90" y="493.9575">9</text><text fill="#000000" font-family="sans-serif" font-size="13" lengthAdjust="spacing" textLength="165" x="103" y="493.9575">Afficher message d'erreur</text><polygon fill="#181818" points="392,524.1563,402,528.1563,392,532.1563,396,528.1563" style="stroke:#181818;stroke-width:1.0;"/><line style="stroke:#181818;stroke-width:1.0;stroke-dasharray:2.0,2.0;" x1="73" x2="398" y1="528.1563" y2="528.1563"/><text fill="#000000" font-family="sans-serif" font-size="13" font-weight="bold" lengthAdjust="spacing" textLength="18" x="80" y="523.0903">10</text><text fill="#000000" font-family="sans-serif" font-size="13" lengthAdjust="spacing" textLength="4" x="102" y="523.0903">&#160;</text><rect fill="#EEEEEE" height="3" style="stroke:#EEEEEE;stroke-width:1.0;" width="1197.5" x="0" y="563.7227"/><line style="stroke:#000000;stroke-width:1.0;" x1="0" x2="1197.5" y1="563.7227" y2="563.7227"/><line style="stroke:#000000;stroke-width:1.0;" x1="0" x2="1197.5" y1="566.7227" y2="566.7227"/><rect fill="#EEEEEE" height="23.1328" style="stroke:#000000;stroke-width:2.0;" width="227" x="485.25" y="553.1563"/><text fill="#000000" font-family="sans-serif" font-size="13" font-weight="bold" lengthAdjust="spacing" textLength="208" x="491.25" y="569.2231">Annulation de la r&#233;servation</text><polygon fill="#181818" points="1111,603.4219,1121,607.4219,1111,611.4219,1115,607.4219" style="stroke:#181818;stroke-width:1.0;"/><line style="stroke:#181818;stroke-width:1.0;" x1="785" x2="1117" y1="607.4219" y2="607.4219"/><text fill="#000000" font-family="sans-serif" font-size="13" font-weight="bold" lengthAdjust="spacing" textLength="18" x="792" y="602.356">11</text><text fill="#000000" font-family="sans-serif" font-size="13" lengthAdjust="spacing" textLength="292" x="814" y="602.356">Mettre &#224; jour l'&#233;tat de la chambre (disponible)</text><polygon fill="#181818" points="1111,632.5547,1121,636.5547,1111,640.5547,1115,636.5547" style="stroke:#181818;stroke-width:1.0;"/><line style="stroke:#181818;stroke-width:1.0;" x1="785" x2="1117" y1="636.5547" y2="636.5547"/><text fill="#000000" font-family="sans-serif" font-size="13" font-weight="bold" lengthAdjust="spacing" textLength="18" x="792" y="631.4888">12</text><text fill="#000000" font-family="sans-serif" font-size="13" lengthAdjust="spacing" textLength="158" x="814" y="631.4888">Supprimer la r&#233;servation</text><rect fill="#EEEEEE" height="3" style="stroke:#EEEEEE;stroke-width:1.0;" width="1197.5" x="0" y="665.1211"/><line style="stroke:#000000;stroke-width:1.0;" x1="0" x2="1197.5" y1="665.1211" y2="665.1211"/><line style="stroke:#000000;stroke-width:1.0;" x1="0" x2="1197.5" y1="668.1211" y2="668.1211"/><rect fill="#EEEEEE" height="23.1328" style="stroke:#000000;stroke-width:2.0;" width="114" x="541.75" y="654.5547"/><text fill="#000000" font-family="sans-serif" font-size="13" font-weight="bold" lengthAdjust="spacing" textLength="95" x="547.75" y="670.6216">Confirmation</text><polygon fill="#181818" points="415,704.8203,405,708.8203,415,712.8203,411,708.8203" style="stroke:#181818;stroke-width:1.0;"/><line style="stroke:#181818;stroke-width:1.0;" x1="409" x2="784" y1="708.8203" y2="708.8203"/><text fill="#000000" font-family="sans-serif" font-size="13" font-weight="bold" lengthAdjust="spacing" textLength="18" x="421" y="703.7544">13</text><text fill="#000000" font-family="sans-serif" font-size="13" lengthAdjust="spacing" textLength="283" x="443" y="703.7544">Afficher "R&#233;servation annul&#233;e avec succ&#232;s !"</text><polygon fill="#181818" points="84,733.9531,74,737.9531,84,741.9531,80,737.9531" style="stroke:#181818;stroke-width:1.0;"/><line style="stroke:#181818;stroke-width:1.0;" x1="78" x2="403" y1="737.9531" y2="737.9531"/><text fill="#000000" font-family="sans-serif" font-size="13" font-weight="bold" lengthAdjust="spacing" textLength="18" x="90" y="732.8872">14</text><text fill="#000000" font-family="sans-serif" font-size="13" lengthAdjust="spacing" textLength="132" x="112" y="732.8872">Afficher confirmation</text><!--SRC=[ZLD1Rjim4Bpp5LjTqXxwWG0EO5SN7Ng9wzpNr3fX8Iw59McWlyanUeS-5f9AMzEjqkf20PoPdPrTOWoEepsIA8KwE85jRmqR7mG3HL4ZIZ3QZCW1ceu3oGarmI6OmVW2QG0z7BeQkV_Xm_nY2Ng2-tdo96SCnd41vqkoDM67le1RnpnFv0kmtIcrsS1Mw_d5m_mC0y8Z-IoKi1xaGjd3PgDgy_3vBXcxBVof9m6CO8bZhhCgemvTvYqU4_TqClefSTsuL7cN-_Vw-taQI6S49w5cono7z1EPAdfJcjsZyQP4CTnqRJcnWkK-5tS_zLkooBc_5SQQhLnfdLJdy4sGlQKGPDLOiVymJs9IPFYMqFlkszqjt5FEjsHyZKqR0bshS0ZL4e7X82wUyJYGWlJLSVmQMRED-Zfaq4w4_EYuJtj7K8JImZL5QEcvZkj2q9Bt-9Y6SqD99BsEp14AKLWHzykovkd-V_TVbqZJRdztCGzZdWA6Dwf-GdjCjnzxansRrE-dA_u-ZgCO-sTunSmNnoSZTcLlVWTLfOkvWnG9u9aq-BYylW-D-aSw-gBOAm00]--></g></svg>