<svg xmlns="http://www.w3.org/2000/svg" xmlns:xlink="http://www.w3.org/1999/xlink" contentStyleType="text/css" data-diagram-type="DESCRIPTION" height="560px" preserveAspectRatio="none" style="width:725px;height:560px;background:#FFFFFF;" version="1.1" viewBox="0 0 725 560" width="725px" zoomAndPan="magnify"><defs/><g><!--cluster Diagramme de cas d'utilisation de gestion des r?servation d'un h?tel--><g class="cluster" data-entity="Diagramme de cas d'utilisation de gestion des r&#233;servation d'un h&#244;tel" data-source-line="4" data-uid="ent0004" id="cluster_Diagramme de cas d'utilisation de gestion des r&#233;servation d'un h&#244;tel"><rect fill="none" height="547" rx="2.5" ry="2.5" style="stroke:#181818;stroke-width:1;" width="561.47" x="157.6" y="7"/><text fill="#000000" font-family="sans-serif" font-size="14" font-weight="bold" lengthAdjust="spacing" textLength="546.4785" x="165.0957" y="21.9951">Diagramme de cas d'utilisation de gestion des r&#233;servation d'un h&#244;tel</text></g><!--entity UC1--><g class="entity" data-entity="UC1" data-source-line="5" data-uid="ent0005" id="entity_UC1"><ellipse cx="310.4116" cy="63.0003" fill="#F1F1F1" rx="93.2016" ry="21.0403" style="stroke:#181818;stroke-width:0.5;"/><text fill="#000000" font-family="sans-serif" font-size="14" lengthAdjust="spacing" textLength="160.9521" x="229.9355" y="67.6488">Passer une r&#233;servation</text></g><!--entity UC2--><g class="entity" data-entity="UC2" data-source-line="6" data-uid="ent0006" id="entity_UC2"><ellipse cx="310.4124" cy="141.0005" fill="#F1F1F1" rx="97.0024" ry="21.8005" style="stroke:#181818;stroke-width:0.5;"/><text fill="#000000" font-family="sans-serif" font-size="14" lengthAdjust="spacing" textLength="169.4287" x="225.698" y="145.6489">Annuler une r&#233;servation</text></g><!--entity UC3--><g class="entity" data-entity="UC3" data-source-line="7" data-uid="ent0007" id="entity_UC3"><ellipse cx="310.4135" cy="221.0007" fill="#F1F1F1" rx="101.8035" ry="22.7607" style="stroke:#181818;stroke-width:0.5;"/><text fill="#000000" font-family="sans-serif" font-size="14" lengthAdjust="spacing" textLength="180.0244" x="220.4013" y="225.6491">consulter une r&#233;servation</text></g><!--entity UC4--><g class="entity" data-entity="UC4" data-source-line="8" data-uid="ent0008" id="entity_UC4"><ellipse cx="310.409" cy="299.0018" fill="#F1F1F1" rx="88.109" ry="20.0218" style="stroke:#181818;stroke-width:0.5;"/><text fill="#000000" font-family="sans-serif" font-size="14" lengthAdjust="spacing" textLength="149.4473" x="235.6854" y="303.6502">Consulter l'historique</text></g><!--entity UC5--><g class="entity" data-entity="UC5" data-source-line="9" data-uid="ent0009" id="entity_UC5"><ellipse cx="602.6386" cy="298.9957" fill="#F1F1F1" rx="65.4286" ry="15.4857" style="stroke:#181818;stroke-width:0.5;"/><text fill="#000000" font-family="sans-serif" font-size="14" lengthAdjust="spacing" textLength="94.6025" x="555.3374" y="303.6442">S'authentifier</text></g><!--entity UC6--><g class="entity" data-entity="UC6" data-source-line="10" data-uid="ent0010" id="entity_UC6"><ellipse cx="310.406" cy="370.9952" fill="#F1F1F1" rx="73.076" ry="17.0152" style="stroke:#181818;stroke-width:0.5;"/><text fill="#000000" font-family="sans-serif" font-size="14" lengthAdjust="spacing" textLength="114.0303" x="253.3909" y="375.6436">G&#232;rer les clients</text></g><!--entity UC7--><g class="entity" data-entity="UC7" data-source-line="11" data-uid="ent0011" id="entity_UC7"><ellipse cx="310.4076" cy="442.0035" fill="#F1F1F1" rx="82.9676" ry="18.9935" style="stroke:#181818;stroke-width:0.5;"/><text fill="#000000" font-family="sans-serif" font-size="14" lengthAdjust="spacing" textLength="137.6211" x="241.5971" y="446.652">G&#232;rer les chambres</text></g><!--entity UC8--><g class="entity" data-entity="UC8" data-source-line="12" data-uid="ent0012" id="entity_UC8"><ellipse cx="310.406" cy="516.9972" fill="#F1F1F1" rx="90.686" ry="20.5372" style="stroke:#181818;stroke-width:0.5;"/><text fill="#000000" font-family="sans-serif" font-size="14" lengthAdjust="spacing" textLength="155.292" x="232.76" y="521.6456">G&#232;rer les r&#233;servations</text></g><!--entity Client--><g class="entity" data-entity="Client" data-source-line="2" data-uid="ent0002" id="entity_Client"><ellipse cx="58.3051" cy="151.35" fill="#F1F1F1" rx="8" ry="8" style="stroke:#181818;stroke-width:0.5;"/><path d="M58.3051,159.35 L58.3051,186.35 M45.3051,167.35 L71.3051,167.35 M58.3051,186.35 L45.3051,201.35 M58.3051,186.35 L71.3051,201.35" fill="none" style="stroke:#181818;stroke-width:0.5;"/><text fill="#000000" font-family="sans-serif" font-size="14" lengthAdjust="spacing" textLength="40.5303" x="38.04" y="215.8451">Client</text></g><!--entity Administrateur--><g class="entity" data-entity="Administrateur" data-source-line="3" data-uid="ent0003" id="entity_Administrateur"><ellipse cx="58.3018" cy="412.35" fill="#F1F1F1" rx="8" ry="8" style="stroke:#181818;stroke-width:0.5;"/><path d="M58.3018,420.35 L58.3018,447.35 M45.3018,428.35 L71.3018,428.35 M58.3018,447.35 L45.3018,462.35 M58.3018,447.35 L71.3018,462.35" fill="none" style="stroke:#181818;stroke-width:0.5;"/><text fill="#000000" font-family="sans-serif" font-size="14" lengthAdjust="spacing" textLength="104.6035" x="6" y="476.8451">Administrateur</text></g><!--link Client to UC1--><g class="link" data-entity-1="Client" data-entity-2="UC1" data-source-line="14" data-uid="lnk13" id="link_Client_UC1"><path d="M79.01,158.63 C95.99,140.72 122.06,116.31 149.6,102 C174.69,88.97 204.28,80.18 231.13,74.31" fill="none" id="Client-UC1" style="stroke:#181818;stroke-width:1;"/></g><!--link Client to UC2--><g class="link" data-entity-1="Client" data-entity-2="UC2" data-source-line="15" data-uid="lnk14" id="link_Client_UC2"><path d="M78.93,177.86 C111.17,172.7 177.08,162.16 230.19,153.67" fill="none" id="Client-UC2" style="stroke:#181818;stroke-width:1;"/></g><!--link Client to UC3--><g class="link" data-entity-1="Client" data-entity-2="UC3" data-source-line="16" data-uid="lnk15" id="link_Client_UC3"><path d="M78.93,184.14 C110.42,189.18 174.04,199.35 226.47,207.74" fill="none" id="Client-UC3" style="stroke:#181818;stroke-width:1;"/></g><!--link Client to UC4--><g class="link" data-entity-1="Client" data-entity-2="UC4" data-source-line="17" data-uid="lnk16" id="link_Client_UC4"><path d="M78.93,203.7 C95.86,221.87 121.91,246.61 149.6,261 C175.41,274.41 206.03,283.17 233.52,288.85" fill="none" id="Client-UC4" style="stroke:#181818;stroke-width:1;"/></g><!--link Administrateur to UC6--><g class="link" data-entity-1="Administrateur" data-entity-2="UC6" data-source-line="18" data-uid="lnk17" id="link_Administrateur_UC6"><path d="M110.83,419.77 C123.38,414.83 136.86,409.91 149.6,406 C182.87,395.8 220.89,387.35 251.5,381.31" fill="none" id="Administrateur-UC6" style="stroke:#181818;stroke-width:1;"/></g><!--link Administrateur to UC7--><g class="link" data-entity-1="Administrateur" data-entity-2="UC7" data-source-line="19" data-uid="lnk18" id="link_Administrateur_UC7"><path d="M110.82,442 C144.28,442 188.64,442 226.94,442" fill="none" id="Administrateur-UC7" style="stroke:#181818;stroke-width:1;"/></g><!--link Administrateur to UC8--><g class="link" data-entity-1="Administrateur" data-entity-2="UC8" data-source-line="20" data-uid="lnk19" id="link_Administrateur_UC8"><path d="M110.9,464.01 C123.44,468.96 136.9,473.94 149.6,478 C179.8,487.65 213.85,496.26 242.74,502.93" fill="none" id="Administrateur-UC8" style="stroke:#181818;stroke-width:1;"/></g><!--link UC1 to UC5--><g class="link" data-entity-1="UC1" data-entity-2="UC5" data-source-line="21" data-uid="lnk20" id="link_UC1_UC5"><path d="M364.36,80.54 C380.14,86.54 397.21,93.83 412.21,102 C458.04,126.96 470.17,134.24 507.21,171 C543.47,206.99 573.5017,252.6962 589.1017,278.1162" fill="none" id="UC1-to-UC5" style="stroke:#181818;stroke-width:1;stroke-dasharray:7.0,7.0;"/><polygon fill="#181818" points="592.24,283.23,590.9418,273.4671,589.6248,278.9685,584.1233,277.6515,592.24,283.23" style="stroke:#181818;stroke-width:1;"/><text fill="#000000" font-family="sans-serif" font-size="13" lengthAdjust="spacing" textLength="63.0068" x="443.21" y="116.0669">&#171;include&#187;</text></g><!--link UC2 to UC5--><g class="link" data-entity-1="UC2" data-entity-2="UC5" data-source-line="22" data-uid="lnk21" id="link_UC2_UC5"><path d="M362.43,159.84 C378.54,166.16 396.28,173.51 412.21,181 C455.77,201.47 466.31,207.62 507.21,233 C533.55,249.35 557.7742,266.5383 576.6042,280.3683" fill="none" id="UC2-to-UC5" style="stroke:#181818;stroke-width:1;stroke-dasharray:7.0,7.0;"/><polygon fill="#181818" points="581.44,283.92,576.5541,275.3685,577.4102,280.9602,571.8184,281.8163,581.44,283.92" style="stroke:#181818;stroke-width:1;"/><text fill="#000000" font-family="sans-serif" font-size="13" lengthAdjust="spacing" textLength="63.0068" x="443.21" y="192.0669">&#171;include&#187;</text></g><!--link UC3 to UC5--><g class="link" data-entity-1="UC3" data-entity-2="UC5" data-source-line="23" data-uid="lnk22" id="link_UC3_UC5"><path d="M376.9,238.6 C432.24,253.47 504.1657,272.8025 552.1957,285.7125" fill="none" id="UC3-to-UC5" style="stroke:#181818;stroke-width:1;stroke-dasharray:7.0,7.0;"/><polygon fill="#181818" points="557.99,287.27,550.3368,281.0709,553.1614,285.9721,548.2602,288.7967,557.99,287.27" style="stroke:#181818;stroke-width:1;"/><text fill="#000000" font-family="sans-serif" font-size="13" lengthAdjust="spacing" textLength="63.0068" x="443.21" y="254.0669">&#171;include&#187;</text></g><!--link UC4 to UC5--><g class="link" data-entity-1="UC4" data-entity-2="UC5" data-source-line="24" data-uid="lnk23" id="link_UC4_UC5"><path d="M398.88,299 C443.28,299 490.27,299 530.94,299" fill="none" id="UC4-to-UC5" style="stroke:#181818;stroke-width:1;stroke-dasharray:7.0,7.0;"/><polygon fill="#181818" points="536.94,299,527.94,295,531.94,299,527.94,303,536.94,299" style="stroke:#181818;stroke-width:1;"/><text fill="#000000" font-family="sans-serif" font-size="13" lengthAdjust="spacing" textLength="63.0068" x="443.21" y="295.0669">&#171;include&#187;</text></g><!--link UC6 to UC5--><g class="link" data-entity-1="UC6" data-entity-2="UC5" data-source-line="25" data-uid="lnk24" id="link_UC6_UC5"><path d="M363.43,358.86 C402.94,349.56 458.57,336.28 507.21,324 C523.98,319.77 536.5821,316.4842 552.6521,312.2042" fill="none" id="UC6-to-UC5" style="stroke:#181818;stroke-width:1;stroke-dasharray:7.0,7.0;"/><polygon fill="#181818" points="558.45,310.66,548.7237,309.111,553.6184,311.9468,550.7826,316.8415,558.45,310.66" style="stroke:#181818;stroke-width:1;"/><text fill="#000000" font-family="sans-serif" font-size="13" lengthAdjust="spacing" textLength="63.0068" x="443.21" y="320.0669">&#171;include&#187;</text></g><!--link UC7 to UC5--><g class="link" data-entity-1="UC7" data-entity-2="UC5" data-source-line="26" data-uid="lnk25" id="link_UC7_UC5"><path d="M360.93,426.65 C401.54,413.1 459.84,391.42 507.21,365 C534.64,349.71 559.1797,332.0023 577.7397,317.7623" fill="none" id="UC7-to-UC5" style="stroke:#181818;stroke-width:1;stroke-dasharray:7.0,7.0;"/><polygon fill="#181818" points="582.5,314.11,572.9247,316.4149,578.5331,317.1536,577.7944,322.762,582.5,314.11" style="stroke:#181818;stroke-width:1;"/><text fill="#000000" font-family="sans-serif" font-size="13" lengthAdjust="spacing" textLength="63.0068" x="443.21" y="361.0669">&#171;include&#187;</text></g><!--link UC8 to UC5--><g class="link" data-entity-1="UC8" data-entity-2="UC5" data-source-line="27" data-uid="lnk26" id="link_UC8_UC5"><path d="M364.18,500.03 C406.42,484.48 465.32,458.21 507.21,421 C544.06,388.27 573.5468,344.6623 589.0068,319.8523" fill="none" id="UC8-to-UC5" style="stroke:#181818;stroke-width:1;stroke-dasharray:7.0,7.0;"/><polygon fill="#181818" points="592.18,314.76,584.0254,320.2829,589.5357,319.0035,590.8151,324.5138,592.18,314.76" style="stroke:#181818;stroke-width:1;"/><text fill="#000000" font-family="sans-serif" font-size="13" lengthAdjust="spacing" textLength="63.0068" x="443.21" y="417.0669">&#171;include&#187;</text></g><!--SRC=[TP5DQiCm48NtEiMGZLS9r7PjKu8XkD1jeVG0gZon1sIPwgURqlkq-zx05wkSE4K6QwStxzCJyoJnRC6EeAdhBRIaKLWQ5UF2ZXeQIQZi8axjG8gCrToYqsmckUeamkwHUAVvC22q288RQ1DdIPBXSzOyxD0iHmDw-Z6eFnOlSGhwwTUYtC4d0t06VO8FVUR6O-0KhcximEU_DdSXUbBAoJYRXgmObN7Inkaif9j_MYQztttKzEvm8VEGV4cuixrlYyw4UY7kG-9f-jPpaAz0N7er2rN4g9uFRnflM1d1mXrkRCM-sFNpOB-_r1MgTAMobShP-f-lqs9pMcvEA-RVWyEXdWk01pWUIGdfMgnhxwHH9uiwUTGfeauPTQfjvmy0]--></g></svg>