<svg xmlns="http://www.w3.org/2000/svg" xmlns:xlink="http://www.w3.org/1999/xlink" contentStyleType="text/css" height="602px" preserveAspectRatio="none" style="width:828px;height:602px;background:#FFFFFF;" version="1.1" viewBox="0 0 828 602" width="828px" zoomAndPan="magnify"><defs/><g><ellipse cx="421.5" cy="20" fill="#222222" rx="10" ry="10" style="stroke:#222222;stroke-width:1.0;"/><rect fill="#F1F1F1" height="33.9688" rx="12.5" ry="12.5" style="stroke:#181818;stroke-width:0.5;" width="175" x="334" y="50"/><text fill="#000000" font-family="sans-serif" font-size="12" lengthAdjust="spacing" textLength="155" x="344" y="71.1387">Administrateur connect&#233;</text><rect fill="#F1F1F1" height="33.9688" rx="12.5" ry="12.5" style="stroke:#181818;stroke-width:0.5;" width="286" x="278.5" y="103.9688"/><text fill="#000000" font-family="sans-serif" font-size="12" lengthAdjust="spacing" textLength="266" x="288.5" y="125.1074">Afficher menu de gestion des r&#233;servations</text><rect fill="#F1F1F1" height="33.9688" rx="12.5" ry="12.5" style="stroke:#181818;stroke-width:0.5;" width="354" x="244.5" y="157.9375"/><text fill="#000000" font-family="sans-serif" font-size="12" lengthAdjust="spacing" textLength="334" x="254.5" y="179.0762">Administrateur s&#233;lectionne "Annuler une r&#233;servation"</text><rect fill="#F1F1F1" height="33.9688" rx="12.5" ry="12.5" style="stroke:#181818;stroke-width:0.5;" width="217" x="313" y="211.9063"/><text fill="#000000" font-family="sans-serif" font-size="12" lengthAdjust="spacing" textLength="197" x="323" y="233.0449">Demander l'ID de la r&#233;servation</text><rect fill="#F1F1F1" height="33.9688" rx="12.5" ry="12.5" style="stroke:#181818;stroke-width:0.5;" width="281" x="281" y="265.875"/><text fill="#000000" font-family="sans-serif" font-size="12" lengthAdjust="spacing" textLength="261" x="291" y="287.0137">Administrateur saisit l'ID de la r&#233;servation</text><rect fill="#F1F1F1" height="33.9688" rx="12.5" ry="12.5" style="stroke:#181818;stroke-width:0.5;" width="182" x="330.5" y="319.8438"/><text fill="#000000" font-family="sans-serif" font-size="12" lengthAdjust="spacing" textLength="162" x="340.5" y="340.9824">Rechercher la r&#233;servation</text><polygon fill="#F1F1F1" points="359.5,373.8125,483.5,373.8125,495.5,385.8125,483.5,397.8125,359.5,397.8125,347.5,385.8125,359.5,373.8125" style="stroke:#181818;stroke-width:0.5;"/><text fill="#000000" font-family="sans-serif" font-size="11" lengthAdjust="spacing" textLength="124" x="359.5" y="389.6206">R&#233;servation trouv&#233;e ?</text><text fill="#000000" font-family="sans-serif" font-size="11" lengthAdjust="spacing" textLength="22" x="325.5" y="383.2183">Non</text><text fill="#000000" font-family="sans-serif" font-size="11" lengthAdjust="spacing" textLength="19" x="495.5" y="383.2183">Oui</text><rect fill="#F1F1F1" height="33.9688" rx="12.5" ry="12.5" style="stroke:#181818;stroke-width:0.5;" width="408" x="11" y="407.8125"/><text fill="#000000" font-family="sans-serif" font-size="12" lengthAdjust="spacing" textLength="388" x="21" y="428.9512">Afficher erreur "Aucune r&#233;servation correspondante trouv&#233;e!"</text><ellipse cx="215" cy="472.7813" fill="none" rx="11" ry="11" style="stroke:#222222;stroke-width:1.0;"/><ellipse cx="215" cy="472.7813" fill="#222222" rx="6" ry="6" style="stroke:#222222;stroke-width:1.0;"/><rect fill="#F1F1F1" height="33.9688" rx="12.5" ry="12.5" style="stroke:#181818;stroke-width:0.5;" width="309" x="473.5" y="407.8125"/><text fill="#000000" font-family="sans-serif" font-size="12" lengthAdjust="spacing" textLength="289" x="483.5" y="428.9512">Mettre &#224; jour l'&#233;tat de la chambre (disponible)</text><rect fill="#F1F1F1" height="33.9688" rx="12.5" ry="12.5" style="stroke:#181818;stroke-width:0.5;" width="250" x="503" y="461.7813"/><text fill="#000000" font-family="sans-serif" font-size="12" lengthAdjust="spacing" textLength="230" x="513" y="482.9199">Supprimer la r&#233;servation du syst&#232;me</text><rect fill="#F1F1F1" height="33.9688" rx="12.5" ry="12.5" style="stroke:#181818;stroke-width:0.5;" width="378" x="439" y="515.75"/><text fill="#000000" font-family="sans-serif" font-size="12" lengthAdjust="spacing" textLength="358" x="449" y="536.8887">Afficher confirmation "R&#233;servation annul&#233;e avec succ&#232;s!"</text><ellipse cx="421.5" cy="580.7188" fill="none" rx="11" ry="11" style="stroke:#222222;stroke-width:1.0;"/><ellipse cx="421.5" cy="580.7188" fill="#222222" rx="6" ry="6" style="stroke:#222222;stroke-width:1.0;"/><line style="stroke:#181818;stroke-width:1.0;" x1="421.5" x2="421.5" y1="30" y2="50"/><polygon fill="#181818" points="417.5,40,421.5,50,425.5,40,421.5,44" style="stroke:#181818;stroke-width:1.0;"/><line style="stroke:#181818;stroke-width:1.0;" x1="421.5" x2="421.5" y1="83.9688" y2="103.9688"/><polygon fill="#181818" points="417.5,93.9688,421.5,103.9688,425.5,93.9688,421.5,97.9688" style="stroke:#181818;stroke-width:1.0;"/><line style="stroke:#181818;stroke-width:1.0;" x1="421.5" x2="421.5" y1="137.9375" y2="157.9375"/><polygon fill="#181818" points="417.5,147.9375,421.5,157.9375,425.5,147.9375,421.5,151.9375" style="stroke:#181818;stroke-width:1.0;"/><line style="stroke:#181818;stroke-width:1.0;" x1="421.5" x2="421.5" y1="191.9063" y2="211.9063"/><polygon fill="#181818" points="417.5,201.9063,421.5,211.9063,425.5,201.9063,421.5,205.9063" style="stroke:#181818;stroke-width:1.0;"/><line style="stroke:#181818;stroke-width:1.0;" x1="421.5" x2="421.5" y1="245.875" y2="265.875"/><polygon fill="#181818" points="417.5,255.875,421.5,265.875,425.5,255.875,421.5,259.875" style="stroke:#181818;stroke-width:1.0;"/><line style="stroke:#181818;stroke-width:1.0;" x1="421.5" x2="421.5" y1="299.8438" y2="319.8438"/><polygon fill="#181818" points="417.5,309.8438,421.5,319.8438,425.5,309.8438,421.5,313.8438" style="stroke:#181818;stroke-width:1.0;"/><line style="stroke:#181818;stroke-width:1.0;" x1="215" x2="215" y1="441.7813" y2="461.7813"/><polygon fill="#181818" points="211,451.7813,215,461.7813,219,451.7813,215,455.7813" style="stroke:#181818;stroke-width:1.0;"/><line style="stroke:#181818;stroke-width:1.0;" x1="628" x2="628" y1="441.7813" y2="461.7813"/><polygon fill="#181818" points="624,451.7813,628,461.7813,632,451.7813,628,455.7813" style="stroke:#181818;stroke-width:1.0;"/><line style="stroke:#181818;stroke-width:1.0;" x1="628" x2="628" y1="495.75" y2="515.75"/><polygon fill="#181818" points="624,505.75,628,515.75,632,505.75,628,509.75" style="stroke:#181818;stroke-width:1.0;"/><line style="stroke:#181818;stroke-width:1.0;" x1="347.5" x2="215" y1="385.8125" y2="385.8125"/><line style="stroke:#181818;stroke-width:1.0;" x1="215" x2="215" y1="385.8125" y2="407.8125"/><polygon fill="#181818" points="211,397.8125,215,407.8125,219,397.8125,215,401.8125" style="stroke:#181818;stroke-width:1.0;"/><line style="stroke:#181818;stroke-width:1.0;" x1="495.5" x2="628" y1="385.8125" y2="385.8125"/><line style="stroke:#181818;stroke-width:1.0;" x1="628" x2="628" y1="385.8125" y2="407.8125"/><polygon fill="#181818" points="624,397.8125,628,407.8125,632,397.8125,628,401.8125" style="stroke:#181818;stroke-width:1.0;"/><line style="stroke:#181818;stroke-width:1.0;" x1="628" x2="628" y1="549.7188" y2="554.7188"/><line style="stroke:#181818;stroke-width:1.0;" x1="628" x2="421.5" y1="554.7188" y2="554.7188"/><line style="stroke:#181818;stroke-width:1.0;" x1="421.5" x2="421.5" y1="554.7188" y2="569.7188"/><polygon fill="#181818" points="417.5,559.7188,421.5,569.7188,425.5,559.7188,421.5,563.7188" style="stroke:#181818;stroke-width:1.0;"/><line style="stroke:#181818;stroke-width:1.0;" x1="421.5" x2="421.5" y1="353.8125" y2="373.8125"/><polygon fill="#181818" points="417.5,363.8125,421.5,373.8125,425.5,363.8125,421.5,367.8125" style="stroke:#181818;stroke-width:1.0;"/><!--SRC=[TP5DRiCW48Ntd6BgJPqhs8igKZPTj9NI4n0ODrCPi9Z1Kc_JPNmEBbPeeZO_BIlW3H_lpR3eA4frQ-l84qlKWYc22TwZaRpqHHe6CdkCuD0di0Xlo4B1bor3p0jZd7MzuFw6mtaP2uSg3fgrzsaie5GEvm-RlZZOeDFU5dMyVzpKRqPzKVG7N1EJ_5-lkYrMuz_cRrGQeDsUtO34aEQy83oiGFReeNqEVgMWhDyUO8prwsQTp7MAqhGYyXIyrLxmXtTNubK8IvWKZepGlYGwWPzG92BaJtWFgMRFYsWvnJ5xxNP5RIrLBEr6N1rPtMkQfaZkDXZO1Fp1aWyE-olpPQe3HNUiQox2wpgQ6bxFQ82JCVd0rJbwIuDIrVmN]--></g></svg>