<svg xmlns="http://www.w3.org/2000/svg" xmlns:xlink="http://www.w3.org/1999/xlink" contentStyleType="text/css" data-diagram-type="SEQUENCE" height="1245px" preserveAspectRatio="none" style="width:1305px;height:1245px;background:#FFFFFF;" version="1.1" viewBox="0 0 1305 1245" width="1305px" zoomAndPan="magnify"><defs/><g><rect fill="none" height="104.5313" style="stroke:#000000;stroke-width:1.5;" width="990.1387" x="10" y="473.7578"/><rect fill="none" height="104.5313" style="stroke:#000000;stroke-width:1.5;" width="990.1387" x="10" y="621.4219"/><rect fill="none" height="104.5313" style="stroke:#000000;stroke-width:1.5;" width="990.1387" x="10" y="769.0859"/><g><title>Administrateur</title><rect fill="#000000" fill-opacity="0.00000" height="1083.3828" width="8" x="71.3018" y="81.2969"/><line style="stroke:#181818;stroke-width:0.5;stroke-dasharray:5.0,5.0;" x1="75" x2="75" y1="81.2969" y2="1164.6797"/></g><g><title>Interface Utilisateur</title><rect fill="#000000" fill-opacity="0.00000" height="1083.3828" width="8" x="323.3105" y="81.2969"/><line style="stroke:#181818;stroke-width:0.5;stroke-dasharray:5.0,5.0;" x1="326.7412" x2="326.7412" y1="81.2969" y2="1164.6797"/></g><g><title>Syst&#232;me de R&#233;servation</title><rect fill="#000000" fill-opacity="0.00000" height="1083.3828" width="8" x="893.686" y="81.2969"/><line style="stroke:#181818;stroke-width:0.5;stroke-dasharray:5.0,5.0;" x1="897.2334" x2="897.2334" y1="81.2969" y2="1164.6797"/></g><g><title>Base de Donn&#233;es</title><rect fill="#000000" fill-opacity="0.00000" height="1083.3828" width="8" x="1221.0479" y="81.2969"/><line style="stroke:#181818;stroke-width:0.5;stroke-dasharray:5.0,5.0;" x1="1224.9961" x2="1224.9961" y1="81.2969" y2="1164.6797"/></g><g class="participant participant-head" data-participant="Administrateur"><text fill="#000000" font-family="sans-serif" font-size="14" lengthAdjust="spacing" textLength="104.6035" x="20" y="77.9951">Administrateur</text><ellipse cx="75.3018" cy="13.5" fill="#E2E2F0" rx="8" ry="8" style="stroke:#181818;stroke-width:0.5;"/><path d="M75.3018,21.5 L75.3018,48.5 M62.3018,29.5 L88.3018,29.5 M75.3018,48.5 L62.3018,63.5 M75.3018,48.5 L88.3018,63.5" fill="none" style="stroke:#181818;stroke-width:0.5;"/></g><g class="participant participant-tail" data-participant="Administrateur"><text fill="#000000" font-family="sans-serif" font-size="14" lengthAdjust="spacing" textLength="104.6035" x="20" y="1176.6748">Administrateur</text><ellipse cx="75.3018" cy="1188.4766" fill="#E2E2F0" rx="8" ry="8" style="stroke:#181818;stroke-width:0.5;"/><path d="M75.3018,1196.4766 L75.3018,1223.4766 M62.3018,1204.4766 L88.3018,1204.4766 M75.3018,1223.4766 L62.3018,1238.4766 M75.3018,1223.4766 L88.3018,1238.4766" fill="none" style="stroke:#181818;stroke-width:0.5;"/></g><g class="participant participant-head" data-participant="UI"><rect fill="#E2E2F0" height="30.2969" rx="2.5" ry="2.5" style="stroke:#181818;stroke-width:0.5;" width="153.1387" x="250.7412" y="50"/><text fill="#000000" font-family="sans-serif" font-size="14" lengthAdjust="spacing" textLength="139.1387" x="257.7412" y="69.9951">Interface Utilisateur</text></g><g class="participant participant-tail" data-participant="UI"><rect fill="#E2E2F0" height="30.2969" rx="2.5" ry="2.5" style="stroke:#181818;stroke-width:0.5;" width="153.1387" x="250.7412" y="1163.6797"/><text fill="#000000" font-family="sans-serif" font-size="14" lengthAdjust="spacing" textLength="139.1387" x="257.7412" y="1183.6748">Interface Utilisateur</text></g><g class="participant participant-head" data-participant="System"><rect fill="#E2E2F0" height="30.2969" rx="2.5" ry="2.5" style="stroke:#181818;stroke-width:0.5;" width="184.9053" x="805.2334" y="50"/><text fill="#000000" font-family="sans-serif" font-size="14" lengthAdjust="spacing" textLength="170.9053" x="812.2334" y="69.9951">Syst&#232;me de R&#233;servation</text></g><g class="participant participant-tail" data-participant="System"><rect fill="#E2E2F0" height="30.2969" rx="2.5" ry="2.5" style="stroke:#181818;stroke-width:0.5;" width="184.9053" x="805.2334" y="1163.6797"/><text fill="#000000" font-family="sans-serif" font-size="14" lengthAdjust="spacing" textLength="170.9053" x="812.2334" y="1183.6748">Syst&#232;me de R&#233;servation</text></g><g class="participant participant-head" data-participant="DB"><rect fill="#E2E2F0" height="30.2969" rx="2.5" ry="2.5" style="stroke:#181818;stroke-width:0.5;" width="136.1035" x="1156.9961" y="50"/><text fill="#000000" font-family="sans-serif" font-size="14" lengthAdjust="spacing" textLength="122.1035" x="1163.9961" y="69.9951">Base de Donn&#233;es</text></g><g class="participant participant-tail" data-participant="DB"><rect fill="#E2E2F0" height="30.2969" rx="2.5" ry="2.5" style="stroke:#181818;stroke-width:0.5;" width="136.1035" x="1156.9961" y="1163.6797"/><text fill="#000000" font-family="sans-serif" font-size="14" lengthAdjust="spacing" textLength="122.1035" x="1163.9961" y="1183.6748">Base de Donn&#233;es</text></g><rect fill="#EEEEEE" height="3" style="stroke:#EEEEEE;stroke-width:1;" width="1298.0996" x="0" y="111.8633"/><line style="stroke:#000000;stroke-width:1;" x1="0" x2="1298.0996" y1="111.8633" y2="111.8633"/><line style="stroke:#000000;stroke-width:1;" x1="0" x2="1298.0996" y1="114.8633" y2="114.8633"/><rect fill="#EEEEEE" height="23.1328" style="stroke:#000000;stroke-width:2;" width="198.5073" x="549.7961" y="101.2969"/><text fill="#000000" font-family="sans-serif" font-size="13" font-weight="bold" lengthAdjust="spacing" textLength="179.9814" x="555.7961" y="117.3638">Acc&#232;s &#224; la fonctionnalit&#233;</text><g class="message" data-participant-1="Administrateur" data-participant-2="UI"><polygon fill="#181818" points="315.3105,151.5625,325.3105,155.5625,315.3105,159.5625,319.3105,155.5625" style="stroke:#181818;stroke-width:1;"/><line style="stroke:#181818;stroke-width:1;" x1="75.3018" x2="321.3105" y1="155.5625" y2="155.5625"/><text fill="#000000" font-family="sans-serif" font-size="13" font-weight="bold" lengthAdjust="spacing" textLength="9.0454" x="82.3018" y="150.4966">1</text><text fill="#000000" font-family="sans-serif" font-size="13" lengthAdjust="spacing" textLength="214.9634" x="95.3472" y="150.4966">Acc&#233;der au menu "R&#233;servations"</text></g><g class="message" data-participant-1="UI" data-participant-2="System"><polygon fill="#181818" points="885.686,180.6953,895.686,184.6953,885.686,188.6953,889.686,184.6953" style="stroke:#181818;stroke-width:1;"/><line style="stroke:#181818;stroke-width:1;" x1="327.3105" x2="891.686" y1="184.6953" y2="184.6953"/><text fill="#000000" font-family="sans-serif" font-size="13" font-weight="bold" lengthAdjust="spacing" textLength="9.0454" x="334.3105" y="179.6294">2</text><text fill="#000000" font-family="sans-serif" font-size="13" lengthAdjust="spacing" textLength="143" x="347.356" y="179.6294">Demander les options</text></g><g class="message" data-participant-1="Administrateur" data-participant-2="UI"><polygon fill="#181818" points="315.3105,209.8281,325.3105,213.8281,315.3105,217.8281,319.3105,213.8281" style="stroke:#181818;stroke-width:1;"/><line style="stroke:#181818;stroke-width:1;" x1="75.3018" x2="321.3105" y1="213.8281" y2="213.8281"/><text fill="#000000" font-family="sans-serif" font-size="13" font-weight="bold" lengthAdjust="spacing" textLength="9.0454" x="82.3018" y="208.7622">3</text><text fill="#000000" font-family="sans-serif" font-size="13" lengthAdjust="spacing" textLength="214.6016" x="95.3472" y="208.7622">Choisir "Ajouter une r&#233;servation"</text></g><g class="message" data-participant-1="UI" data-participant-2="System"><polygon fill="#181818" points="885.686,238.9609,895.686,242.9609,885.686,246.9609,889.686,242.9609" style="stroke:#181818;stroke-width:1;"/><line style="stroke:#181818;stroke-width:1;" x1="327.3105" x2="891.686" y1="242.9609" y2="242.9609"/><text fill="#000000" font-family="sans-serif" font-size="13" font-weight="bold" lengthAdjust="spacing" textLength="9.0454" x="334.3105" y="237.895">4</text><text fill="#000000" font-family="sans-serif" font-size="13" lengthAdjust="spacing" textLength="238.4497" x="347.356" y="237.895">Demander formulaire de r&#233;servation</text></g><rect fill="#EEEEEE" height="3" style="stroke:#EEEEEE;stroke-width:1;" width="1298.0996" x="0" y="271.5273"/><line style="stroke:#000000;stroke-width:1;" x1="0" x2="1298.0996" y1="271.5273" y2="271.5273"/><line style="stroke:#000000;stroke-width:1;" x1="0" x2="1298.0996" y1="274.5273" y2="274.5273"/><rect fill="#EEEEEE" height="23.1328" style="stroke:#000000;stroke-width:2;" width="279.8271" x="509.1362" y="260.9609"/><text fill="#000000" font-family="sans-serif" font-size="13" font-weight="bold" lengthAdjust="spacing" textLength="261.3013" x="515.1362" y="277.0278">Remplissage et envoi du formulaire</text><g class="message" data-participant-1="System" data-participant-2="UI"><polygon fill="#181818" points="338.3105,311.2266,328.3105,315.2266,338.3105,319.2266,334.3105,315.2266" style="stroke:#181818;stroke-width:1;"/><line style="stroke:#181818;stroke-width:1;" x1="332.3105" x2="896.686" y1="315.2266" y2="315.2266"/><text fill="#000000" font-family="sans-serif" font-size="13" font-weight="bold" lengthAdjust="spacing" textLength="9.0454" x="344.3105" y="310.1606">5</text><text fill="#000000" font-family="sans-serif" font-size="13" lengthAdjust="spacing" textLength="533.3301" x="357.356" y="310.1606">Afficher formulaire (ID client, ID chambre, nb adultes, enfants, type s&#233;jour, dates)</text></g><g class="message" data-participant-1="Administrateur" data-participant-2="UI"><polygon fill="#181818" points="315.3105,340.3594,325.3105,344.3594,315.3105,348.3594,319.3105,344.3594" style="stroke:#181818;stroke-width:1;"/><line style="stroke:#181818;stroke-width:1;" x1="75.3018" x2="321.3105" y1="344.3594" y2="344.3594"/><text fill="#000000" font-family="sans-serif" font-size="13" font-weight="bold" lengthAdjust="spacing" textLength="9.0454" x="82.3018" y="339.2935">6</text><text fill="#000000" font-family="sans-serif" font-size="13" lengthAdjust="spacing" textLength="144.2378" x="95.3472" y="339.2935">Saisir les informations</text></g><g class="message" data-participant-1="UI" data-participant-2="System"><polygon fill="#181818" points="885.686,369.4922,895.686,373.4922,885.686,377.4922,889.686,373.4922" style="stroke:#181818;stroke-width:1;"/><line style="stroke:#181818;stroke-width:1;" x1="327.3105" x2="891.686" y1="373.4922" y2="373.4922"/><text fill="#000000" font-family="sans-serif" font-size="13" font-weight="bold" lengthAdjust="spacing" textLength="9.0454" x="334.3105" y="368.4263">7</text><text fill="#000000" font-family="sans-serif" font-size="13" lengthAdjust="spacing" textLength="210.2026" x="347.356" y="368.4263">Transmettre les donn&#233;es saisies</text></g><rect fill="#EEEEEE" height="3" style="stroke:#EEEEEE;stroke-width:1;" width="1298.0996" x="0" y="402.0586"/><line style="stroke:#000000;stroke-width:1;" x1="0" x2="1298.0996" y1="402.0586" y2="402.0586"/><line style="stroke:#000000;stroke-width:1;" x1="0" x2="1298.0996" y1="405.0586" y2="405.0586"/><rect fill="#EEEEEE" height="23.1328" style="stroke:#000000;stroke-width:2;" width="239.4116" x="529.344" y="391.4922"/><text fill="#000000" font-family="sans-serif" font-size="13" font-weight="bold" lengthAdjust="spacing" textLength="220.8857" x="535.344" y="407.5591">V&#233;rification des pr&#233;conditions</text><g class="message" data-participant-1="System" data-participant-2="System"><line style="stroke:#181818;stroke-width:1;" x1="897.686" x2="939.686" y1="445.7578" y2="445.7578"/><line style="stroke:#181818;stroke-width:1;" x1="939.686" x2="939.686" y1="445.7578" y2="458.7578"/><line style="stroke:#181818;stroke-width:1;" x1="898.686" x2="939.686" y1="458.7578" y2="458.7578"/><polygon fill="#181818" points="908.686,454.7578,898.686,458.7578,908.686,462.7578,904.686,458.7578" style="stroke:#181818;stroke-width:1;"/><text fill="#000000" font-family="sans-serif" font-size="13" font-weight="bold" lengthAdjust="spacing" textLength="9.0454" x="904.686" y="440.6919">8</text><text fill="#000000" font-family="sans-serif" font-size="13" lengthAdjust="spacing" textLength="225.1831" x="917.7314" y="440.6919">V&#233;rifier que date_fin &gt; date_debut</text></g><path d="M10,473.7578 L74.4429,473.7578 L74.4429,480.8906 L64.4429,490.8906 L10,490.8906 L10,473.7578" fill="#EEEEEE" style="stroke:#000000;stroke-width:1.5;"/><rect fill="none" height="104.5313" style="stroke:#000000;stroke-width:1.5;" width="990.1387" x="10" y="473.7578"/><text fill="#000000" font-family="sans-serif" font-size="13" font-weight="bold" lengthAdjust="spacing" textLength="19.4429" x="25" y="486.8247">alt</text><text fill="#000000" font-family="sans-serif" font-size="11" font-weight="bold" lengthAdjust="spacing" textLength="130.6572" x="89.4429" y="485.9683">[Dates incoh&#233;rentes]</text><g class="message" data-participant-1="System" data-participant-2="UI"><polygon fill="#181818" points="338.3105,508.0234,328.3105,512.0234,338.3105,516.0234,334.3105,512.0234" style="stroke:#181818;stroke-width:1;"/><line style="stroke:#181818;stroke-width:1;" x1="332.3105" x2="896.686" y1="512.0234" y2="512.0234"/><text fill="#000000" font-family="sans-serif" font-size="13" font-weight="bold" lengthAdjust="spacing" textLength="9.0454" x="344.3105" y="506.9575">9</text><text fill="#000000" font-family="sans-serif" font-size="13" lengthAdjust="spacing" textLength="193.6099" x="357.356" y="506.9575">Afficher "Date de fin invalide"</text></g><g class="message" data-participant-1="UI" data-participant-2="Administrateur"><polygon fill="#181818" points="86.3018,537.1563,76.3018,541.1563,86.3018,545.1563,82.3018,541.1563" style="stroke:#181818;stroke-width:1;"/><line style="stroke:#181818;stroke-width:1;" x1="80.3018" x2="326.3105" y1="541.1563" y2="541.1563"/><text fill="#000000" font-family="sans-serif" font-size="13" font-weight="bold" lengthAdjust="spacing" textLength="18.0908" x="92.3018" y="536.0903">10</text><text fill="#000000" font-family="sans-serif" font-size="13" lengthAdjust="spacing" textLength="113.7627" x="114.3926" y="536.0903">Message d&#8217;erreur</text></g><g class="message" data-participant-1="Administrateur" data-participant-2="UI"><polygon fill="#181818" points="315.3105,566.2891,325.3105,570.2891,315.3105,574.2891,319.3105,570.2891" style="stroke:#181818;stroke-width:1;"/><line style="stroke:#181818;stroke-width:1;stroke-dasharray:2.0,2.0;" x1="75.3018" x2="321.3105" y1="570.2891" y2="570.2891"/><text fill="#000000" font-family="sans-serif" font-size="13" font-weight="bold" lengthAdjust="spacing" textLength="18.0908" x="82.3018" y="565.2231">11</text><text fill="#000000" font-family="sans-serif" font-size="13" lengthAdjust="spacing" textLength="4.1323" x="104.3926" y="565.2231">&#160;</text></g><g class="message" data-participant-1="System" data-participant-2="DB"><polygon fill="#181818" points="1213.0479,602.4219,1223.0479,606.4219,1213.0479,610.4219,1217.0479,606.4219" style="stroke:#181818;stroke-width:1;"/><line style="stroke:#181818;stroke-width:1;" x1="897.686" x2="1219.0479" y1="606.4219" y2="606.4219"/><text fill="#000000" font-family="sans-serif" font-size="13" font-weight="bold" lengthAdjust="spacing" textLength="18.0908" x="904.686" y="601.356">12</text><text fill="#000000" font-family="sans-serif" font-size="13" lengthAdjust="spacing" textLength="174.5288" x="926.7769" y="601.356">V&#233;rifier existence du client</text></g><path d="M10,621.4219 L74.4429,621.4219 L74.4429,628.5547 L64.4429,638.5547 L10,638.5547 L10,621.4219" fill="#EEEEEE" style="stroke:#000000;stroke-width:1.5;"/><rect fill="none" height="104.5313" style="stroke:#000000;stroke-width:1.5;" width="990.1387" x="10" y="621.4219"/><text fill="#000000" font-family="sans-serif" font-size="13" font-weight="bold" lengthAdjust="spacing" textLength="19.4429" x="25" y="634.4888">alt</text><text fill="#000000" font-family="sans-serif" font-size="11" font-weight="bold" lengthAdjust="spacing" textLength="112.2935" x="89.4429" y="633.6323">[Client inexistant]</text><g class="message" data-participant-1="System" data-participant-2="UI"><polygon fill="#181818" points="338.3105,655.6875,328.3105,659.6875,338.3105,663.6875,334.3105,659.6875" style="stroke:#181818;stroke-width:1;"/><line style="stroke:#181818;stroke-width:1;" x1="332.3105" x2="896.686" y1="659.6875" y2="659.6875"/><text fill="#000000" font-family="sans-serif" font-size="13" font-weight="bold" lengthAdjust="spacing" textLength="18.0908" x="344.3105" y="654.6216">13</text><text fill="#000000" font-family="sans-serif" font-size="13" lengthAdjust="spacing" textLength="159.231" x="366.4014" y="654.6216">Afficher "Client invalide"</text></g><g class="message" data-participant-1="UI" data-participant-2="Administrateur"><polygon fill="#181818" points="86.3018,684.8203,76.3018,688.8203,86.3018,692.8203,82.3018,688.8203" style="stroke:#181818;stroke-width:1;"/><line style="stroke:#181818;stroke-width:1;" x1="80.3018" x2="326.3105" y1="688.8203" y2="688.8203"/><text fill="#000000" font-family="sans-serif" font-size="13" font-weight="bold" lengthAdjust="spacing" textLength="18.0908" x="92.3018" y="683.7544">14</text><text fill="#000000" font-family="sans-serif" font-size="13" lengthAdjust="spacing" textLength="113.7627" x="114.3926" y="683.7544">Message d&#8217;erreur</text></g><g class="message" data-participant-1="Administrateur" data-participant-2="UI"><polygon fill="#181818" points="315.3105,713.9531,325.3105,717.9531,315.3105,721.9531,319.3105,717.9531" style="stroke:#181818;stroke-width:1;"/><line style="stroke:#181818;stroke-width:1;stroke-dasharray:2.0,2.0;" x1="75.3018" x2="321.3105" y1="717.9531" y2="717.9531"/><text fill="#000000" font-family="sans-serif" font-size="13" font-weight="bold" lengthAdjust="spacing" textLength="18.0908" x="82.3018" y="712.8872">15</text><text fill="#000000" font-family="sans-serif" font-size="13" lengthAdjust="spacing" textLength="4.1323" x="104.3926" y="712.8872">&#160;</text></g><g class="message" data-participant-1="System" data-participant-2="DB"><polygon fill="#181818" points="1213.0479,750.0859,1223.0479,754.0859,1213.0479,758.0859,1217.0479,754.0859" style="stroke:#181818;stroke-width:1;"/><line style="stroke:#181818;stroke-width:1;" x1="897.686" x2="1219.0479" y1="754.0859" y2="754.0859"/><text fill="#000000" font-family="sans-serif" font-size="13" font-weight="bold" lengthAdjust="spacing" textLength="18.0908" x="904.686" y="749.02">16</text><text fill="#000000" font-family="sans-serif" font-size="13" lengthAdjust="spacing" textLength="228.2236" x="926.7769" y="749.02">V&#233;rifier disponibilit&#233; de la chambre</text></g><path d="M10,769.0859 L74.4429,769.0859 L74.4429,776.2188 L64.4429,786.2188 L10,786.2188 L10,769.0859" fill="#EEEEEE" style="stroke:#000000;stroke-width:1.5;"/><rect fill="none" height="104.5313" style="stroke:#000000;stroke-width:1.5;" width="990.1387" x="10" y="769.0859"/><text fill="#000000" font-family="sans-serif" font-size="13" font-weight="bold" lengthAdjust="spacing" textLength="19.4429" x="25" y="782.1528">alt</text><text fill="#000000" font-family="sans-serif" font-size="11" font-weight="bold" lengthAdjust="spacing" textLength="120.6563" x="89.4429" y="781.2964">[Chambre occup&#233;e]</text><g class="message" data-participant-1="System" data-participant-2="UI"><polygon fill="#181818" points="338.3105,803.3516,328.3105,807.3516,338.3105,811.3516,334.3105,807.3516" style="stroke:#181818;stroke-width:1;"/><line style="stroke:#181818;stroke-width:1;" x1="332.3105" x2="896.686" y1="807.3516" y2="807.3516"/><text fill="#000000" font-family="sans-serif" font-size="13" font-weight="bold" lengthAdjust="spacing" textLength="18.0908" x="344.3105" y="802.2856">17</text><text fill="#000000" font-family="sans-serif" font-size="13" lengthAdjust="spacing" textLength="208.5586" x="366.4014" y="802.2856">Afficher "Chambre indisponible"</text></g><g class="message" data-participant-1="UI" data-participant-2="Administrateur"><polygon fill="#181818" points="86.3018,832.4844,76.3018,836.4844,86.3018,840.4844,82.3018,836.4844" style="stroke:#181818;stroke-width:1;"/><line style="stroke:#181818;stroke-width:1;" x1="80.3018" x2="326.3105" y1="836.4844" y2="836.4844"/><text fill="#000000" font-family="sans-serif" font-size="13" font-weight="bold" lengthAdjust="spacing" textLength="18.0908" x="92.3018" y="831.4185">18</text><text fill="#000000" font-family="sans-serif" font-size="13" lengthAdjust="spacing" textLength="113.7627" x="114.3926" y="831.4185">Message d&#8217;erreur</text></g><g class="message" data-participant-1="Administrateur" data-participant-2="UI"><polygon fill="#181818" points="315.3105,861.6172,325.3105,865.6172,315.3105,869.6172,319.3105,865.6172" style="stroke:#181818;stroke-width:1;"/><line style="stroke:#181818;stroke-width:1;stroke-dasharray:2.0,2.0;" x1="75.3018" x2="321.3105" y1="865.6172" y2="865.6172"/><text fill="#000000" font-family="sans-serif" font-size="13" font-weight="bold" lengthAdjust="spacing" textLength="18.0908" x="82.3018" y="860.5513">19</text><text fill="#000000" font-family="sans-serif" font-size="13" lengthAdjust="spacing" textLength="4.1323" x="104.3926" y="860.5513">&#160;</text></g><rect fill="#EEEEEE" height="3" style="stroke:#EEEEEE;stroke-width:1;" width="1298.0996" x="0" y="901.1836"/><line style="stroke:#000000;stroke-width:1;" x1="0" x2="1298.0996" y1="901.1836" y2="901.1836"/><line style="stroke:#000000;stroke-width:1;" x1="0" x2="1298.0996" y1="904.1836" y2="904.1836"/><rect fill="#EEEEEE" height="23.1328" style="stroke:#000000;stroke-width:2;" width="210.1489" x="543.9753" y="890.6172"/><text fill="#000000" font-family="sans-serif" font-size="13" font-weight="bold" lengthAdjust="spacing" textLength="191.623" x="549.9753" y="906.6841">Cr&#233;ation de la r&#233;servation</text><g class="message" data-participant-1="System" data-participant-2="System"><line style="stroke:#181818;stroke-width:1;" x1="897.686" x2="939.686" y1="944.8828" y2="944.8828"/><line style="stroke:#181818;stroke-width:1;" x1="939.686" x2="939.686" y1="944.8828" y2="957.8828"/><line style="stroke:#181818;stroke-width:1;" x1="898.686" x2="939.686" y1="957.8828" y2="957.8828"/><polygon fill="#181818" points="908.686,953.8828,898.686,957.8828,908.686,961.8828,904.686,957.8828" style="stroke:#181818;stroke-width:1;"/><text fill="#000000" font-family="sans-serif" font-size="13" font-weight="bold" lengthAdjust="spacing" textLength="18.0908" x="904.686" y="939.8169">20</text><text fill="#000000" font-family="sans-serif" font-size="13" lengthAdjust="spacing" textLength="146.2437" x="926.7769" y="939.8169">Calculer montant total</text></g><g class="message" data-participant-1="System" data-participant-2="DB"><polygon fill="#181818" points="1213.0479,983.0156,1223.0479,987.0156,1213.0479,991.0156,1217.0479,987.0156" style="stroke:#181818;stroke-width:1;"/><line style="stroke:#181818;stroke-width:1;" x1="897.686" x2="1219.0479" y1="987.0156" y2="987.0156"/><text fill="#000000" font-family="sans-serif" font-size="13" font-weight="bold" lengthAdjust="spacing" textLength="18.0908" x="904.686" y="981.9497">21</text><text fill="#000000" font-family="sans-serif" font-size="13" lengthAdjust="spacing" textLength="218.2197" x="926.7769" y="981.9497">G&#233;n&#233;rer ID unique de r&#233;servation</text></g><g class="message" data-participant-1="System" data-participant-2="DB"><polygon fill="#181818" points="1213.0479,1012.1484,1223.0479,1016.1484,1213.0479,1020.1484,1217.0479,1016.1484" style="stroke:#181818;stroke-width:1;"/><line style="stroke:#181818;stroke-width:1;" x1="897.686" x2="1219.0479" y1="1016.1484" y2="1016.1484"/><text fill="#000000" font-family="sans-serif" font-size="13" font-weight="bold" lengthAdjust="spacing" textLength="18.0908" x="904.686" y="1011.0825">22</text><text fill="#000000" font-family="sans-serif" font-size="13" lengthAdjust="spacing" textLength="166.0801" x="926.7769" y="1011.0825">Enregistrer la r&#233;servation</text></g><g class="message" data-participant-1="System" data-participant-2="DB"><polygon fill="#181818" points="1213.0479,1041.2813,1223.0479,1045.2813,1213.0479,1049.2813,1217.0479,1045.2813" style="stroke:#181818;stroke-width:1;"/><line style="stroke:#181818;stroke-width:1;" x1="897.686" x2="1219.0479" y1="1045.2813" y2="1045.2813"/><text fill="#000000" font-family="sans-serif" font-size="13" font-weight="bold" lengthAdjust="spacing" textLength="18.0908" x="904.686" y="1040.2153">23</text><text fill="#000000" font-family="sans-serif" font-size="13" lengthAdjust="spacing" textLength="281.271" x="926.7769" y="1040.2153">Mettre &#224; jour &#233;tat de la chambre (occup&#233;e)</text></g><rect fill="#EEEEEE" height="3" style="stroke:#EEEEEE;stroke-width:1;" width="1298.0996" x="0" y="1073.8477"/><line style="stroke:#000000;stroke-width:1;" x1="0" x2="1298.0996" y1="1073.8477" y2="1073.8477"/><line style="stroke:#000000;stroke-width:1;" x1="0" x2="1298.0996" y1="1076.8477" y2="1076.8477"/><rect fill="#EEEEEE" height="23.1328" style="stroke:#000000;stroke-width:2;" width="113.9502" x="592.0747" y="1063.2813"/><text fill="#000000" font-family="sans-serif" font-size="13" font-weight="bold" lengthAdjust="spacing" textLength="95.4243" x="598.0747" y="1079.3481">Confirmation</text><g class="message" data-participant-1="System" data-participant-2="UI"><polygon fill="#181818" points="338.3105,1113.5469,328.3105,1117.5469,338.3105,1121.5469,334.3105,1117.5469" style="stroke:#181818;stroke-width:1;"/><line style="stroke:#181818;stroke-width:1;" x1="332.3105" x2="896.686" y1="1117.5469" y2="1117.5469"/><text fill="#000000" font-family="sans-serif" font-size="13" font-weight="bold" lengthAdjust="spacing" textLength="18.0908" x="344.3105" y="1112.481">24</text><text fill="#000000" font-family="sans-serif" font-size="13" lengthAdjust="spacing" textLength="280.3315" x="366.4014" y="1112.481">Afficher "R&#233;servation ajout&#233;e avec succ&#232;s"</text></g><g class="message" data-participant-1="UI" data-participant-2="Administrateur"><polygon fill="#181818" points="86.3018,1142.6797,76.3018,1146.6797,86.3018,1150.6797,82.3018,1146.6797" style="stroke:#181818;stroke-width:1;"/><line style="stroke:#181818;stroke-width:1;" x1="80.3018" x2="326.3105" y1="1146.6797" y2="1146.6797"/><text fill="#000000" font-family="sans-serif" font-size="13" font-weight="bold" lengthAdjust="spacing" textLength="18.0908" x="92.3018" y="1141.6138">25</text><text fill="#000000" font-family="sans-serif" font-size="13" lengthAdjust="spacing" textLength="163.8965" x="114.3926" y="1141.6138">Message de confirmation</text></g><!--SRC=[jLGxRjj04ErvYW4h6r0k8406P2a8LBYnexJ1Q7TeRK3ECliHuYxNI9VIF0TlafDaTYaPf62f2Q9g0RrvVE_D1sEm79iTkQ905Qo3fMuC6nyS1egkQD45eqoB7A3SS21NeIBO1bCRdo4be8VjPefyUl6XVsq8DC5Zttbo1mp6SWQdFwcP5joZp-2rPUuxyXculY-AnGAMIlMl7lhVK2DKbbLYOgnDw3jOB8gfPFXm9tBckQhJv00ZDCGHoh4GNnRRJO8EOkQmfWOvmMloODkCkS2ysblZZODo-Sr6IGGY4xYnoqlSbNLDhD6ux7LSaeq-KjDAh1wV2IW0yS4Qq75S9dO7rZURLMNKVifzirc3gWrnc45wxh7PEPe1xm1rh0FvcP1N4hmymajBuFjElBWPQ77gRoyOVyBiEoLaE7rlYFBCxMU7x1iAGPGag3ws57mg9v-jVkaxPqHvPf0mFBGIXxAiJUQS6ZrH7wl4xVT8MUlNoZ3S3KzDknWAh0EiamlHgEnUAYG7-Ih8xq9qPSAdZYGommSPBKrbhXYiJUEOmmCDJT9_VluYvzAY9B2Z41qNnBeOYL_VZuNJ3-4XbXsInWvDof9N-IbVpm1fpLN1R-Z_gbKRtresEpEicWGa2tYSfa7qy0QhL6obnzSr7y66JxprlmgNGLh9s9o6ACaRBzNxGxJ2MiLQ53MMKz0GRC3wB8HFVSTfT5nQeCWcpzlPoauhFhAZvoG_tH2yXdmOTaFkMTevwBk0OHekt9mIlHrCMgxCSTskd839XGDCrqae00-amCTyHK-dwMBO16hqiRy0]--></g></svg>