<svg xmlns="http://www.w3.org/2000/svg" xmlns:xlink="http://www.w3.org/1999/xlink" contentStyleType="text/css" data-diagram-type="DESCRIPTION" height="1039px" preserveAspectRatio="none" style="width:749px;height:1039px;background:#FFFFFF;" version="1.1" viewBox="0 0 749 1039" width="749px" zoomAndPan="magnify"><defs/><g><!--cluster G?rer les clients--><g class="cluster" data-entity="G&#233;rer les clients" data-source-line="5" data-uid="ent0003" id="cluster_G&#233;rer les clients"><rect fill="none" height="312" rx="2.5" ry="2.5" style="stroke:#181818;stroke-width:1;" width="553.26" x="175.21" y="7"/><text fill="#000000" font-family="sans-serif" font-size="14" font-weight="bold" lengthAdjust="spacing" textLength="129.0488" x="387.3156" y="21.9951">G&#233;rer les clients</text></g><!--cluster G?rer les chambres--><g class="cluster" data-entity="G&#233;rer les chambres" data-source-line="18" data-uid="ent0013" id="cluster_G&#233;rer les chambres"><rect fill="none" height="324" rx="2.5" ry="2.5" style="stroke:#181818;stroke-width:1;" width="552.32" x="165.32" y="343"/><text fill="#000000" font-family="sans-serif" font-size="14" font-weight="bold" lengthAdjust="spacing" textLength="153.7197" x="364.6201" y="357.9951">G&#233;rer les chambres</text></g><!--cluster G?rer les r?servations--><g class="cluster" data-entity="G&#233;rer les r&#233;servations" data-source-line="31" data-uid="ent0023" id="cluster_G&#233;rer les r&#233;servations"><rect fill="none" height="342" rx="2.5" ry="2.5" style="stroke:#181818;stroke-width:1;" width="586.07" x="157.6" y="691"/><text fill="#000000" font-family="sans-serif" font-size="14" font-weight="bold" lengthAdjust="spacing" textLength="175.7793" x="362.7454" y="705.9951">G&#233;rer les r&#233;servations</text></g><!--entity UC6--><g class="entity" data-entity="UC6" data-source-line="6" data-uid="ent0004" id="entity_UC6"><ellipse cx="264.286" cy="210.9952" fill="#F1F1F1" rx="73.076" ry="17.0152" style="stroke:#181818;stroke-width:0.5;"/><text fill="#000000" font-family="sans-serif" font-size="14" lengthAdjust="spacing" textLength="114.0303" x="207.2709" y="215.6436">G&#233;rer les clients</text></g><!--entity UC6_1--><g class="entity" data-entity="UC6_1" data-source-line="7" data-uid="ent0005" id="entity_UC6_1"><ellipse cx="602.8233" cy="286.0047" fill="#F1F1F1" rx="73.8233" ry="17.1647" style="stroke:#181818;stroke-width:0.5;"/><text fill="#000000" font-family="sans-serif" font-size="14" lengthAdjust="spacing" textLength="115.8623" x="544.8922" y="290.6531">Ajouter un client</text></g><!--entity UC6_2--><g class="entity" data-entity="UC6_2" data-source-line="8" data-uid="ent0006" id="entity_UC6_2"><ellipse cx="602.823" cy="215.9966" fill="#F1F1F1" rx="76.233" ry="17.6466" style="stroke:#181818;stroke-width:0.5;"/><text fill="#000000" font-family="sans-serif" font-size="14" lengthAdjust="spacing" textLength="121.707" x="541.9695" y="220.645">Modifier un client</text></g><!--entity UC6_3--><g class="entity" data-entity="UC6_3" data-source-line="9" data-uid="ent0007" id="entity_UC6_3"><ellipse cx="602.8231" cy="144.0006" fill="#F1F1F1" rx="83.2531" ry="19.0506" style="stroke:#181818;stroke-width:0.5;"/><text fill="#000000" font-family="sans-serif" font-size="14" lengthAdjust="spacing" textLength="138.2842" x="533.681" y="148.6491">Supprimer un client</text></g><!--entity UC6_4--><g class="entity" data-entity="UC6_4" data-source-line="10" data-uid="ent0008" id="entity_UC6_4"><ellipse cx="602.8163" cy="65.9993" fill="#F1F1F1" rx="109.6463" ry="24.3293" style="stroke:#181818;stroke-width:0.5;"/><text fill="#000000" font-family="sans-serif" font-size="14" lengthAdjust="spacing" textLength="197.1143" x="504.2592" y="70.6477">Consulter la liste des clients</text></g><!--entity UC7--><g class="entity" data-entity="UC7" data-source-line="19" data-uid="ent0014" id="entity_UC7"><ellipse cx="264.2876" cy="518.0035" fill="#F1F1F1" rx="82.9676" ry="18.9935" style="stroke:#181818;stroke-width:0.5;"/><text fill="#000000" font-family="sans-serif" font-size="14" lengthAdjust="spacing" textLength="137.6211" x="195.4771" y="522.652">G&#233;rer les chambres</text></g><!--entity UC7_1--><g class="entity" data-entity="UC7_1" data-source-line="20" data-uid="ent0015" id="entity_UC7_1"><ellipse cx="602.8235" cy="631.0007" fill="#F1F1F1" rx="87.5035" ry="19.9007" style="stroke:#181818;stroke-width:0.5;"/><text fill="#000000" font-family="sans-serif" font-size="14" lengthAdjust="spacing" textLength="148.0664" x="528.7903" y="635.6491">Ajouter une chambre</text></g><!--entity UC7_2--><g class="entity" data-entity="UC7_2" data-source-line="21" data-uid="ent0016" id="entity_UC7_2"><ellipse cx="602.8152" cy="555.995" fill="#F1F1F1" rx="90.0752" ry="20.415" style="stroke:#181818;stroke-width:0.5;"/><text fill="#000000" font-family="sans-serif" font-size="14" lengthAdjust="spacing" textLength="153.9111" x="525.8596" y="560.6435">Modifier une chambre</text></g><!--entity UC7_3--><g class="entity" data-entity="UC7_3" data-source-line="22" data-uid="ent0017" id="entity_UC7_3"><ellipse cx="602.8201" cy="478.996" fill="#F1F1F1" rx="97.4801" ry="21.896" style="stroke:#181818;stroke-width:0.5;"/><text fill="#000000" font-family="sans-serif" font-size="14" lengthAdjust="spacing" textLength="170.4883" x="517.576" y="483.6445">Supprimer une chambre</text></g><!--entity UC7_4--><g class="entity" data-entity="UC7_4" data-source-line="23" data-uid="ent0018" id="entity_UC7_4"><ellipse cx="602.8244" cy="400.0029" fill="#F1F1F1" rx="98.8144" ry="22.1629" style="stroke:#181818;stroke-width:0.5;"/><text fill="#000000" font-family="sans-serif" font-size="14" lengthAdjust="spacing" textLength="173.4414" x="516.1037" y="404.6513">Consulter la disponibilit&#233;</text></g><!--entity UC8--><g class="entity" data-entity="UC8" data-source-line="32" data-uid="ent0024" id="entity_UC8"><ellipse cx="264.286" cy="833.9972" fill="#F1F1F1" rx="90.686" ry="20.5372" style="stroke:#181818;stroke-width:0.5;"/><text fill="#000000" font-family="sans-serif" font-size="14" lengthAdjust="spacing" textLength="155.292" x="186.64" y="838.6456">G&#233;rer les r&#233;servations</text></g><!--entity UC8_1--><g class="entity" data-entity="UC8_1" data-source-line="33" data-uid="ent0025" id="entity_UC8_1"><ellipse cx="602.8225" cy="995.9985" fill="#F1F1F1" rx="95.3425" ry="21.4685" style="stroke:#181818;stroke-width:0.5;"/><text fill="#000000" font-family="sans-serif" font-size="14" lengthAdjust="spacing" textLength="165.7373" x="519.9539" y="1000.6469">Ajouter une r&#233;servation</text></g><!--entity UC8_2--><g class="entity" data-entity="UC8_2" data-source-line="34" data-uid="ent0026" id="entity_UC8_2"><ellipse cx="602.8238" cy="918.0048" fill="#F1F1F1" rx="97.9738" ry="21.9948" style="stroke:#181818;stroke-width:0.5;"/><text fill="#000000" font-family="sans-serif" font-size="14" lengthAdjust="spacing" textLength="171.582" x="517.0328" y="922.6532">Modifier une r&#233;servation</text></g><!--entity UC8_3--><g class="entity" data-entity="UC8_3" data-source-line="35" data-uid="ent0027" id="entity_UC8_3"><ellipse cx="602.8169" cy="833.9994" fill="#F1F1F1" rx="124.8469" ry="27.3694" style="stroke:#181818;stroke-width:0.5;"/><text fill="#000000" font-family="sans-serif" font-size="14" lengthAdjust="spacing" textLength="229.667" x="487.9834" y="838.6478">Annuler une r&#233;servation (Admin)</text></g><!--entity UC8_4--><g class="entity" data-entity="UC8_4" data-source-line="36" data-uid="ent0028" id="entity_UC8_4"><ellipse cx="602.8249" cy="748.997" fill="#F1F1F1" rx="103.0849" ry="23.017" style="stroke:#181818;stroke-width:0.5;"/><text fill="#000000" font-family="sans-serif" font-size="14" lengthAdjust="spacing" textLength="182.834" x="511.4079" y="753.6454">Consulter les r&#233;servations</text></g><!--entity Administrateur--><g class="entity" data-entity="Administrateur" data-source-line="3" data-uid="ent0002" id="entity_Administrateur"><ellipse cx="58.3018" cy="488.35" fill="#F1F1F1" rx="8" ry="8" style="stroke:#181818;stroke-width:0.5;"/><path d="M58.3018,496.35 L58.3018,523.35 M45.3018,504.35 L71.3018,504.35 M58.3018,523.35 L45.3018,538.35 M58.3018,523.35 L71.3018,538.35" fill="none" style="stroke:#181818;stroke-width:0.5;"/><text fill="#000000" font-family="sans-serif" font-size="14" lengthAdjust="spacing" textLength="104.6035" x="6" y="552.8451">Administrateur</text></g><!--link UC6 to UC6_1--><g class="link" data-entity-1="UC6" data-entity-2="UC6_1" data-source-line="12" data-uid="lnk9" id="link_UC6_UC6_1"><path d="M316.79,223.24 C337.91,228.21 362.6,233.96 384.98,239 C440.03,251.41 497.2223,263.7468 541.0923,273.1168" fill="none" id="UC6-to-UC6_1" style="stroke:#181818;stroke-width:1;stroke-dasharray:7.0,7.0;"/><polygon fill="#181818" points="546.96,274.37,538.994,268.5784,542.0703,273.3256,537.323,276.4019,546.96,274.37" style="stroke:#181818;stroke-width:1;"/><text fill="#000000" font-family="sans-serif" font-size="13" lengthAdjust="spacing" textLength="61.1851" x="385.98" y="235.0669">&#171;extend&#187;</text></g><!--link UC6 to UC6_2--><g class="link" data-entity-1="UC6" data-entity-2="UC6_2" data-source-line="13" data-uid="lnk10" id="link_UC6_UC6_2"><path d="M337.48,212.07 C393.11,212.9 463.7907,213.9507 520.2507,214.7907" fill="none" id="UC6-to-UC6_2" style="stroke:#181818;stroke-width:1;stroke-dasharray:7.0,7.0;"/><polygon fill="#181818" points="526.25,214.88,517.3105,210.7466,521.2506,214.8056,517.1915,218.7457,526.25,214.88" style="stroke:#181818;stroke-width:1;"/><text fill="#000000" font-family="sans-serif" font-size="13" lengthAdjust="spacing" textLength="61.1851" x="385.98" y="209.0669">&#171;extend&#187;</text></g><!--link UC6 to UC6_3--><g class="link" data-entity-1="UC6" data-entity-2="UC6_3" data-source-line="14" data-uid="lnk11" id="link_UC6_UC6_3"><path d="M320.86,199.94 C380.79,188.01 470.1256,170.2222 532.8256,157.7322" fill="none" id="UC6-to-UC6_3" style="stroke:#181818;stroke-width:1;stroke-dasharray:7.0,7.0;"/><polygon fill="#181818" points="538.71,156.56,529.102,154.3954,533.8063,157.5368,530.6649,162.2412,538.71,156.56" style="stroke:#181818;stroke-width:1;"/><text fill="#000000" font-family="sans-serif" font-size="13" lengthAdjust="spacing" textLength="61.1851" x="385.98" y="172.0669">&#171;extend&#187;</text></g><!--link UC6 to UC6_4--><g class="link" data-entity-1="UC6" data-entity-2="UC6_4" data-source-line="15" data-uid="lnk12" id="link_UC6_UC6_4"><path d="M294.26,195.13 C334.62,173.4 410.44,134.04 477.98,107 C496.9,99.42 512.1205,93.9851 531.3005,87.6751" fill="none" id="UC6-to-UC6_4" style="stroke:#181818;stroke-width:1;stroke-dasharray:7.0,7.0;"/><polygon fill="#181818" points="537,85.8,527.2007,84.8129,532.2504,87.3626,529.7008,92.4123,537,85.8" style="stroke:#181818;stroke-width:1;"/><text fill="#000000" font-family="sans-serif" font-size="13" lengthAdjust="spacing" textLength="61.1851" x="385.98" y="119.0669">&#171;extend&#187;</text></g><!--link UC7 to UC7_1--><g class="link" data-entity-1="UC7" data-entity-2="UC7_1" data-source-line="25" data-uid="lnk19" id="link_UC7_UC7_1"><path d="M297.53,535.84 C321.19,548.38 354.39,564.84 384.98,576 C434.41,594.04 486.4084,607.1088 529.9184,616.6188" fill="none" id="UC7-to-UC7_1" style="stroke:#181818;stroke-width:1;stroke-dasharray:7.0,7.0;"/><polygon fill="#181818" points="535.78,617.9,527.8417,612.0705,530.8953,616.8324,526.1335,619.886,535.78,617.9" style="stroke:#181818;stroke-width:1;"/><text fill="#000000" font-family="sans-serif" font-size="13" lengthAdjust="spacing" textLength="61.1851" x="385.98" y="572.0669">&#171;extend&#187;</text></g><!--link UC7 to UC7_2--><g class="link" data-entity-1="UC7" data-entity-2="UC7_2" data-source-line="26" data-uid="lnk20" id="link_UC7_UC7_2"><path d="M321.58,532.16 C341.49,536.65 364.12,541.18 384.98,544 C426.73,549.65 467.3549,552.4173 506.6349,554.0073" fill="none" id="UC7-to-UC7_2" style="stroke:#181818;stroke-width:1;stroke-dasharray:7.0,7.0;"/><polygon fill="#181818" points="512.63,554.25,503.7991,549.8893,507.6341,554.0478,503.4756,557.8827,512.63,554.25" style="stroke:#181818;stroke-width:1;"/><text fill="#000000" font-family="sans-serif" font-size="13" lengthAdjust="spacing" textLength="61.1851" x="385.98" y="540.0669">&#171;extend&#187;</text></g><!--link UC7 to UC7_3--><g class="link" data-entity-1="UC7" data-entity-2="UC7_3" data-source-line="27" data-uid="lnk21" id="link_UC7_UC7_3"><path d="M339.14,509.44 C391.09,503.42 454.8399,496.0305 509.3899,489.7105" fill="none" id="UC7-to-UC7_3" style="stroke:#181818;stroke-width:1;stroke-dasharray:7.0,7.0;"/><polygon fill="#181818" points="515.35,489.02,505.9495,486.0824,510.3832,489.5954,506.8702,494.0292,515.35,489.02" style="stroke:#181818;stroke-width:1;"/><text fill="#000000" font-family="sans-serif" font-size="13" lengthAdjust="spacing" textLength="61.1851" x="385.98" y="494.0669">&#171;extend&#187;</text></g><!--link UC7 to UC7_4--><g class="link" data-entity-1="UC7" data-entity-2="UC7_4" data-source-line="28" data-uid="lnk22" id="link_UC7_UC7_4"><path d="M308.43,501.56 C331.16,492.95 359.54,482.29 384.98,473 C426.17,457.95 436.44,454.07 477.98,440 C499.59,432.68 517.7178,426.7459 538.6578,420.0159" fill="none" id="UC7-to-UC7_4" style="stroke:#181818;stroke-width:1;stroke-dasharray:7.0,7.0;"/><polygon fill="#181818" points="544.37,418.18,534.5777,417.1257,539.6098,419.7099,537.0256,424.742,544.37,418.18" style="stroke:#181818;stroke-width:1;"/><text fill="#000000" font-family="sans-serif" font-size="13" lengthAdjust="spacing" textLength="61.1851" x="385.98" y="447.0669">&#171;extend&#187;</text></g><!--link UC8 to UC8_1--><g class="link" data-entity-1="UC8" data-entity-2="UC8_1" data-source-line="38" data-uid="lnk29" id="link_UC8_UC8_1"><path d="M294.46,853.73 C334.45,880.09 409.17,926.97 477.98,957 C497.81,965.66 514.442,971.5463 534.662,977.7263" fill="none" id="UC8-to-UC8_1" style="stroke:#181818;stroke-width:1;stroke-dasharray:7.0,7.0;"/><polygon fill="#181818" points="540.4,979.48,532.9622,973.0241,535.6184,978.0185,530.6239,980.6747,540.4,979.48" style="stroke:#181818;stroke-width:1;"/><text fill="#000000" font-family="sans-serif" font-size="13" lengthAdjust="spacing" textLength="61.1851" x="385.98" y="908.0669">&#171;extend&#187;</text></g><!--link UC8 to UC8_2--><g class="link" data-entity-1="UC8" data-entity-2="UC8_2" data-source-line="39" data-uid="lnk30" id="link_UC8_UC8_2"><path d="M326.62,849.31 C385.87,864.1 469.4888,884.9664 530.1988,900.1264" fill="none" id="UC8-to-UC8_2" style="stroke:#181818;stroke-width:1;stroke-dasharray:7.0,7.0;"/><polygon fill="#181818" points="536.02,901.58,528.2572,895.5187,531.169,900.3686,526.319,903.2804,536.02,901.58" style="stroke:#181818;stroke-width:1;"/><text fill="#000000" font-family="sans-serif" font-size="13" lengthAdjust="spacing" textLength="61.1851" x="385.98" y="863.0669">&#171;extend&#187;</text></g><!--link UC8 to UC8_3--><g class="link" data-entity-1="UC8" data-entity-2="UC8_3" data-source-line="40" data-uid="lnk31" id="link_UC8_UC8_3"><path d="M355.47,834 C392.95,834 431.07,834 471.54,834" fill="none" id="UC8-to-UC8_3" style="stroke:#181818;stroke-width:1;stroke-dasharray:7.0,7.0;"/><polygon fill="#181818" points="477.54,834,468.54,830,472.54,834,468.54,838,477.54,834" style="stroke:#181818;stroke-width:1;"/><text fill="#000000" font-family="sans-serif" font-size="13" lengthAdjust="spacing" textLength="61.1851" x="385.98" y="830.0669">&#171;extend&#187;</text></g><!--link UC8 to UC8_4--><g class="link" data-entity-1="UC8" data-entity-2="UC8_4" data-source-line="41" data-uid="lnk32" id="link_UC8_UC8_4"><path d="M326.23,818.61 C384.57,803.87 466.6327,783.1494 527.4027,767.7994" fill="none" id="UC8-to-UC8_4" style="stroke:#181818;stroke-width:1;stroke-dasharray:7.0,7.0;"/><polygon fill="#181818" points="533.22,766.33,523.5145,764.6559,528.3723,767.5545,525.4737,772.4123,533.22,766.33" style="stroke:#181818;stroke-width:1;"/><text fill="#000000" font-family="sans-serif" font-size="13" lengthAdjust="spacing" textLength="61.1851" x="385.98" y="785.0669">&#171;extend&#187;</text></g><!--link Administrateur to UC6--><g class="link" data-entity-1="Administrateur" data-entity-2="UC6" data-source-line="44" data-uid="lnk33" id="link_Administrateur_UC6"><path d="M79.95,479.4 C97.49,447.34 123.85,400.87 149.6,362 C183.13,311.39 227.57,255.07 249.64,227.72" fill="none" id="Administrateur-UC6" style="stroke:#181818;stroke-width:1;"/></g><!--link Administrateur to UC7--><g class="link" data-entity-1="Administrateur" data-entity-2="UC7" data-source-line="45" data-uid="lnk34" id="link_Administrateur_UC7"><path d="M111.04,518 C132.29,518 157.41,518 181.06,518" fill="none" id="Administrateur-UC7" style="stroke:#181818;stroke-width:1;"/></g><!--link Administrateur to UC8--><g class="link" data-entity-1="Administrateur" data-entity-2="UC8" data-source-line="46" data-uid="lnk35" id="link_Administrateur_UC8"><path d="M81.95,556.62 C99.89,586.91 125.81,629.98 149.6,667 C184.02,720.55 226.78,782.11 248.75,813.41" fill="none" id="Administrateur-UC8" style="stroke:#181818;stroke-width:1;"/></g><!--SRC=[ZPHDQiCm44RtFiMGLRj8e7QeJGa1aqLNNPMkWs9FaYco5FHJ2gK7oZboiTgkdJYn909U27rliEOD4iUj0ID1qMvle2I5XI4feeWLHYh8oue4QQEOGQkYg8cPs764oUlfg501Hmq59nH6J-0d0h0Q2wOz0DFmiNeUKlcdjAR6hEYe7be_3R4tMTAMd5myvDxjuQ2eSeB945n9eIrl_imPyBf5X79yqlMyhgc_UWcpsVB_NF02YmL-6nJbSdaJng4m2ONpw_3NAtlFget2aEqpqJQHkdLZp_MOL_YOz2eVetxf9Uc35BGXJkPqF1VCerPCseb9NRulOHmAar1uhszrEcfKNwov5W7fDrZRJEOpFuHxDg3VYL_D81V2SWSD3-qDVZnN-SRXww0VHzPvorpZk8HnA4n2uNWSrsyFJAVjq-7QJPsxsHy0]--></g></svg>